<?xml version="1.0" standalone="no"?>
<!DOCTYPE svg PUBLIC "-//W3C//DTD SVG 1.1//EN" "http://www.w3.org/Graphics/SVG/1.1/DTD/svg11.dtd" >
<svg>
<metadata>
Created by FontForge 20090622 at Mon Jun 18 07:21:02 2018
 By deploy user
Copyright &#194;&#169; 2015 by Jonathan Hill. All rights reserved.
</metadata>
<defs>
<font id="Facto-Medium" horiz-adv-x="623" >
  <font-face 
    font-family="Facto Medium"
    font-weight="500"
    font-stretch="normal"
    units-per-em="1000"
    panose-1="0 0 6 0 0 0 0 0 0 0"
    ascent="750"
    descent="-250"
    x-height="530"
    cap-height="700"
    bbox="-532 -251.882 1192 1092"
    underline-thickness="50"
    underline-position="-50"
    unicode-range="U+0020-U+FB02"
  />
<missing-glyph horiz-adv-x="500" 
d="M410 750v-1000h-317v1000h317zM333 683h-165v-33h65v-37h-66v-33h166v33h-66v37h66v33zM267 554h-100v-104h166v34h-66v70zM233 520v-36h-33v36h33zM333 423h-166v-33h66v-37h-66v-33h100v70h66v33zM333 363h-33v-66h-133v-34h166v100zM333 241h-100v-56h34v23h33v-47
h-100v80h-33v-113h166v113zM333 68h-166v-113h166v113zM300 35v-47h-100v47h100zM333 -68h-166v-33h70l-70 -47v-33h166v33h-102l70 47h32v33z" />
    <glyph glyph-name="fi" unicode="fi" horiz-adv-x="620" 
d="M439 530h106v-530h-106v448h-217v-448h-107v448h-90v82h90v73q1 147 162 147q27 0 64 -5v-88q-24 3 -43 3q-41 0 -58.5 -17t-17.5 -56v-57h217zM434 713h116v-111h-116v111z" />
    <glyph glyph-name="fl" unicode="fl" horiz-adv-x="615" 
d="M431 750h106v-750h-106v750zM269 750q28 0 65 -5v-88q-24 3 -43 3q-42 0 -59.5 -17t-17.5 -56v-57h111v-82h-111v-448h-106v448h-83v82h83v73q0 147 161 147z" />
    <glyph glyph-name="f_f" unicode="ff" horiz-adv-x="689" 
d="M614 660q-41 0 -59 -17t-18 -56v-57h111v-82h-111v-448h-106v448h-217v-448h-106v448h-83v82h83v73q0 147 161 147q28 0 65 -5v-88q-24 3 -43 3q-42 0 -59.5 -17t-17.5 -56v-57h217v73q0 147 161 147q28 0 65 -5v-88q-24 3 -43 3z" />
    <glyph glyph-name="f_f_i" unicode="ffi" horiz-adv-x="936" 
d="M755 530h106v-530h-107l1 448h-218v-448h-106v448h-217v-448h-106v448h-83v82h83v73q0 147 161 147q28 0 65 -5v-88q-24 3 -43 3q-42 0 -59.5 -17t-17.5 -56v-57h217v73q0 147 161 147q28 0 65 -5v-88q-24 3 -43 3q-41 0 -59 -17t-18 -56v-57h218zM749 713h117v-111h-117
v111z" />
    <glyph glyph-name="f_f_l" unicode="ffl" horiz-adv-x="965" 
d="M755 750h106v-750h-107zM592 750q28 0 65 -5v-88q-24 3 -43 3q-41 0 -59 -17t-18 -56v-57h111v-82h-111v-448h-106v448h-217v-448h-106v448h-83v82h83v73q0 147 161 147q28 0 65 -5v-88q-24 3 -43 3q-42 0 -59.5 -17t-17.5 -56v-57h217v73q0 147 161 147z" />
    <glyph glyph-name=".notdef" horiz-adv-x="500" 
d="M410 750v-1000h-317v1000h317zM333 683h-165v-33h65v-37h-66v-33h166v33h-66v37h66v33zM267 554h-100v-104h166v34h-66v70zM233 520v-36h-33v36h33zM333 423h-166v-33h66v-37h-66v-33h100v70h66v33zM333 363h-33v-66h-133v-34h166v100zM333 241h-100v-56h34v23h33v-47
h-100v80h-33v-113h166v113zM333 68h-166v-113h166v113zM300 35v-47h-100v47h100zM333 -68h-166v-33h70l-70 -47v-33h166v33h-102l70 47h32v33z" />
    <glyph glyph-name=".null" horiz-adv-x="0" 
 />
    <glyph glyph-name="nonmarkingreturn" horiz-adv-x="333" 
 />
    <glyph glyph-name="space" unicode=" " horiz-adv-x="250" 
 />
    <glyph glyph-name="exclam" unicode="!" horiz-adv-x="274" 
d="M198 700l-12 -488h-98l-12 488h122zM195 131v-131h-117l1 131h116z" />
    <glyph glyph-name="quotedbl" unicode="&#x22;" horiz-adv-x="385" 
d="M159 738l-7 -283h-86l-7 283h100zM325 738l-7 -283h-85l-7 283h99z" />
    <glyph glyph-name="numbersign" unicode="#" horiz-adv-x="628" 
d="M565 420h-100l-20 -138h100l-11 -77h-100l-29 -205h-85l29 205h-109l-29 -205h-85l30 205h-103l11 77h103l19 138h-103l11 77h103l29 203h85l-29 -203h109l29 203h85l-29 -203h99zM360 282l20 138h-109l-20 -138h109z" />
    <glyph glyph-name="dollar" unicode="$" horiz-adv-x="561" 
d="M506 199q0 -97 -47.5 -146t-137.5 -61v-102h-96v98q-80 3 -178 25v100q111 -25 199 -25q75 0 108 23t33 82q0 44 -24 64t-104 48q-3 1 -10 3l-41 14.5t-35 13t-32 13.5l-26 13.5t-22.5 15.5l-16.5 17.5t-13.5 21l-8.5 24.5t-6.5 30t-1.5 35q0 88 41 139t138 63v102h96
v-99q79 -3 159 -18v-100q-97 19 -182 19q-79 0 -105.5 -22.5t-26.5 -74.5q0 -40 20.5 -57t105.5 -47l50.5 -18.5t43 -17t38 -18.5t29 -20.5t24 -25t15.5 -29.5t11 -37.5t3 -45.5z" />
    <glyph glyph-name="percent" unicode="%" horiz-adv-x="892" 
d="M218.5 712q89.5 0 122.5 -51.5t33 -157t-33 -156.5t-122.5 -51t-122.5 51t-33 156.5t33 157t122.5 51.5zM690 712l-405 -724h-88l402 724h91zM218.5 645q-44.5 0 -59.5 -30t-15 -111t15 -111t59.5 -30t59 30t14.5 111t-14.5 111t-59 30zM673.5 404q89.5 0 122.5 -51.5
t33 -156.5t-33 -156.5t-122.5 -51.5t-122.5 51.5t-33 156.5t33 156.5t122.5 51.5zM673.5 337q-44.5 0 -59.5 -30t-15 -111t15 -111t59.5 -30t59.5 30t15 111t-15 111t-59.5 30z" />
    <glyph glyph-name="ampersand" unicode="&#x26;" horiz-adv-x="713" 
d="M671 0h-139l-36 41q-79 -53 -192 -53q-49 0 -88.5 10t-74 32.5t-53.5 64.5t-19 100q0 69 30 108t101 76q-40 44 -59.5 80t-19.5 85q0 82 47 125t154 43q57 0 97 -13.5t61 -38t30 -53.5t9 -68q0 -30 -7 -53t-17 -39t-32.5 -32.5t-43.5 -28t-60 -29.5l139 -159
q28 58 29 133h108q0 -125 -64 -216zM322 619q-55 0 -75 -17.5t-20 -59.5q0 -7 0.5 -12.5l1 -10.5t3 -10.5t3.5 -8.5t5.5 -9t6.5 -9t8.5 -10.5l9.5 -11t12.5 -13.5l14.5 -15q7 3 19 9q72 34 87.5 48t15.5 49q0 46 -18 63.5t-74 17.5zM305 84q73 0 124 34l-160 183
q-57 -27 -72 -45.5t-15 -57.5q0 -65 30 -89.5t93 -24.5z" />
    <glyph glyph-name="quotesingle" unicode="'" horiz-adv-x="218" 
d="M159 738l-7 -283h-86l-7 283h100z" />
    <glyph glyph-name="parenleft" unicode="(" horiz-adv-x="362" 
d="M319 730v-93q-80 -26 -113 -115t-33 -242.5t33 -242.5t113 -115v-93q-75 18 -125 56.5t-78 98t-39.5 130t-11.5 166t11.5 166.5t39.5 130t78 97.5t125 56.5z" />
    <glyph glyph-name="parenright" unicode=")" horiz-adv-x="362" 
d="M43 730q74 -18 124.5 -56.5t78 -97.5t39 -130t11.5 -166.5t-11.5 -166t-39 -130t-78 -98t-124.5 -56.5v93q80 26 113 115t33 242.5t-33 242.5t-113 115v93z" />
    <glyph glyph-name="asterisk" unicode="*" horiz-adv-x="479" 
d="M436 549l-137 -40l87 -113l-66 -48l-81 117l-80 -117l-67 48l88 113l-137 40l25 78l134 -48l-4 143h82l-4 -143l134 48z" />
    <glyph glyph-name="plus" unicode="+" horiz-adv-x="620" 
d="M557 339v-87h-201v-204h-91v204h-202v86h202v205h90l1 -205z" />
    <glyph glyph-name="comma" unicode="," horiz-adv-x="284" 
d="M39 -146l64 257h121l-92 -257h-93z" />
    <glyph glyph-name="hyphen" unicode="-" horiz-adv-x="385" 
d="M59 333h267v-86h-267v86z" />
    <glyph glyph-name="period" unicode="." horiz-adv-x="235" 
d="M176 131v-131h-117v131h117z" />
    <glyph glyph-name="slash" unicode="/" horiz-adv-x="439" 
d="M397 712l-257 -724h-97l256 724h98z" />
    <glyph glyph-name="zero" unicode="0" horiz-adv-x="645" 
d="M322.5 692q64.5 0 111.5 -15.5t77 -43.5t47.5 -73t24 -97t6.5 -123t-6.5 -123t-24 -97t-47.5 -73t-77 -43.5t-111.5 -15.5t-111.5 15.5t-76.5 43.5t-47.5 73t-24.5 97t-6.5 123t6.5 123t24.5 97t47.5 73t76.5 43.5t111.5 15.5zM322.5 589q-86.5 0 -116.5 -54.5
t-30 -194.5t30 -194.5t116.5 -54.5t116.5 54.5t30 194.5t-30 194.5t-116.5 54.5z" />
    <glyph glyph-name="one" unicode="1" horiz-adv-x="369" 
d="M178 680h116v-680h-116v581l-158 -44v95z" />
    <glyph glyph-name="two" unicode="2" horiz-adv-x="570" 
d="M174 151v-54h336v-97h-455v97v56q0 46 9 76.5t33 54t57 40.5t90 37q103 37 129 56.5t26 68.5q0 57 -29 80t-112 23t-188 -16v100q107 19 198 19q136 0 192 -51.5t56 -154.5q0 -21 -2 -39t-7 -33t-9.5 -27t-15.5 -23.5l-18.5 -19.5t-24.5 -17.5l-28.5 -15.5t-35 -15
l-38.5 -14.5l-45 -16.5q-37 -13 -55 -21t-35 -21t-22.5 -29.5t-5.5 -42.5z" />
    <glyph glyph-name="three" unicode="3" horiz-adv-x="567" 
d="M507 181q0 -106 -63.5 -149.5t-192.5 -43.5q-88 0 -198 14v102q108 -13 194 -13q82 0 112 20.5t30 80.5q0 62 -31 87.5t-108 25.5h-97v92h95q73 0 101 21.5t28 77.5q0 55 -27.5 74t-103.5 19q-84 0 -182 -13l-1 100q104 16 190 16q120 0 179.5 -42t59.5 -143
q0 -115 -81 -157q96 -42 96 -169z" />
    <glyph glyph-name="four" unicode="4" horiz-adv-x="617" 
d="M569 252v-95h-87v-157h-116v157h-330v95l325 428h121v-428h87zM159 252h207v281z" />
    <glyph glyph-name="five" unicode="5" horiz-adv-x="563" 
d="M249 420q134 0 196.5 -48t62.5 -165q0 -119 -64 -169t-198 -50q-83 0 -191 13v97q106 -11 184 -11q88 0 119.5 24.5t31.5 95.5q0 72 -31 96t-117 25q-93 -1 -171 -9v48v313h13h399v-97h-296v-165q32 2 62 2z" />
    <glyph glyph-name="six" unicode="6" horiz-adv-x="618" 
d="M305 427q134 0 198 -50.5t64 -168.5q0 -119 -63 -169.5t-179 -50.5q-65 0 -112 15.5t-77.5 43t-48 72.5t-24.5 97.5t-7 124.5t6.5 123.5t24.5 96.5t48.5 72.5t78.5 43t114 15.5q81 0 179 -15v-102q-102 15 -178 14q-78 0 -111.5 -37.5t-40.5 -129.5q78 5 128 5zM324 89
q65 0 95 26t30 96q0 74 -33.5 100t-110.5 26q-52 0 -131 -8q1 -135 31 -187.5t119 -52.5z" />
    <glyph glyph-name="seven" unicode="7" horiz-adv-x="525" 
d="M23 680h463v-97l-274 -583h-122l278 583h-345v97z" />
    <glyph glyph-name="eight" unicode="8" horiz-adv-x="621" 
d="M471 352q94 -43 94 -169q0 -107 -63.5 -151t-191 -44t-191 44t-63.5 151q0 126 94 169q-79 42 -79 155q0 101 59.5 143t180 42t180 -42t59.5 -143q0 -113 -79 -155zM310 595q-74 0 -101 -20.5t-27 -79t27 -78.5t101 -20t101.5 20t27.5 78.5t-27.5 79t-101.5 20.5z
M310.5 87q79.5 0 109.5 23t30 87.5t-30 87t-109.5 22.5t-109.5 -22.5t-30 -87t30 -87.5t109.5 -23z" />
    <glyph glyph-name="nine" unicode="9" horiz-adv-x="618" 
d="M293 692q65 0 112 -15.5t77.5 -43t48 -72.5t24.5 -97.5t7 -124.5q0 -71 -7 -123t-24.5 -97t-48 -72.5t-78.5 -43t-115 -15.5q-80 0 -178 16v101q102 -15 177 -14q82 0 115 40t39 140q-78 -5 -129 -5q-134 0 -198 49t-64 163q0 116 63 165t179 49zM169 474q0 -71 33 -95.5
t111 -24.5q51 0 130 7q-1 129 -31.5 179.5t-117.5 50.5q-66 0 -95.5 -25t-29.5 -92z" />
    <glyph glyph-name="colon" unicode=":" horiz-adv-x="235" 
d="M59 405v131h117v-131h-117zM59 0v131h117v-131h-117z" />
    <glyph glyph-name="semicolon" unicode=";" horiz-adv-x="284" 
d="M108 405v131h117l-1 -131h-116zM39 -146l64 257h121l-92 -257h-93z" />
    <glyph glyph-name="less" unicode="&#x3c;" horiz-adv-x="598" 
d="M555 554v-101l-381 -160l381 -159v-101l-496 212v96z" />
    <glyph glyph-name="equal" unicode="=" horiz-adv-x="613" 
d="M550 439v-86h-487v86h487zM550 233v-86h-487v86h487z" />
    <glyph glyph-name="greater" unicode="&#x3e;" horiz-adv-x="605" 
d="M46 554l496 -213v-96l-496 -212v101l381 159l-381 160v101z" />
    <glyph glyph-name="question" unicode="?" horiz-adv-x="538" 
d="M236 712q72 0 121 -13.5t76.5 -41t39 -64t11.5 -88.5q0 -32 -3.5 -55t-13.5 -41t-20 -30t-30.5 -23.5t-38.5 -19t-50 -19.5q-44 -16 -54.5 -25.5t-10.5 -38.5l-1 -41h-98l-2 64q-1 32 4.5 52.5t21.5 34.5t32.5 21.5t49.5 19.5q36 13 50.5 19.5t27 18t14.5 25t2 39.5
q0 61 -26.5 83.5t-109.5 22.5q-82 0 -180 -15v99q102 16 188 16zM271 131v-131h-117l1 131h116z" />
    <glyph glyph-name="at" unicode="@" horiz-adv-x="1021" 
d="M510 712q98 0 182 -37.5t139.5 -100.5t86.5 -143.5t31 -167.5q0 -114 -50.5 -183t-130.5 -77q-41 -4 -90.5 9.5t-93.5 43.5l-4 31q-41 -24 -68.5 -32.5t-58.5 -8.5q-88 0 -123.5 55.5t-35.5 161.5t35.5 161t123.5 55q55 0 122 -37v37h90v-370q49 -27 90 -22
q43 5 72.5 50.5t29.5 126.5q0 96 -42.5 178t-123 133t-181.5 51q-100 0 -179 -49t-122.5 -135t-43.5 -193t43 -194.5t123 -137.5t181 -50q69 0 133 23v-87q-64 -19 -134 -19q-128 0 -229 62.5t-155 168.5t-54 234t54 233.5t154.5 167.5t228.5 62zM475 126q20 0 39.5 7
t60.5 30v199q-39 23 -59 30t-41 7q-51 0 -70 -30.5t-19 -105.5t19 -106t70 -31z" />
    <glyph glyph-name="A" unicode="A" horiz-adv-x="680" 
d="M522 0l-57 181h-250l-57 -181h-122l235 700h31h76h31l235 -700h-122zM245 277h190l-95 303z" />
    <glyph glyph-name="B" unicode="B" horiz-adv-x="641" 
d="M480 365q53 -18 79.5 -59.5t26.5 -112.5q0 -106 -59 -149.5t-180 -43.5h-152h-116v700h63h193q115 0 171.5 -42t56.5 -144q0 -62 -20.5 -97.5t-62.5 -51.5zM443 505q0 59 -25.5 80.5t-95.5 21.5h-127v-201h127q70 0 95.5 20t25.5 79zM335 93q75 0 103 23.5t28 85.5
t-28.5 88t-102.5 26h-140v-223h140z" />
    <glyph glyph-name="C" unicode="C" horiz-adv-x="579" 
d="M352 712q78 0 168 -21v-103q-87 21 -155 21q-55 0 -89.5 -13.5t-54.5 -46t-27.5 -79t-7.5 -121t7.5 -121t27 -79t54 -45.5t88.5 -13q71 0 157 20v-102q-92 -21 -168 -21q-69 0 -119.5 16t-82.5 45t-50.5 75t-26 99.5t-7.5 126.5t7.5 127t26.5 100t51.5 74.5t82.5 44.5
t118 16z" />
    <glyph glyph-name="D" unicode="D" horiz-adv-x="678" 
d="M334 700q83 0 138.5 -21.5t85.5 -68t42 -107.5t12 -153q0 -73 -7 -125.5t-25.5 -97t-50 -71.5t-80 -41.5t-115.5 -14.5h-139h-116v700h21h234zM314 95q46 0 77 8t51.5 25t31 49t14.5 71.5t4 101.5t-4 101.5t-14.5 71.5t-31 48.5t-51.5 25t-77 8.5h-119v-510h119z" />
    <glyph glyph-name="E" unicode="E" horiz-adv-x="547" 
d="M500 603h-305v-196h289v-96h-289v-214h305v-97h-305h-116v700h95h326v-97z" />
    <glyph glyph-name="F" unicode="F" horiz-adv-x="535" 
d="M489 603h-294v-208h278v-96h-278v-299h-116v700h95h315v-97z" />
    <glyph glyph-name="G" unicode="G" horiz-adv-x="674" 
d="M600 285q1 -64 -4.5 -108t-20.5 -82t-42 -60t-70 -34.5t-105 -12.5q-70 0 -121.5 15.5t-84 44t-52 75t-27 101t-7.5 128.5q0 73 7.5 126.5t26.5 99.5t52 74.5t84.5 44t122.5 15.5q89 0 193 -21v-103q-101 21 -181 21q-59 0 -94.5 -12.5t-56 -45.5t-27.5 -79t-7 -123
q0 -74 6.5 -120t26 -79t53 -46t87.5 -13q35 0 58 6.5t37.5 18t22 35t10 50.5t1.5 71v20h-119v93h231v-100z" />
    <glyph glyph-name="H" unicode="H" horiz-adv-x="697" 
d="M502 700h116v-700h-116v311h-307v-311h-116v700h116v-293h307v293z" />
    <glyph glyph-name="I" unicode="I" horiz-adv-x="274" 
d="M195 700v-700h-116v700h116z" />
    <glyph glyph-name="J" unicode="J" horiz-adv-x="424" 
d="M348 700v-494q0 -116 -48 -167t-163 -51q-49 0 -98 9v98q43 -8 78 -8q65 0 90 26t25 104v483h116z" />
    <glyph glyph-name="K" unicode="K" horiz-adv-x="641" 
d="M460 0l-240 312h-25v-312h-116v700h116v-291h26l230 291h140l-272 -337l283 -363h-142z" />
    <glyph glyph-name="L" unicode="L" horiz-adv-x="516" 
d="M477 97v-97h-282h-116v700h116v-603h282z" />
    <glyph glyph-name="M" unicode="M" horiz-adv-x="805" 
d="M733 0h-114l-29 503l-136 -398h-104l-136 398l-29 -503h-115l46 700h137l149 -441l149 441h137z" />
    <glyph glyph-name="N" unicode="N" horiz-adv-x="672" 
d="M488 700h112v-700h-150l-266 534v-534h-112v700h145l271 -544v544z" />
    <glyph glyph-name="O" unicode="O" horiz-adv-x="712" 
d="M356 712q70 0 121.5 -16t83.5 -44.5t51.5 -75t27 -100t7.5 -126.5t-7.5 -126.5t-27 -100t-51.5 -75t-83.5 -44.5t-121.5 -16t-121 16t-83.5 44.5t-51.5 75t-26.5 100t-7.5 126.5t7.5 126.5t26.5 100t51.5 75t83.5 44.5t121 16zM356.5 609q-52.5 0 -85.5 -13.5t-52 -46.5
t-26 -79t-7 -120t7 -120t26 -79t52 -46.5t85.5 -13.5t85.5 13.5t51.5 46.5t25.5 79t7 120t-7 120t-25.5 79t-51.5 46.5t-85.5 13.5z" />
    <glyph glyph-name="P" unicode="P" horiz-adv-x="615" 
d="M312 700q130 0 193.5 -49.5t63.5 -166t-63 -166.5t-194 -50h-117v-268h-116v700h79h154zM304 362q83 0 114.5 25t31.5 97t-31.5 97.5t-114.5 25.5h-109v-245h109z" />
    <glyph glyph-name="Q" unicode="Q" horiz-adv-x="716" 
d="M650 -144h-139l-122 133q-16 -1 -33 -1q-70 0 -121 16t-83.5 44.5t-51.5 75t-26.5 100t-7.5 126.5t7.5 126.5t26.5 100t51.5 75t83.5 44.5t121 16t121.5 -16t83.5 -44.5t51.5 -75t27 -100t7.5 -126.5q0 -140 -32 -222t-113 -116zM186 350q0 -74 7 -120t26 -79t52 -46.5
t85.5 -13.5t85.5 13.5t51.5 46.5t25.5 79t7 120t-7 120t-25.5 79t-51.5 46.5t-85.5 13.5t-85.5 -13.5t-52 -46.5t-26 -79t-7 -120z" />
    <glyph glyph-name="R" unicode="R" horiz-adv-x="633" 
d="M458 0l-157 288h-106v-288h-116v700h92h152q125 0 185.5 -47.5t60.5 -158.5q0 -87 -37 -134.5t-112 -63.5l168 -296h-130zM195 607v-226h121q77 0 106 23t29 90q0 66 -29 89.5t-106 23.5h-121z" />
    <glyph glyph-name="S" unicode="S" horiz-adv-x="561" 
d="M291 712q91 0 189 -19v-100q-97 19 -182 19q-79 0 -105.5 -22.5t-26.5 -74.5q0 -40 20.5 -57t105.5 -47l50.5 -18.5t43 -17t38 -18.5t29 -20.5t24 -25t15.5 -29.5t11 -37.5t3 -45.5q0 -115 -65 -163t-189 -48q-92 0 -205 25v100q111 -25 199 -25q75 0 108 23t33 82
q0 44 -24 64t-104 48q-3 1 -10 3l-41 14.5t-35 13t-32 13.5l-26 13.5t-22.5 15.5l-16.5 17.5t-13.5 21l-8.5 24.5t-6.5 30t-1.5 35q0 102 55.5 154t189.5 52z" />
    <glyph glyph-name="T" unicode="T" horiz-adv-x="562" 
d="M521 700v-97h-182v-603h-116v603h-182v97h182h116h182z" />
    <glyph glyph-name="U" unicode="U" horiz-adv-x="660" 
d="M586 700v-444q0 -67 -11 -114t-39 -83t-78.5 -53.5t-126.5 -17.5t-127 17.5t-78.5 53.5t-38.5 83t-11 114v444h116v-450q0 -92 28 -125.5t111 -33.5t111 33.5t28 125.5v450h116z" />
    <glyph glyph-name="V" unicode="V" horiz-adv-x="672" 
d="M633 700l-228 -700h-32h-75h-31l-228 700h123l174 -576l174 576h123z" />
    <glyph glyph-name="W" unicode="W" horiz-adv-x="878" 
d="M839 700l-156 -700h-41h-98l-105 458l-104 -458h-99h-41l-156 700h119l112 -551l106 463h126l106 -463l112 551h119z" />
    <glyph glyph-name="X" unicode="X" horiz-adv-x="661" 
d="M610 700l-212 -345l223 -355h-128l-164 263l-161 -263h-129l224 358l-212 342h129l151 -248l150 248h129z" />
    <glyph glyph-name="Y" unicode="Y" horiz-adv-x="645" 
d="M606 700l-226 -431v-269h-116l1 269l-226 431h125l158 -310l159 310h125z" />
    <glyph glyph-name="Z" unicode="Z" horiz-adv-x="565" 
d="M173 97h340v-97h-470v97l331 506h-309v97h440v-97z" />
    <glyph glyph-name="bracketleft" unicode="[" horiz-adv-x="335" 
d="M288 638h-102v-712h102v-85h-102h-104v797v85h104l102 -1v-84z" />
    <glyph glyph-name="backslash" unicode="\" horiz-adv-x="439" 
d="M140 712l257 -724h-98l-256 724h97z" />
    <glyph glyph-name="bracketright" unicode="]" horiz-adv-x="335" 
d="M252 -159h-103h-103v85h103v712h-103v84l103 1h103v-85v-797z" />
    <glyph glyph-name="asciicircum" unicode="^" horiz-adv-x="534" 
d="M482 318h-98l-117 274l-117 -274h-98l168 382h94z" />
    <glyph glyph-name="underscore" unicode="_" horiz-adv-x="624" 
d="M59 -73h506v-83l-506 1v82z" />
    <glyph glyph-name="grave" unicode="`" horiz-adv-x="290" 
d="M155 751l92 -154h-92l-112 154h112z" />
    <glyph glyph-name="a" unicode="a" horiz-adv-x="583" 
d="M289 542q223 0 223 -183v-359h-99l-3 45q-97 -57 -182 -57q-73 0 -118.5 39.5t-45.5 130.5q0 95 51.5 131.5t154.5 38.5h136v29q0 53 -29 74t-90 21q-72 0 -180 -21v91q109 20 182 20zM171 166q0 -50 20 -70t64 -20q66 0 151 46v131h-127q-62 -1 -85 -17.5t-23 -69.5z
" />
    <glyph glyph-name="b" unicode="b" 
d="M361 542q59 0 99 -18.5t62.5 -56.5t32 -86.5t9.5 -116t-9.5 -116t-32 -86t-62.5 -56t-99 -18.5q-44 0 -84.5 12.5t-96.5 43.5l-5 -44h-96v750h107v-261q53 29 92 41t83 12zM332 81q71 0 97 41t26 143q0 101 -26 142.5t-97 41.5q-32 0 -63.5 -10t-82.5 -39v-270
q52 -29 83 -39t63 -10z" />
    <glyph glyph-name="c" unicode="c" horiz-adv-x="516" 
d="M309 542q62 0 149 -19v-92q-78 18 -138 18q-85 0 -117.5 -41.5t-32.5 -142.5t32.5 -142.5t117.5 -41.5q60 0 140 19v-93q-83 -19 -150 -19q-135 0 -192 69.5t-57 207.5t57 207.5t191 69.5z" />
    <glyph glyph-name="d" unicode="d" 
d="M544 0h-95l-6 44q-55 -31 -95.5 -43.5t-85.5 -12.5q-114 0 -158.5 69t-44.5 207q0 68 9.5 116.5t32 86t63 56.5t98.5 19q44 0 83.5 -12t92.5 -41v261h106v-750zM168 265q0 -101 26 -142.5t98 -41.5q32 0 63 10t83 39v270q-52 29 -83 39t-63 10q-71 0 -97.5 -41.5
t-26.5 -142.5z" />
    <glyph glyph-name="e" unicode="e" horiz-adv-x="579" 
d="M298 542q63 0 108 -17t69 -42.5t36.5 -64.5t14.5 -72t0 -75q0 -8 -1 -20t-2 -21v0h-355q4 -85 35.5 -117.5t110.5 -32.5q113 0 189 39v-89q-78 -42 -196 -42q-137 0 -193 67.5t-56 207t55 209.5t185 70zM295 451q-63 0 -92 -32.5t-34 -109.5h250q0 24 -1 41t-8 37.5
t-20 33t-37 21.5t-58 9z" />
    <glyph glyph-name="f" unicode="f" horiz-adv-x="366" 
d="M291 660q-42 0 -59.5 -17t-17.5 -56v-57h111v-82h-111v-448h-106v448h-83v82h83v73q0 147 161 147q28 0 65 -5v-88q-24 3 -43 3z" />
    <glyph glyph-name="g" unicode="g" 
d="M544 530v-535q0 -112 -61 -159.5t-186 -47.5q-105 0 -183 31v89q78 -33 186 -33q77 0 107.5 25.5t30.5 94.5v56q-54 -28 -93 -39.5t-83 -11.5q-114 0 -158.5 66.5t-44.5 201.5q0 137 45 205.5t158 68.5q45 0 85.5 -12.5t95.5 -43.5l6 44h95zM294 90q30 0 60.5 9t83.5 37
v264q-52 29 -83 39t-64 10q-71 0 -97 -41t-26 -142q0 -99 26 -137.5t100 -38.5z" />
    <glyph glyph-name="h" unicode="h" horiz-adv-x="618" 
d="M387 541q74 0 117 -42.5t43 -133.5v-365h-106v350q0 55 -20 76.5t-61 21.5q-71 0 -173 -47v-401h-106v750h106v-261q113 52 200 52z" />
    <glyph glyph-name="i" unicode="i" horiz-adv-x="273" 
d="M197 713v-111h-116v111h116zM192 530v-530h-106v530h106z" />
    <glyph glyph-name="j" unicode="j" horiz-adv-x="271" 
d="M195 713v-111h-116v111h116zM190 530v-597q0 -143 -163 -143q-15 0 -34 2v89h14q42 0 59.5 17t17.5 53v579h106z" />
    <glyph glyph-name="k" unicode="k" horiz-adv-x="571" 
d="M402 0l-193 233h-22v-233h-106v750h106v-435h25l177 215h131l-223 -259l237 -271h-132z" />
    <glyph glyph-name="l" unicode="l" horiz-adv-x="265" 
d="M187 750v-750h-106v750h106z" />
    <glyph glyph-name="m" unicode="m" horiz-adv-x="902" 
d="M682 542q70 0 109.5 -43t39.5 -135v-364h-106v351q0 54 -18.5 76t-56.5 22q-59 0 -146 -46q3 -19 3 -39v-364h-106v351q0 54 -19 76t-56 22q-59 0 -144 -45v-404h-106v530h95l5 -42q103 54 181 54q88 0 125 -65q113 65 200 65z" />
    <glyph glyph-name="n" unicode="n" horiz-adv-x="613" 
d="M382 542q74 0 117 -43t43 -133v-366h-106v351q0 54 -20 76t-61 22q-71 0 -173 -47v-402h-106v530h95l5 -43q117 55 206 55z" />
    <glyph glyph-name="o" unicode="o" horiz-adv-x="612" 
d="M306 542q135 0 191 -69t56 -208t-56 -208t-191 -69t-191 69t-56 208t56 208t191 69zM306 449q-78 0 -108 -41.5t-30 -142.5t30 -142.5t108 -41.5t108 41.5t30 142.5t-30 142.5t-108 41.5z" />
    <glyph glyph-name="p" unicode="p" 
d="M361 542q114 0 158.5 -69t44.5 -207q0 -68 -9.5 -116.5t-32 -86.5t-62.5 -56.5t-99 -18.5q-44 0 -83 12t-92 41v-238h-107v727h96l5 -45q56 32 96 44.5t85 12.5zM332 81q71 0 97 41.5t26 142.5t-26 142.5t-97 41.5q-32 0 -63 -10t-83 -39v-270q52 -29 83 -39t63 -10z" />
    <glyph glyph-name="q" unicode="q" 
d="M449 530h95v-727h-106v238q-54 -29 -93 -41t-82 -12q-59 0 -99.5 18.5t-63 56.5t-32 86.5t-9.5 116.5q0 138 45 207t158 69q45 0 85.5 -12.5t95.5 -44.5zM292 81q32 0 63 10t83 39v270q-52 29 -83 39t-63 10q-72 0 -98 -41.5t-26 -142.5t26 -142.5t98 -41.5z" />
    <glyph glyph-name="r" unicode="r" horiz-adv-x="423" 
d="M388 542v-90q-40 0 -86.5 -16t-121.5 -55v-381h-106v530h95l7 -56q70 36 118.5 52t93.5 16z" />
    <glyph glyph-name="s" unicode="s" horiz-adv-x="485" 
d="M249 543q76 0 158 -17v-91q-81 17 -153 17q-62 0 -81.5 -15t-19.5 -47q0 -29 16.5 -41t80.5 -32q6 -2 17 -5l40 -12t34.5 -12.5t32.5 -16t25.5 -20t21.5 -26t12 -33t5 -43.5q0 -161 -217 -161q-77 0 -175 22v91q99 -22 172 -22q58 0 83 15t25 54q0 32 -18.5 44t-87.5 34
q-37 11 -56.5 18t-43 17.5t-34.5 20.5t-22 25t-14.5 33.5t-3.5 43.5q0 79 45.5 119t157.5 40z" />
    <glyph glyph-name="t" unicode="t" horiz-adv-x="395" 
d="M286 77q11 0 45 3v-88q-36 -4 -63 -4q-154 0 -154 135v325h-82v82h82v129h107v-129h110v-82h-110v-308q0 -33 16 -48t49 -15z" />
    <glyph glyph-name="u" unicode="u" horiz-adv-x="584" 
d="M407 530h106v-530h-96l-5 42q-105 -54 -187 -54q-71 0 -112.5 43t-41.5 133v366h106v-351q0 -54 19 -76t58 -22q63 0 153 46v403z" />
    <glyph glyph-name="v" unicode="v" horiz-adv-x="559" 
d="M409 530h113l-176 -530h-133l-176 530h113l130 -418z" />
    <glyph glyph-name="w" unicode="w" horiz-adv-x="791" 
d="M642 530h112l-143 -530h-121l-95 326l-94 -326h-121l-143 530h112l95 -398l98 347h107l98 -347z" />
    <glyph glyph-name="x" unicode="x" horiz-adv-x="566" 
d="M518 530l-171 -262l182 -268h-119l-127 192l-126 -192h-120l185 273l-174 257h120l118 -177l112 177h120z" />
    <glyph glyph-name="y" unicode="y" horiz-adv-x="581" 
d="M432 530h112l-227 -623q-17 -48 -56 -76t-92 -28h-56v86h42q55 0 73 53l31 89l-222 499h114l156 -359z" />
    <glyph glyph-name="z" unicode="z" horiz-adv-x="515" 
d="M169 82h297v-82h-420v82l289 366h-277v82h400v-82z" />
    <glyph glyph-name="braceleft" unicode="{" horiz-adv-x="414" 
d="M317 -74q14 0 34 2v-86q-26 -3 -50 -3q-162 0 -162 143v176q0 43 -18.5 62t-61.5 21v81q43 2 61.5 21t18.5 62v176q0 143 162 143q24 0 50 -3v-86q-20 2 -34 2q-40 0 -57 -16.5t-17 -54.5v-161q0 -83 -49 -123q49 -41 49 -124v-161q0 -38 17 -54.5t57 -16.5z" />
    <glyph glyph-name="bar" unicode="|" horiz-adv-x="257" 
d="M178 750v-947h-99v947h99z" />
    <glyph glyph-name="braceright" unicode="}" horiz-adv-x="414" 
d="M275 405q0 -43 18.5 -62t61.5 -21v-81q-43 -2 -61.5 -21t-18.5 -62v-176q0 -143 -162 -143q-24 0 -50 3v86q19 -2 34 -2q40 0 57 16.5t17 54.5v161q0 83 49 124q-49 40 -49 123v161q0 38 -17 54.5t-57 16.5q-15 0 -34 -2v86q26 3 50 3q162 0 162 -143v-176z" />
    <glyph glyph-name="asciitilde" unicode="~" horiz-adv-x="617" 
d="M462 403h93q-16 -137 -108 -165q-17 -5 -34 -6t-33 3t-29 8.5t-28 13.5l-23.5 14.5t-20.5 14.5q-28 20 -47 28t-35 1q-30 -14 -42 -79h-92q16 137 108 165q16 5 33 6t33.5 -3t29.5 -8.5t27.5 -13.5l22 -14l19.5 -13q31 -23 49.5 -30.5t34.5 -0.5q30 14 42 79z" />
    <glyph glyph-name="uni00A0" unicode="&#xa0;" horiz-adv-x="200" 
 />
    <glyph glyph-name="exclamdown" unicode="&#xa1;" horiz-adv-x="274" 
d="M195 530v-131h-116l-1 131h117zM186 318l12 -488h-122l12 488h98z" />
    <glyph glyph-name="cent" unicode="&#xa2;" horiz-adv-x="516" 
d="M460 7q-69 -16 -125 -18v-93h-90v97q-99 16 -141.5 84t-42.5 188t42.5 188t141.5 84v97h90v-93q53 -3 124 -18l1 -93q-79 19 -140 19q-85 0 -117.5 -41.5t-32.5 -142.5q0 -102 32.5 -143t118.5 -41q59 0 139 19v-93z" />
    <glyph glyph-name="sterling" unicode="&#xa3;" horiz-adv-x="568" 
d="M195 97h326v-97h-449v97q27 63 35 105.5t5 85.5q-1 9 -1 19h-91v96h81q-6 56 -6 96q0 53 10 88.5t35.5 65.5t74.5 44.5t124 14.5q80 0 169 -15v-104q-81 13 -154 13q-45 0 -71.5 -5.5t-40.5 -21t-18.5 -36t-4.5 -56.5q0 -34 4 -84h200v-97h-190q1 -7 1 -10
q7 -88 -39 -199z" />
    <glyph glyph-name="currency" unicode="&#xa4;" horiz-adv-x="600" 
 />
    <glyph glyph-name="yen" unicode="&#xa5;" horiz-adv-x="645" 
d="M606 700l-168 -320h93v-73h-131l-20 -38v-25h151v-73h-151v-171h-116l1 171h-152v73h152v25l-20 38h-132v73h93l-167 320h125l158 -310l159 310h125z" />
    <glyph glyph-name="brokenbar" unicode="&#xa6;" horiz-adv-x="261" 
d="M181 750v-397h-102v397h102zM181 200v-397h-102v397h102z" />
    <glyph glyph-name="section" unicode="&#xa7;" horiz-adv-x="527" 
d="M271 712q77 0 162 -16v-95q-84 18 -158 18q-37 0 -61.5 -5.5t-36.5 -17t-16 -24t-4 -32.5q0 -30 19 -45t94 -38q31 -9 48 -14.5t42 -15.5t38.5 -18.5t30 -22t24.5 -29t13.5 -36t5.5 -45.5q0 -90 -69 -133q69 -43 69 -127q0 -90 -63 -131.5t-171 -41.5q-86 0 -192 23v95
q110 -25 193 -25q62 0 90.5 18.5t28.5 61.5q0 34 -19.5 47.5t-84.5 33.5q-10 4 -15 5l-54 18t-43 16t-36.5 18t-25.5 20.5t-19.5 26.5t-10 33t-4.5 43q0 98 63 138q-33 19 -48 47.5t-15 75.5q0 87 50.5 130.5t174.5 43.5zM239 364q-48 -4 -66.5 -26t-18.5 -59q0 -20 6.5 -31
t29.5 -23t71 -28l13 -4l6 1q11 0 18.5 1t21 5.5t22 12t15 23.5t6.5 38q0 37 -22 51t-97 38z" />
    <glyph glyph-name="dieresis" unicode="&#xa8;" horiz-adv-x="371" 
d="M146 709l-1 -105h-104v105h105zM330 709v-105h-104v105h104z" />
    <glyph glyph-name="copyright" unicode="&#xa9;" horiz-adv-x="877" 
d="M438.5 714q97.5 0 180.5 -48.5t131 -132.5t48 -183t-48 -182.5t-131 -132.5t-180.5 -49t-180.5 49t-131 132.5t-48 182.5t48 183t131 132.5t180.5 48.5zM438.5 638q-113.5 0 -196 -83.5t-82.5 -204.5t83 -204.5t196 -83.5t196 83.5t83 204.5t-83 204.5t-196.5 83.5z
M439 542q44 0 95 -12v-64q-52 13 -89 13q-51 0 -67.5 -27t-16.5 -102t16.5 -102t66.5 -27q40 0 90 13v-64q-52 -12 -95 -12q-90 0 -123.5 47.5t-33.5 144.5t33.5 144.5t123.5 47.5z" />
    <glyph glyph-name="ordfeminine" unicode="&#xaa;" horiz-adv-x="394" 
d="M196 713q152 0 152 -125v-242h-71l-2 28q-66 -36 -119 -36q-116 0 -116 116q0 64 35.5 89.5t104.5 26.5h92v17q0 35 -18.5 47.5t-57.5 12.5q-51 0 -132 -16v66q81 16 132 16zM116 459q0 -33 12.5 -45t44.5 -12q41 0 99 30v83h-86q-41 0 -55.5 -11t-14.5 -45z" />
    <glyph glyph-name="guillemotleft" unicode="&#xab;" horiz-adv-x="573" 
d="M317 476l-146 -210l146 -209h-109l-149 209l149 210h109zM530 476l-146 -210l146 -209h-109l-149 209l149 210h109z" />
    <glyph glyph-name="logicalnot" unicode="&#xac;" horiz-adv-x="600" 
 />
    <glyph glyph-name="registered" unicode="&#xae;" horiz-adv-x="877" 
d="M438.5 714q97.5 0 180.5 -48.5t131 -132.5t48 -183t-48 -182.5t-131 -132.5t-180.5 -49t-180.5 49t-131 132.5t-48 182.5t48 183t131 132.5t180.5 48.5zM438.5 638q-113.5 0 -196 -83.5t-82.5 -204.5t83 -204.5t196 -83.5t196 83.5t83 204.5t-83 204.5t-196.5 83.5z
M433 537q69 0 103.5 -26.5t34.5 -88.5q0 -45 -18.5 -68.5t-56.5 -31.5l88 -155h-83l-81 148h-41v-148h-76v370h130zM429 479h-50v-107h50q41 0 53 9.5t12 40.5q0 34 -13.5 45.5t-51.5 11.5z" />
    <glyph glyph-name="macron" unicode="&#xaf;" horiz-adv-x="378" 
d="M43 691h292v-80h-292v80z" />
    <glyph glyph-name="degree" unicode="&#xb0;" horiz-adv-x="417" 
d="M208 723q62 0 106 -44.5t44 -106.5t-44 -106t-105.5 -44t-105.5 44t-44 106q0 63 44 107t105 44zM208 654q-33 0 -55.5 -23.5t-22.5 -58.5q0 -34 22.5 -58t55.5 -24t56 24t23 58.5t-23 58t-56 23.5z" />
    <glyph glyph-name="plusminus" unicode="&#xb1;" horiz-adv-x="620" 
d="M356 412h201v-86h-201v-174h-91v174h-202v86h202v173h90zM63 0v86h494v-86h-494z" />
    <glyph glyph-name="uni00B2" unicode="&#xb2;" horiz-adv-x="339" 
d="M113 440v-24h192v-66h-274v66v26q0 51 21 74t91 49q4 1 13 5q45 16 59 27t14 37q0 29 -16.5 41t-61.5 13q-45 0 -110 -9v67q64 11 118 11q81 0 115 -31t34 -93q0 -58 -27.5 -84.5t-102.5 -48.5q-38 -13 -51.5 -24.5t-13.5 -35.5z" />
    <glyph glyph-name="uni00B3" unicode="&#xb3;" horiz-adv-x="340" 
d="M243 556q60 -24 60 -99q0 -63 -38.5 -88.5t-115.5 -25.5q-54 0 -120 8v69q65 -8 113 -8q46 0 63.5 13t17.5 45q0 30 -16.5 43t-55.5 13h-70v61h65q39 0 55 11.5t16 38.5q-1 29 -17 40t-58 11q-46 0 -107 -8v68q63 10 114 10q73 0 109 -25t36 -85q0 -68 -51 -92z" />
    <glyph glyph-name="acute" unicode="&#xb4;" horiz-adv-x="290" 
d="M247 751l-113 -154h-91l92 154h112z" />
    <glyph glyph-name="paragraph" unicode="&#xb6;" horiz-adv-x="707" 
d="M644 700v-82h-66l-1 -772h-98v772h-112v-772h-99v452q-57 2 -95.5 11t-68.5 30t-44 58t-14 92q0 111 60 161t184 50h354z" />
    <glyph glyph-name="periodcentered" unicode="&#xb7;" horiz-adv-x="235" 
d="M176 367v-131h-117v131h117z" />
    <glyph glyph-name="cedilla" unicode="&#xb8;" horiz-adv-x="274" 
d="M161 -52q35 -4 52.5 -21.5t17.5 -55.5q0 -41 -26.5 -58t-78.5 -17q-40 0 -83 5v52q40 -4 73 -4q29 0 38.5 6.5t9.5 23.5t-10 24.5t-36 7.5h-43l51 92h70z" />
    <glyph glyph-name="uni00B9" unicode="&#xb9;" horiz-adv-x="236" 
d="M105 750h79v-400h-79v334l-93 -25v63z" />
    <glyph glyph-name="ordmasculine" unicode="&#xba;" horiz-adv-x="420" 
d="M210 706q91 0 129 -47t38 -140t-38 -140t-129 -47t-129 47t-38 140t38 140t129 47zM210 639q-51 0 -70 -26.5t-19 -93.5t19 -93.5t70 -26.5t70 26.5t19 93.5t-19 93.5t-70 26.5z" />
    <glyph glyph-name="guillemotright" unicode="&#xbb;" horiz-adv-x="573" 
d="M152 476l149 -210l-149 -209h-109l146 209l-146 210h109zM365 476l149 -210l-149 -209h-109l146 209l-146 210h109z" />
    <glyph glyph-name="onequarter" unicode="&#xbc;" horiz-adv-x="727" 
d="M494 712h92l-404 -724h-91zM105 300v334l-93 -25v63l93 28h79v-400h-79zM698 156v-65h-52v-91h-79v91h-192v65l191 245h1h79v-245h52zM459 156h108v145z" />
    <glyph glyph-name="onehalf" unicode="&#xbd;" horiz-adv-x="784" 
d="M491 712h93l-405 -724h-91zM105 300v334l-93 -25v63l93 28h79v-400h-79zM558 90v-24h192v-66h-274v66v26q0 51 21 74t91 49q5 2 14 5q44 17 58 27.5t14 36.5q0 29 -16.5 41.5t-61.5 12.5q-45 1 -110 -9v67q64 12 118 12q81 0 115 -31.5t34 -93.5q0 -58 -27.5 -84.5
t-102.5 -48.5q-38 -13 -51.5 -24t-13.5 -36z" />
    <glyph glyph-name="threequarters" unicode="&#xbe;" horiz-adv-x="806" 
d="M567 712h93l-405 -724h-90zM304 407q0 -63 -38 -88.5t-116 -25.5q-53 0 -120 8v69q66 -8 114 -8q45 0 62.5 12.5t17.5 45.5q0 30 -16.5 43t-55.5 13h-70v61h65q40 -1 55.5 10.5t15.5 39.5q0 29 -16.5 40t-58.5 11q-46 0 -106 -8l-1 68q64 9 114 9q73 0 109.5 -24.5
t36.5 -84.5q0 -68 -52 -92q60 -25 60 -99zM777 156v-65h-52v-91h-79v91h-192v65l190 245l2 -1v1h79v-245h52zM537 156h109v145z" />
    <glyph glyph-name="questiondown" unicode="&#xbf;" horiz-adv-x="553" 
d="M384 542v-131h-117v131h117zM374 330l2 -64q1 -32 -4.5 -52.5t-21.5 -34.5t-32.5 -22t-49.5 -19l-50.5 -20t-27 -17.5t-14.5 -25t-2 -39.5q0 -61 27 -83.5t110 -22.5q81 0 179 15l9 -97q-106 -18 -197 -18q-72 0 -121 13.5t-76.5 41t-38.5 64t-11 88.5q0 32 3 55t13 41
t20 30t30.5 23.5t38.5 19t50 19.5q44 16 54.5 25.5t10.5 38.5l1 41h98z" />
    <glyph glyph-name="Agrave" unicode="&#xc0;" horiz-adv-x="680" 
d="M386 767h-92l-112 154h112zM522 0l-57 181h-250l-57 -181h-122l235 700h31h76h31l235 -700h-122zM245 277h190l-95 303z" />
    <glyph glyph-name="Aacute" unicode="&#xc1;" horiz-adv-x="680" 
d="M500 921l-112 -154h-92l92 154h112zM522 0l-57 181h-250l-57 -181h-122l235 700h32h75h31l235 -700h-122zM245 277h190l-95 303z" />
    <glyph glyph-name="Acircumflex" unicode="&#xc2;" horiz-adv-x="680" 
d="M340 859l-57 -92h-99l104 154h104l103 -154h-98zM522 0l-57 181h-250l-57 -181h-122l235 700h31h76h31l235 -700h-122zM245 277h190l-95 303z" />
    <glyph glyph-name="Atilde" unicode="&#xc3;" horiz-adv-x="680" 
d="M286 814q-16 -6 -21 -47h-72q3 49 21 79t47 40q40 13 94 -26q28 -21 39 -17q15 5 21 46h72q-3 -49 -21.5 -79.5t-46.5 -39.5q-40 -12 -95 26q-12 9 -16.5 12t-12 6t-9.5 0zM522 0l-57 181h-250l-57 -181h-122l235 700h32h75h31l235 -700h-122zM245 277h190l-95 303z" />
    <glyph glyph-name="Adieresis" unicode="&#xc4;" horiz-adv-x="680" 
d="M300 879v-105h-104v105h104zM484 879v-105h-104v105h104zM522 0l-57 181h-250l-57 -181h-122l235 700h32h75h31l235 -700h-122zM245 277h190l-95 303z" />
    <glyph glyph-name="Aring" unicode="&#xc5;" horiz-adv-x="680" 
d="M339.5 740q-42.5 0 -72.5 30.5t-30 72.5q0 44 30 74t73 30q42 0 72 -30.5t30 -73t-30 -73t-72.5 -30.5zM339 892q-18 0 -30.5 -14t-12.5 -34.5t12.5 -35t31 -14.5t31.5 14.5t13 35t-13 34.5t-32 14zM522 0l-57 181h-250l-57 -181h-122l235 700h32h75h31l235 -700h-122z
M245 277h190l-95 303z" />
    <glyph glyph-name="AE" unicode="&#xc6;" horiz-adv-x="903" 
d="M857 603h-305v-196h289v-96h-289v-214h305v-97h-305h-116v181h-194l-84 -181h-122l333 700h67h95h326v-97zM287 277h149v320z" />
    <glyph glyph-name="Ccedilla" unicode="&#xc7;" horiz-adv-x="579" 
d="M186 349.5q0 -74.5 7.5 -121t27 -79t54 -45.5t88.5 -13q71 0 157 20v-102q-92 -21 -168 -21h-5l-26 -40q35 -4 53 -21.5t18 -55.5q0 -41 -26.5 -58t-79.5 -17q-40 0 -83 5v52q40 -4 73 -4q29 0 38.5 6.5t9.5 23.5t-10 24.5t-36 7.5h-43l45 82q-51 8 -88.5 28t-61.5 50
t-38.5 73.5t-20 92.5t-5.5 113q0 73 7.5 127t26.5 100t51.5 74.5t82.5 44.5t118 16q78 0 168 -21v-103q-87 21 -155 21q-55 0 -89.5 -13.5t-54.5 -46t-27.5 -79t-7.5 -121z" />
    <glyph glyph-name="Egrave" unicode="&#xc8;" horiz-adv-x="547" 
d="M341 767h-92l-113 154h112zM500 603h-305v-196h289v-96h-289v-214h305v-97h-305h-116v700h95h326v-97z" />
    <glyph glyph-name="Eacute" unicode="&#xc9;" horiz-adv-x="547" 
d="M455 921l-113 -154h-92l93 154h112zM500 603h-305v-196h289v-96h-289v-214h305v-97h-305h-116v700h95h326v-97z" />
    <glyph glyph-name="Ecircumflex" unicode="&#xca;" horiz-adv-x="547" 
d="M294 859l-57 -92h-98l103 154h104l104 -154h-99zM500 603h-305v-196h289v-96h-289v-214h305v-97h-305h-116v700h95h326v-97z" />
    <glyph glyph-name="Edieresis" unicode="&#xcb;" horiz-adv-x="547" 
d="M254 879v-105h-104v105h104zM438 879v-105h-104v105h104zM500 603h-305v-196h289v-96h-289v-214h305v-97h-305h-116v700h95h326v-97z" />
    <glyph glyph-name="Igrave" unicode="&#xcc;" horiz-adv-x="274" 
d="M91 921l92 -154h-91l-113 154h112zM195 700v-700h-116v700h116z" />
    <glyph glyph-name="Iacute" unicode="&#xcd;" horiz-adv-x="274" 
d="M298 921l-113 -154h-92l93 154h112zM195 700v-700h-116v700h116z" />
    <glyph glyph-name="Icircumflex" unicode="&#xce;" horiz-adv-x="274" 
d="M137 859l-57 -92h-99l104 154h104l104 -154h-99zM79 0v700h116v-700h-116z" />
    <glyph glyph-name="Idieresis" unicode="&#xcf;" horiz-adv-x="274" 
d="M97 879v-105h-104v105h104zM281 879v-105h-104v105h104zM195 700v-700h-116v700h116z" />
    <glyph glyph-name="Eth" unicode="&#xd0;" horiz-adv-x="677" 
d="M333 700q84 0 139 -21.5t85.5 -68t42.5 -107.5t11 -153q1 -73 -6.5 -125.5t-25.5 -97t-49.5 -71.5t-80.5 -41.5t-116 -14.5h-139h-115v307h-82v86h82v307h21h233zM313 95q47 0 77.5 8t51 25t31.5 49t14.5 71.5t3.5 101.5t-3.5 101.5t-14.5 71.5t-31 48.5t-51 25t-78 8.5
h-119v-212h136v-86h-136v-212h119z" />
    <glyph glyph-name="Ntilde" unicode="&#xd1;" horiz-adv-x="672" 
d="M282 814q-15 -6 -21 -47h-71q3 49 21 79t46 40q41 13 94 -26q29 -21 40 -17q15 5 21 46h71q-2 -49 -21 -79.5t-47 -39.5q-40 -12 -94 26q-12 9 -16.5 12t-12 6t-10.5 0zM488 700h112v-700h-150l-266 534v-534h-112v700h145l271 -544v544z" />
    <glyph glyph-name="Ograve" unicode="&#xd2;" horiz-adv-x="712" 
d="M310 921l92 -154h-91l-113 154h112zM356 712q70 0 121.5 -16t83.5 -44.5t51.5 -75t27 -100t7.5 -126.5t-7.5 -126.5t-27 -100t-51.5 -75t-83.5 -44.5t-121.5 -16t-121 16t-83.5 44.5t-51.5 75t-26.5 100t-7.5 126.5t7.5 126.5t26.5 100t51.5 75t83.5 44.5t121 16z
M356.5 609q-52.5 0 -85.5 -13.5t-52 -46.5t-26 -79t-7 -120t7 -120t26 -79t52 -46.5t85.5 -13.5t85.5 13.5t51.5 46.5t25.5 79t7 120t-7 120t-25.5 79t-51.5 46.5t-85.5 13.5z" />
    <glyph glyph-name="Oacute" unicode="&#xd3;" horiz-adv-x="712" 
d="M516 921l-112 -154h-92l92 154h112zM356 712q70 0 121.5 -16t83.5 -44.5t51.5 -75t27 -100t7.5 -126.5t-7.5 -126.5t-27 -100t-51.5 -75t-83.5 -44.5t-121.5 -16t-121 16t-83.5 44.5t-51.5 75t-26.5 100t-7.5 126.5t7.5 126.5t26.5 100t51.5 75t83.5 44.5t121 16z
M356.5 609q-52.5 0 -85.5 -13.5t-52 -46.5t-26 -79t-7 -120t7 -120t26 -79t52 -46.5t85.5 -13.5t85.5 13.5t51.5 46.5t25.5 79t7 120t-7 120t-25.5 79t-51.5 46.5t-85.5 13.5z" />
    <glyph glyph-name="Ocircumflex" unicode="&#xd4;" horiz-adv-x="712" 
d="M356 859l-57 -92h-99l104 154h104l104 -154h-99zM356 712q70 0 121.5 -16t83.5 -44.5t51.5 -75t27 -100t7.5 -126.5t-7.5 -126.5t-27 -100t-51.5 -75t-83.5 -44.5t-121.5 -16t-121 16t-83.5 44.5t-51.5 75t-26.5 100t-7.5 126.5t7.5 126.5t26.5 100t51.5 75t83.5 44.5
t121 16zM356.5 91q52.5 0 85.5 13.5t51.5 46.5t26 79t7.5 120t-7.5 120t-26 79t-51.5 46.5t-85.5 13.5t-85.5 -13.5t-52 -46.5t-26 -79t-7 -120t7 -120t26 -79t52 -46.5t85.5 -13.5z" />
    <glyph glyph-name="Otilde" unicode="&#xd5;" horiz-adv-x="712" 
d="M503 889q-3 -49 -21.5 -79.5t-46.5 -39.5q-40 -12 -95 26q-12 9 -16.5 12t-12 6t-9.5 0q-16 -6 -21 -47h-72q3 49 21 79t47 40q41 13 94 -26q28 -21 39 -17q16 5 21 46h72zM356 712q70 0 121.5 -16t83.5 -44.5t51.5 -75t27 -100t7.5 -126.5t-7.5 -126.5t-27 -100
t-51.5 -75t-83.5 -44.5t-121.5 -16t-121 16t-83.5 44.5t-51.5 75t-26.5 100t-7.5 126.5t7.5 126.5t26.5 100t51.5 75t83.5 44.5t121 16zM356.5 609q-52.5 0 -85.5 -13.5t-52 -46.5t-26 -79t-7 -120t7 -120t26 -79t52 -46.5t85.5 -13.5t85.5 13.5t51.5 46.5t25.5 79t7 120
t-7 120t-25.5 79t-51.5 46.5t-85.5 13.5z" />
    <glyph glyph-name="Odieresis" unicode="&#xd6;" horiz-adv-x="712" 
d="M316 879v-105h-104v105h104zM500 879v-105h-104v105h104zM356 712q70 0 121.5 -16t83.5 -44.5t51.5 -75t27 -100t7.5 -126.5t-7.5 -126.5t-27 -100t-51.5 -75t-83.5 -44.5t-121.5 -16t-121 16t-83.5 44.5t-51.5 75t-26.5 100t-7.5 126.5t7.5 126.5t26.5 100t51.5 75
t83.5 44.5t121 16zM356.5 609q-52.5 0 -85.5 -13.5t-52 -46.5t-26 -79t-7 -120t7 -120t26 -79t52 -46.5t85.5 -13.5t85.5 13.5t51.5 46.5t26 79t7.5 120t-7.5 120t-26 79t-51.5 46.5t-85.5 13.5z" />
    <glyph glyph-name="multiply" unicode="&#xd7;" horiz-adv-x="568" 
d="M441 517l64 -65l-158 -158l157 -157l-61 -61l-157 157l-159 -159l-64 64l158 159l-157 157l61 61l157 -157z" />
    <glyph glyph-name="Oslash" unicode="&#xd8;" horiz-adv-x="712" 
d="M518 680q72 -37 100.5 -117.5t28.5 -212.5q0 -73 -7.5 -126.5t-27 -100t-51.5 -75t-83.5 -44.5t-121.5 -16q-44 0 -81 6l-23 -64h-90l32 90q-72 37 -100 117.5t-28 212.5q0 73 7.5 126.5t26.5 100t51.5 75t83.5 44.5t121 16q44 0 81 -6l23 64h90zM186 350
q0 -86 10.5 -138.5t36.5 -80.5l169 475q-21 3 -46 3q-52 0 -85 -13.5t-52 -46.5t-26 -79t-7 -120zM356 91q53 0 86 13.5t51.5 46.5t25.5 79t7 120q0 87 -10.5 139t-36.5 80l-169 -475q21 -3 46 -3z" />
    <glyph glyph-name="Ugrave" unicode="&#xd9;" horiz-adv-x="660" 
d="M285 921l92 -154h-91l-113 154h112zM586 700v-444q0 -67 -11 -114t-39 -83t-78.5 -53.5t-126.5 -17.5t-127 17.5t-78.5 53.5t-38.5 83t-11 114v444h116v-450q0 -92 28 -125.5t111 -33.5t111 33.5t28 125.5v450h116z" />
    <glyph glyph-name="Uacute" unicode="&#xda;" horiz-adv-x="660" 
d="M492 921l-113 -154h-92l93 154h112zM586 700v-444q0 -67 -11 -114t-39 -83t-78.5 -53.5t-126.5 -17.5t-127 17.5t-78.5 53.5t-38.5 83t-11 114v444h116v-450q0 -92 28 -125.5t111 -33.5t111 33.5t28 125.5v450h116z" />
    <glyph glyph-name="Ucircumflex" unicode="&#xdb;" horiz-adv-x="660" 
d="M331 859l-57 -92h-99l104 154h104l104 -154h-99zM470 700h116v-444q0 -67 -11 -114t-39 -83t-78.5 -53.5t-126.5 -17.5t-127 17.5t-78.5 53.5t-38.5 83t-11 114v444h116v-450q0 -92 28 -125.5t111 -33.5t111 33.5t28 125.5v450z" />
    <glyph glyph-name="Udieresis" unicode="&#xdc;" horiz-adv-x="660" 
d="M291 879v-105h-104v105h104zM475 879v-105h-104v105h104zM586 700v-444q0 -67 -11 -114t-39 -83t-78.5 -53.5t-126.5 -17.5t-127 17.5t-78.5 53.5t-38.5 83t-11 114v444h116v-450q0 -92 28 -125.5t111 -33.5t111 33.5t28 125.5v450h116z" />
    <glyph glyph-name="Yacute" unicode="&#xdd;" horiz-adv-x="645" 
d="M482 921l-112 -154h-92l92 154h112zM606 700l-226 -431v-269h-116l1 269l-226 431h125l158 -310l159 310h125z" />
    <glyph glyph-name="Thorn" unicode="&#xde;" horiz-adv-x="615" 
d="M304 587q134 0 199 -51t65 -172q0 -62 -16.5 -103t-52 -64t-82 -32.5t-113.5 -9.5h-109v-155h-116v700h116v-113h109zM296 248q92 0 123 22.5t31 93.5q0 74 -33.5 102t-120.5 28h-101v-246h101z" />
    <glyph glyph-name="germandbls" unicode="&#xdf;" horiz-adv-x="661" 
d="M324 750q50 0 91 -9t73.5 -28.5t50.5 -53t18 -78.5q0 -80 -65 -117l-64 -37q-32 -18 -32 -53q0 -22 11 -33t50 -27q7 -2 23 -8l22.5 -8.5t20 -9t20 -10.5t17 -12t15.5 -15.5l12.5 -18.5t10.5 -22.5t5.5 -27t2.5 -32.5q0 -88 -50.5 -125t-142.5 -37q-59 0 -135 18v95
q74 -19 134 -19q46 0 62.5 13t16.5 51q0 12 -1 19.5t-5 14.5l-6 10.5t-11.5 9t-13.5 7t-20 8l-23 9.5q-74 30 -100.5 58t-27.5 87q-1 41 12.5 70t54.5 54l66 37q13 8 19.5 18.5t6.5 29.5q0 41 -28.5 58.5t-85.5 17.5q-74 0 -106.5 -31t-32.5 -113v-510h-110v517
q0 125 64 179t181 54z" />
    <glyph glyph-name="agrave" unicode="&#xe0;" horiz-adv-x="583" 
d="M341 597h-92l-113 154h112zM289 542q223 0 223 -183v-359h-99l-3 45q-97 -57 -182 -57q-73 0 -118.5 39.5t-45.5 130.5q0 95 51.5 131.5t154.5 38.5h136v29q0 53 -29 74t-90 21q-72 0 -180 -21v91q109 20 182 20zM171 166q0 -50 20 -70t64 -20q66 0 151 46v131h-127
q-62 -1 -85 -17.5t-23 -69.5z" />
    <glyph glyph-name="aacute" unicode="&#xe1;" horiz-adv-x="583" 
d="M455 751l-113 -154h-92l93 154h112zM289 542q223 0 223 -183v-359h-99l-3 45q-97 -57 -182 -57q-73 0 -118.5 39.5t-45.5 130.5q0 95 51.5 131.5t154.5 38.5h136v29q0 53 -29 74t-90 21q-72 0 -180 -21v91q109 20 182 20zM171 166q0 -50 20 -70t64 -20q66 0 151 46v131
h-127q-62 -1 -85 -17.5t-23 -69.5z" />
    <glyph glyph-name="acircumflex" unicode="&#xe2;" horiz-adv-x="583" 
d="M294 689l-57 -92h-98l104 154h103l104 -154h-99zM289 542q223 0 223 -183v-359h-99l-3 45q-97 -57 -182 -57q-73 0 -118.5 39.5t-45.5 130.5q0 95 51.5 131.5t154.5 38.5h136v29q0 53 -29 74t-90 21q-72 0 -180 -21v91q109 20 182 20zM171 166q0 -50 20 -70t64 -20
q66 0 151 46v131h-127q-62 -1 -85 -17.5t-23 -69.5z" />
    <glyph glyph-name="atilde" unicode="&#xe3;" horiz-adv-x="583" 
d="M240 644q-15 -6 -21 -47h-71q2 49 20.5 79t46.5 40q41 13 94 -26q29 -21 40 -17q15 5 21 46h71q-3 -49 -21.5 -79.5t-46.5 -39.5q-40 -12 -94 26q-13 9 -17 12t-12 6t-10 0zM289 542q223 0 223 -183v-359h-99l-3 45q-97 -57 -182 -57q-73 0 -118.5 39.5t-45.5 130.5
q0 95 51.5 131.5t154.5 38.5h136v29q0 53 -29 74t-90 21q-72 0 -180 -21v91q109 20 182 20zM171 166q0 -50 20 -70t64 -20q66 0 151 46v131h-127q-62 -1 -85 -17.5t-23 -69.5z" />
    <glyph glyph-name="adieresis" unicode="&#xe4;" horiz-adv-x="583" 
d="M254 709v-105h-104v105h104zM438 709v-105h-104v105h104zM289 542q223 0 223 -183v-359h-99l-3 45q-97 -57 -182 -57q-73 0 -118.5 39.5t-45.5 130.5q0 95 51.5 131.5t154.5 38.5h136v29q0 53 -29 74t-90 21q-72 0 -180 -21v91q109 20 182 20zM171 166q0 -50 20 -70
t64 -20q66 0 151 46v131h-127q-62 -1 -85 -17.5t-23 -69.5z" />
    <glyph glyph-name="aring" unicode="&#xe5;" horiz-adv-x="583" 
d="M294.5 570q-42.5 0 -72.5 30.5t-30 72.5q0 44 30 74t72 30q43 0 73 -30.5t30 -73t-30 -73t-72.5 -30.5zM294 722q-19 0 -31.5 -14t-12.5 -34.5t13 -35t31.5 -14.5t31.5 14.5t13 35t-13 34.5t-32 14zM289 542q223 0 223 -183v-359h-99l-3 45q-97 -57 -182 -57
q-73 0 -118.5 39.5t-45.5 130.5q0 95 51.5 131.5t154.5 38.5h136v29q0 53 -29 74t-90 21q-72 0 -180 -21v91q109 20 182 20zM171 166q0 -50 20 -70t64 -20q66 0 151 46v131h-127q-62 -1 -85 -17.5t-23 -69.5z" />
    <glyph glyph-name="ae" unicode="&#xe6;" horiz-adv-x="961" 
d="M675 542q47 0 83.5 -9t61 -23.5t42 -37t26.5 -44.5t14 -51.5t6 -52.5t0 -53q-1 -12 -1.5 -23.5t-1.5 -17.5v0h-361q4 -82 34 -116t103 -34q84 0 205 34v-91q-120 -35 -210 -35q-107 0 -164 47v-35h-99l-3 44q-102 -56 -182 -56q-171 0 -171 170q0 95 52 131.5t155 38.5
h142v29q-1 55 -29.5 75t-89.5 20q-74 0 -193 -24v91q118 23 194 23q145 0 196 -76q58 76 191 76zM673 451q-65 0 -94 -32.5t-35 -109.5h256q0 32 -4.5 54.5t-17 44t-39 32.5t-66.5 11zM165 166q0 -52 20 -71t69 -19q63 0 152 46v131h-133q-62 0 -85 -17.5t-23 -69.5z" />
    <glyph glyph-name="ccedilla" unicode="&#xe7;" horiz-adv-x="516" 
d="M286 -52q35 -4 52.5 -21.5t17.5 -55.5q0 -41 -26.5 -58t-78.5 -17q-40 0 -83 5v52q40 -4 73 -4q29 0 38.5 6.5t9.5 23.5t-10 24.5t-36 7.5h-43l45 82q-99 16 -141.5 84t-42.5 188q0 138 57 207.5t191 69.5q62 0 149 -19v-92q-78 18 -138 18q-85 0 -117.5 -41.5
t-32.5 -142.5t32.5 -142.5t117.5 -41.5q60 0 140 19v-93q-82 -19 -149 -19z" />
    <glyph glyph-name="egrave" unicode="&#xe8;" horiz-adv-x="579" 
d="M341 597h-91l-113 154h112zM298 542q63 0 108 -17t69 -42.5t36.5 -64.5t14.5 -72t0 -75q0 -8 -1 -20t-2 -21v0h-355q4 -85 35.5 -117.5t110.5 -32.5q113 0 189 39v-89q-78 -42 -196 -42q-137 0 -193 67.5t-56 207t55 209.5t185 70zM295 451q-63 0 -92 -32.5t-34 -109.5
h250q0 24 -1 41t-8 37.5t-20 33t-37 21.5t-58 9z" />
    <glyph glyph-name="eacute" unicode="&#xe9;" horiz-adv-x="579" 
d="M456 751l-113 -154h-92l93 154h112zM298 542q63 0 108 -17t69 -42.5t36.5 -64.5t14.5 -72t0 -75q0 -8 -1 -20t-2 -21v0h-355q4 -85 35.5 -117.5t110.5 -32.5q113 0 189 39v-89q-78 -42 -196 -42q-137 0 -193 67.5t-56 207t55 209.5t185 70zM295 451q-63 0 -92 -32.5
t-34 -109.5h250q0 24 -1 41t-8 37.5t-20 33t-37 21.5t-58 9z" />
    <glyph glyph-name="ecircumflex" unicode="&#xea;" horiz-adv-x="579" 
d="M295 689l-57 -92h-99l104 154h104l104 -154h-99zM298 542q63 0 108 -17t69 -42.5t36.5 -64.5t14.5 -72t0 -75q0 -8 -1 -20t-2 -21v0h-355q4 -85 35.5 -117.5t110.5 -32.5q113 0 189 39v-89q-78 -42 -196 -42q-137 0 -193 67.5t-56 207t55 209.5t185 70zM295 451
q-63 0 -92 -32.5t-34 -109.5h250q0 24 -1 41t-8 37.5t-20 33t-37 21.5t-58 9z" />
    <glyph glyph-name="edieresis" unicode="&#xeb;" horiz-adv-x="579" 
d="M255 709v-105h-104v105h104zM439 709v-105h-104v105h104zM298 542q63 0 108 -17t69 -42.5t36.5 -64.5t14.5 -72t0 -75q0 -8 -1 -20t-2 -21v0h-355q4 -85 35.5 -117.5t110.5 -32.5q113 0 189 39v-89q-78 -42 -196 -42q-137 0 -193 67.5t-56 207t55 209.5t185 70zM295 451
q-63 0 -92 -32.5t-34 -109.5h250q0 24 -1 41t-8 37.5t-20 33t-37 21.5t-58 9z" />
    <glyph glyph-name="igrave" unicode="&#xec;" horiz-adv-x="273" 
d="M91 751l92 -154h-91l-113 154h112zM192 530v-530h-106v530h106z" />
    <glyph glyph-name="iacute" unicode="&#xed;" horiz-adv-x="273" 
d="M297 751l-112 -154h-92l93 154h111zM192 530v-530h-106v530h106z" />
    <glyph glyph-name="icircumflex" unicode="&#xee;" horiz-adv-x="273" 
d="M189 751l104 -154h-99l-57 92l-57 -92h-99l104 154h104zM86 0v530h106v-530h-106z" />
    <glyph glyph-name="idieresis" unicode="&#xef;" horiz-adv-x="273" 
d="M97 709v-105h-104v105h104zM281 709v-105h-104v105h104zM192 530v-530h-106v530h106z" />
    <glyph glyph-name="eth" unicode="&#xf0;" horiz-adv-x="616" 
d="M467 652q89 -136 89 -349q0 -167 -65 -241t-200 -74q-121 0 -180.5 65t-59.5 205q0 148 65 216t191 68q54 0 97 -11q-15 42 -37 75l-81 -37l-35 71l61 28q-38 30 -88 48l30 94q95 -27 162 -94l80 36l36 -71zM294 89q78 0 110 47t32 167q0 47 -4 88q-39 50 -129 50
q-70 0 -101.5 -39t-31.5 -142q0 -91 27.5 -131t96.5 -40z" />
    <glyph glyph-name="ntilde" unicode="&#xf1;" horiz-adv-x="613" 
d="M254 644q-15 -6 -21 -47h-72q3 49 21.5 79t46.5 40q41 13 94 -26q29 -21 40 -17q15 5 21 46h71q-3 -49 -21.5 -79.5t-46.5 -39.5q-40 -12 -94 26q-13 9 -17 12t-12 6t-10 0zM382 542q74 0 117 -43t43 -133v-366h-106v351q0 54 -20 76t-61 22q-71 0 -173 -47v-402h-106
v530h95l5 -43q117 55 206 55z" />
    <glyph glyph-name="ograve" unicode="&#xf2;" horiz-adv-x="612" 
d="M260 751l92 -154h-92l-112 154h112zM306 542q135 0 191 -69t56 -208t-56 -208t-191 -69t-191 69t-56 208t56 208t191 69zM306 449q-78 0 -108 -41.5t-30 -142.5t30 -142.5t108 -41.5t108 41.5t30 142.5t-30 142.5t-108 41.5z" />
    <glyph glyph-name="oacute" unicode="&#xf3;" horiz-adv-x="612" 
d="M466 751l-112 -154h-92l92 154h112zM306 542q135 0 191 -69t56 -208t-56 -208t-191 -69t-191 69t-56 208t56 208t191 69zM306 449q-78 0 -108 -41.5t-30 -142.5t30 -142.5t108 -41.5t108 41.5t30 142.5t-30 142.5t-108 41.5z" />
    <glyph glyph-name="ocircumflex" unicode="&#xf4;" horiz-adv-x="612" 
d="M306 689l-57 -92h-99l104 154h104l103 -154h-98zM306 542q135 0 191 -69t56 -208t-56 -208t-191 -69t-191 69t-56 208t56 208t191 69zM306 81q78 0 108 41.5t30 142.5t-30 142.5t-108 41.5t-108 -41.5t-30 -142.5t30 -142.5t108 -41.5z" />
    <glyph glyph-name="otilde" unicode="&#xf5;" horiz-adv-x="612" 
d="M453 719q-3 -49 -21.5 -79.5t-47.5 -39.5q-39 -12 -94 26q-12 9 -16.5 12t-12 6t-10.5 0q-15 -6 -20 -47h-72q3 49 21 79t47 40q40 13 94 -26q28 -21 39 -17q15 5 21 46h72zM306 542q135 0 191 -69t56 -208t-56 -208t-191 -69t-191 69t-56 208t56 208t191 69zM306 449
q-78 0 -108 -41.5t-30 -142.5t30 -142.5t108 -41.5t108 41.5t30 142.5t-30 142.5t-108 41.5z" />
    <glyph glyph-name="odieresis" unicode="&#xf6;" horiz-adv-x="612" 
d="M266 709v-105h-104v105h104zM450 709v-105h-104v105h104zM306 542q135 0 191 -69t56 -208t-56 -208t-191 -69t-191 69t-56 208t56 208t191 69zM306 449q-78 0 -108 -41.5t-30 -142.5t30 -142.5t108 -41.5t108 41.5t30 142.5t-30 142.5t-108 41.5z" />
    <glyph glyph-name="divide" unicode="&#xf7;" horiz-adv-x="620" 
d="M258 433v118h104v-118h-104zM63 252v87h494v-87h-494zM258 40v118h104v-118h-104z" />
    <glyph glyph-name="oslash" unicode="&#xf8;" horiz-adv-x="612" 
d="M439 517q61 -30 87.5 -92.5t26.5 -159.5q0 -139 -56 -208t-191 -69q-28 0 -53 3l-14 -41h-89l22 63q-60 29 -86.5 91.5t-26.5 160.5q0 139 56 208t191 69q28 0 53 -3l14 41h89zM168 265q0 -115 39 -153l120 336q-10 1 -21 1q-78 0 -108 -41.5t-30 -142.5zM306 81
q78 0 108 41.5t30 142.5q0 115 -39 153l-119 -336q9 -1 20 -1z" />
    <glyph glyph-name="ugrave" unicode="&#xf9;" horiz-adv-x="584" 
d="M338 597h-91l-113 154h112zM407 530h106v-530h-96l-5 42q-105 -54 -187 -54q-71 0 -112.5 43t-41.5 133v366h106v-351q0 -54 19 -76t58 -22q63 0 153 46v403z" />
    <glyph glyph-name="uacute" unicode="&#xfa;" horiz-adv-x="584" 
d="M452 751l-112 -154h-92l92 154h112zM407 530h106v-530h-96l-5 42q-105 -54 -187 -54q-71 0 -112.5 43t-41.5 133v366h106v-351q0 -54 19 -76t58 -22q63 0 153 46v403z" />
    <glyph glyph-name="ucircumflex" unicode="&#xfb;" horiz-adv-x="584" 
d="M292 689l-57 -92h-99l104 154h104l104 -154h-99zM407 530h106v-530h-96l-5 42q-105 -54 -187 -54q-71 0 -112.5 43t-41.5 133v366h106v-351q0 -54 19 -76t58 -22q63 0 153 46v403z" />
    <glyph glyph-name="udieresis" unicode="&#xfc;" horiz-adv-x="584" 
d="M252 709v-105h-104v105h104zM436 709v-105h-104v105h104zM407 530h106v-530h-96l-5 42q-105 -54 -187 -54q-71 0 -112.5 43t-41.5 133v366h106v-351q0 -54 19 -76t58 -22q63 0 153 46v403z" />
    <glyph glyph-name="yacute" unicode="&#xfd;" horiz-adv-x="581" 
d="M451 751l-113 -154h-92l93 154h112zM432 530h112l-227 -623q-17 -48 -56 -76t-92 -28h-56v86h42q55 0 73 53l31 89l-222 499h114l156 -359z" />
    <glyph glyph-name="thorn" unicode="&#xfe;" horiz-adv-x="613" 
d="M352 542q58 0 98 -19t62.5 -56.5t32 -86t9.5 -115.5t-9.5 -115.5t-31.5 -86t-62 -56.5t-98 -19q-42 0 -78.5 11.5t-88.5 41.5v-238h-107v947h107v-262q54 31 89.5 42.5t76.5 11.5zM323 81q70 0 96 41.5t26 141.5q0 101 -26 143t-96 42q-28 0 -55.5 -10t-81.5 -41v-267
q52 -30 80 -40t57 -10z" />
    <glyph glyph-name="ydieresis" unicode="&#xff;" horiz-adv-x="581" 
d="M250 709v-105h-104v105h104zM434 709v-105h-104v105h104zM432 530h112l-227 -623q-17 -48 -56 -76t-92 -28h-56v86h42q55 0 73 53l31 89l-222 499h114l156 -359z" />
    <glyph glyph-name="Amacron" unicode="&#x100;" horiz-adv-x="680" 
d="M486 861v-80h-292v80h292zM522 0l-57 181h-250l-57 -181h-122l235 700h31h76h31l235 -700h-122zM245 277h190l-95 303z" />
    <glyph glyph-name="amacron" unicode="&#x101;" horiz-adv-x="583" 
d="M440 691v-80h-292v80h292zM289 542q223 0 223 -183v-359h-99l-3 45q-97 -57 -182 -57q-73 0 -118.5 39.5t-45.5 130.5q0 95 51.5 131.5t154.5 38.5h136v29q0 53 -29 74t-90 21q-72 0 -180 -21v91q109 20 182 20zM171 166q0 -50 20 -70t64 -20q66 0 151 46v131h-127
q-62 -1 -85 -17.5t-23 -69.5z" />
    <glyph glyph-name="Abreve" unicode="&#x102;" horiz-adv-x="680" 
d="M340 758q-61 0 -99.5 37t-38.5 94h72q0 -27 17.5 -43.5t48.5 -16.5q30 0 48 16.5t18 43.5h72q0 -57 -38.5 -94t-99.5 -37zM522 0l-57 181h-250l-57 -181h-122l235 700h32h75h31l235 -700h-122zM245 277h190l-95 303z" />
    <glyph glyph-name="abreve" unicode="&#x103;" horiz-adv-x="583" 
d="M294 588q-61 0 -99 37t-39 94h72q0 -27 17.5 -43.5t48.5 -16.5t48.5 16.5t17.5 43.5h72q0 -57 -38.5 -94t-99.5 -37zM289 542q223 0 223 -183v-359h-99l-3 45q-97 -57 -182 -57q-73 0 -118.5 39.5t-45.5 130.5q0 95 51.5 131.5t154.5 38.5h136v29q0 53 -29 74t-90 21
q-72 0 -180 -21v91q109 20 182 20zM171 166q0 -50 20 -70t64 -20q66 0 151 46v131h-127q-62 -1 -85 -17.5t-23 -69.5z" />
    <glyph glyph-name="Aogonek" unicode="&#x104;" horiz-adv-x="680" 
d="M526 -116q12 -33 51 -33q25 0 46 11v-51q-33 -13 -65 -13q-81 1 -100 62q-11 35 5 73.5t59 66.5l-57 181h-250l-57 -181h-122l235 700h31h76h31l235 -700h-53q-39 -27 -56.5 -58t-8.5 -58zM245 277h190l-95 303z" />
    <glyph glyph-name="aogonek" unicode="&#x105;" horiz-adv-x="576" 
d="M462 -150q26 0 47 11v-51q-33 -13 -66 -13q-80 0 -100 62q-10 35 5.5 74t58.5 67l-4 45q-97 -57 -181 -57q-74 0 -119.5 39.5t-45.5 130.5q0 95 52 131.5t155 38.5h135v29q0 53 -29 74t-89 21q-72 0 -180 -21v91q108 20 181 20q223 0 223 -183v-359h-26
q-41 -27 -59 -58.5t-8 -58.5q11 -33 50 -33zM165 166q0 -50 19.5 -70t64.5 -20q66 0 150 46v131h-126q-62 -1 -85 -17.5t-23 -69.5z" />
    <glyph glyph-name="Cacute" unicode="&#x106;" horiz-adv-x="579" 
d="M488 921l-113 -154h-91l92 154h112zM352 712q78 0 168 -21v-103q-87 21 -155 21q-55 0 -89.5 -13.5t-54.5 -46t-27.5 -79t-7.5 -121t7.5 -121t27 -79t54 -45.5t88.5 -13q71 0 157 20v-102q-92 -21 -168 -21q-69 0 -119.5 16t-82.5 45t-50.5 75t-26 99.5t-7.5 126.5
t7.5 127t26.5 100t51.5 74.5t82.5 44.5t118 16z" />
    <glyph glyph-name="cacute" unicode="&#x107;" horiz-adv-x="516" 
d="M450 751l-113 -154h-92l93 154h112zM309 542q62 0 149 -19v-92q-78 18 -138 18q-85 0 -117.5 -41.5t-32.5 -142.5t32.5 -142.5t117.5 -41.5q60 0 140 19v-93q-83 -19 -150 -19q-135 0 -192 69.5t-57 207.5t57 207.5t191 69.5z" />
    <glyph glyph-name="Cdotaccent" unicode="&#x10a;" horiz-adv-x="579" 
d="M380 879v-105h-104v105h104zM352 712q78 0 168 -21v-103q-87 21 -155 21q-55 0 -89.5 -13.5t-54.5 -46t-27.5 -79t-7.5 -121t7.5 -121t27 -79t54 -45.5t88.5 -13q71 0 157 20v-102q-92 -21 -168 -21q-69 0 -119.5 16t-82.5 45t-50.5 75t-26 99.5t-7.5 126.5t7.5 127
t26.5 100t51.5 74.5t82.5 44.5t118 16z" />
    <glyph glyph-name="cdotaccent" unicode="&#x10b;" horiz-adv-x="516" 
d="M342 709l-1 -105h-104v105h105zM309 542q62 0 149 -19v-92q-78 18 -138 18q-85 0 -117.5 -41.5t-32.5 -142.5t32.5 -142.5t117.5 -41.5q60 0 140 19v-93q-83 -19 -150 -19q-135 0 -192 69.5t-57 207.5t57 207.5t191 69.5z" />
    <glyph glyph-name="Ccaron" unicode="&#x10c;" horiz-adv-x="579" 
d="M276 767l-104 154h99l57 -93l57 93h98l-104 -154h-103zM186 349.5q0 -74.5 7.5 -121t27 -79t54 -45.5t88.5 -13q71 0 157 20v-102q-92 -21 -168 -21q-69 0 -119.5 16t-82.5 45t-50.5 75t-26 99.5t-7.5 126.5t7.5 127t26.5 100t51.5 74.5t82.5 44.5t118 16q78 0 168 -21
v-103q-87 21 -155 21q-55 0 -89.5 -13.5t-54.5 -46t-27.5 -79t-7.5 -121z" />
    <glyph glyph-name="ccaron" unicode="&#x10d;" horiz-adv-x="516" 
d="M238 597l-104 154h98l57 -93l58 93h98l-104 -154h-103zM460 100v-93q-83 -19 -150 -19q-135 0 -192 69.5t-57 207.5t57 207.5t191 69.5q62 0 149 -19v-92q-78 18 -138 18q-85 0 -117.5 -41.5t-32.5 -142.5t32.5 -142.5t117.5 -41.5q60 0 140 19z" />
    <glyph glyph-name="Dcaron" unicode="&#x10e;" horiz-adv-x="678" 
d="M266 767l-104 154h98l57 -93l58 93h98l-104 -154h-103zM334 700q83 0 138.5 -21.5t85.5 -68t42 -107.5t12 -153q0 -73 -7 -125.5t-25.5 -97t-50 -71.5t-80 -41.5t-115.5 -14.5h-139h-116v700h21h234zM314 95q46 0 77 8t51.5 25t31 49t14.5 71.5t4 101.5t-4 101.5
t-14.5 71.5t-31 48.5t-51.5 25t-77 8.5h-119v-510h119z" />
    <glyph glyph-name="dcaron" unicode="&#x10f;" horiz-adv-x="786" 
d="M438 750h106v-750h-95l-6 44q-55 -31 -95.5 -43.5t-85.5 -12.5q-114 0 -158.5 69t-44.5 207q0 68 9.5 116.5t32 86.5t63 56.5t98.5 18.5q44 0 83.5 -12t92.5 -41v261zM688 750h98l-104 -154h-89zM168 265q0 -101 26 -142.5t98 -41.5q32 0 63 10t83 39v270q-52 29 -83 39
t-63 10q-71 0 -97.5 -41.5t-26.5 -142.5z" />
    <glyph glyph-name="Dcroat" unicode="&#x110;" horiz-adv-x="677" 
d="M333 700q84 0 139 -21.5t85.5 -68t42.5 -107.5t11 -153q1 -73 -6.5 -125.5t-25.5 -97t-49.5 -71.5t-80.5 -41.5t-116 -14.5h-139h-115v307h-82v86h82v307h21h233zM313 95q47 0 77.5 8t51 25t31.5 49t14.5 71.5t3.5 101.5t-3.5 101.5t-14.5 71.5t-31 48.5t-51 25t-78 8.5
h-119v-212h136v-86h-136v-212h119z" />
    <glyph glyph-name="dcroat" unicode="&#x111;" 
d="M652 674v-86h-108v-588h-95l-6 44q-55 -31 -95.5 -43.5t-85.5 -12.5q-114 0 -158.5 69t-44.5 207q0 68 9.5 116.5t32 86t63 56.5t98.5 19q44 0 83.5 -12t92.5 -41v99h-172v86h172v76h106v-76h108zM168 265q0 -101 26 -142.5t98 -41.5q32 0 63 10t83 39v270q-52 29 -83 39
t-63 10q-71 0 -97.5 -41.5t-26.5 -142.5z" />
    <glyph glyph-name="Emacron" unicode="&#x112;" horiz-adv-x="547" 
d="M440 861v-80h-292v80h292zM500 603h-305v-196h289v-96h-289v-214h305v-97h-305h-116v700h95h326v-97z" />
    <glyph glyph-name="emacron" unicode="&#x113;" horiz-adv-x="579" 
d="M441 691v-80h-292v80h292zM298 542q63 0 108 -17t69 -42.5t36.5 -64.5t14.5 -72t0 -75q0 -8 -1 -20t-2 -21v0h-355q4 -85 35.5 -117.5t110.5 -32.5q113 0 189 39v-89q-78 -42 -196 -42q-137 0 -193 67.5t-56 207t55 209.5t185 70zM295 451q-63 0 -92 -32.5t-34 -109.5
h250q0 24 -1 41t-8 37.5t-20 33t-37 21.5t-58 9z" />
    <glyph glyph-name="Edotaccent" unicode="&#x116;" horiz-adv-x="547" 
d="M346 879v-105h-104v105h104zM500 603h-305v-196h289v-96h-289v-214h305v-97h-305h-116v700h95h326v-97z" />
    <glyph glyph-name="edotaccent" unicode="&#x117;" horiz-adv-x="579" 
d="M347 709v-105h-104v105h104zM298 542q63 0 108 -17t69 -42.5t36.5 -64.5t14.5 -72t0 -75q0 -8 -1 -20t-2 -21v0h-355q4 -85 35.5 -117.5t110.5 -32.5q113 0 189 39v-89q-78 -42 -196 -42q-137 0 -193 67.5t-56 207t55 209.5t185 70zM295 451q-63 0 -92 -32.5t-34 -109.5
h250q0 24 -1 41t-8 37.5t-20 33t-37 21.5t-58 9z" />
    <glyph glyph-name="Eogonek" unicode="&#x118;" horiz-adv-x="547" 
d="M500 603h-305v-196h289v-96h-289v-214h305v-97h-35q-38 -26 -55.5 -57t-7.5 -58q11 -32 50 -32q26 0 47 11v-52q-33 -13 -66 -13q-80 1 -100 63q-10 34 5.5 72t57.5 66h-201h-116v700h95h326v-97z" />
    <glyph glyph-name="eogonek" unicode="&#x119;" horiz-adv-x="579" 
d="M299 542q47 0 83.5 -9t60 -24.5t40.5 -36.5t25 -45t13 -50.5t4.5 -53.5t0.5 -52l-2 -23.5t-1 -17.5v0h-355q4 -83 34.5 -116.5t102.5 -33.5q82 0 199 31v-90l-49 -13q-39 -26 -56.5 -57.5t-7.5 -57.5q11 -33 50 -33q26 0 47 11v-51q-34 -13 -66 -13q-80 1 -100 62
q-9 30 1.5 63t40.5 60q-34 -4 -64 -4q-132 0 -187 69.5t-55 207.5t55 207.5t186 69.5zM298 451q-66 0 -95 -33t-34 -109h249q1 32 -3 54t-15.5 44t-37 33t-64.5 11z" />
    <glyph glyph-name="Ecaron" unicode="&#x11a;" horiz-adv-x="547" 
d="M242 767l-103 154h98l57 -93l57 93h99l-104 -154h-104zM500 603h-305v-196h289v-96h-289v-214h305v-97h-305h-116v700h95h326v-97z" />
    <glyph glyph-name="ecaron" unicode="&#x11b;" horiz-adv-x="579" 
d="M243 597l-104 154h99l57 -93l57 93h99l-104 -154h-104zM298 542q63 0 108 -17t69 -42.5t36.5 -64.5t14.5 -72t0 -75q0 -8 -1 -20t-2 -21v0h-355q4 -85 35.5 -117.5t110.5 -32.5q113 0 189 39v-89q-78 -42 -196 -42q-137 0 -193 67.5t-56 207t55 209.5t185 70zM295 451
q-63 0 -92 -32.5t-34 -109.5h250q0 24 -1 41t-8 37.5t-20 33t-37 21.5t-58 9z" />
    <glyph glyph-name="Gbreve" unicode="&#x11e;" horiz-adv-x="674" 
d="M338.5 758q-61.5 0 -99.5 37t-38 94h72q-1 -27 17 -43.5t49 -16.5q30 0 47.5 16.5t18.5 43.5h72q0 -57 -38.5 -94t-100 -37zM600 285q1 -64 -4.5 -108t-20.5 -82t-42 -60t-70 -34.5t-105 -12.5q-70 0 -121.5 15.5t-84 44t-52 75t-27 101t-7.5 128.5q0 73 7.5 126.5
t26.5 99.5t52 74.5t84.5 44t122.5 15.5q89 0 193 -21v-103q-101 21 -181 21q-59 0 -94.5 -12.5t-56 -45.5t-27.5 -79t-7 -123q0 -74 6.5 -120t26 -79t53 -46t87.5 -13q35 0 58 6.5t37.5 18t22 35t10 50.5t1.5 71v20l-119 1v92h231v-100z" />
    <glyph glyph-name="gbreve" unicode="&#x11f;" 
d="M311.5 588q-61.5 0 -99.5 37t-38 94h72q-1 -27 17 -43.5t49 -16.5q30 0 47.5 16.5t18.5 43.5h72q0 -57 -38.5 -94t-100 -37zM544 530v-535q0 -112 -61 -159.5t-186 -47.5q-105 0 -183 31v89q78 -33 186 -33q77 0 107.5 25.5t30.5 94.5v56q-54 -28 -93 -39.5t-83 -11.5
q-114 0 -158.5 66.5t-44.5 201.5q0 137 45 205.5t158 68.5q45 0 85.5 -12.5t95.5 -43.5l6 44h95zM294 90q30 0 60.5 9t83.5 37v264q-52 29 -83 39t-64 10q-71 0 -97 -41t-26 -142q0 -99 26 -137.5t100 -38.5z" />
    <glyph glyph-name="Gdotaccent" unicode="&#x120;" horiz-adv-x="674" 
d="M391 879v-105h-104v105h104zM600 285q1 -64 -4.5 -108t-20.5 -82t-42 -60t-70 -34.5t-105 -12.5q-70 0 -121.5 15.5t-84 44t-52 75t-27 101t-7.5 128.5q0 73 7.5 126.5t26.5 99.5t52 74.5t84.5 44t122.5 15.5q89 0 193 -21v-103q-101 21 -181 21q-59 0 -94.5 -12.5
t-56 -45.5t-27.5 -79t-7 -123q0 -74 6.5 -120t26 -79t53 -46t87.5 -13q35 0 58 6.5t37.5 18t22 35t10 50.5t1.5 71v20h-119v93h231v-100z" />
    <glyph glyph-name="gdotaccent" unicode="&#x121;" 
d="M364 709v-105h-104v105h104zM544 530v-535q0 -112 -61 -159.5t-186 -47.5q-105 0 -183 31v89q78 -33 186 -33q77 0 107.5 25.5t30.5 94.5v56q-54 -28 -93 -39.5t-83 -11.5q-114 0 -158.5 66.5t-44.5 201.5q0 137 45 205.5t158 68.5q45 0 85.5 -12.5t95.5 -43.5l6 44h95z
M294 90q30 0 60.5 9t83.5 37v264q-52 29 -83 39t-64 10q-71 0 -97 -41t-26 -142q0 -99 26 -137.5t100 -38.5z" />
    <glyph glyph-name="Gcommaaccent" unicode="&#x122;" horiz-adv-x="674" 
d="M600 285q1 -64 -4.5 -108t-20.5 -82t-42 -60t-70 -34.5t-105 -12.5q-70 0 -121.5 15.5t-84 44t-52 75t-27 101t-7.5 128.5q0 73 7.5 126.5t26.5 99.5t52 74.5t84.5 44t122.5 15.5q89 0 193 -21v-103q-101 21 -181 21q-59 0 -94.5 -12.5t-56 -45.5t-27.5 -79t-7 -123
q0 -74 6.5 -120t26 -79t53 -46t87.5 -13q35 0 58 6.5t37.5 18t22 35t10 50.5t1.5 71v20h-119v93h231v-100zM292 -136v70h101v-78q0 -62 -31.5 -88t-116.5 -18v75q25 -1 36 8t11 31z" />
    <glyph glyph-name="gcommaaccent" unicode="&#x123;" 
d="M366 667v-71h-101v79q0 62 31.5 88t116.5 17v-74q-25 1 -36 -8t-11 -31zM544 530v-535q0 -112 -61 -159.5t-186 -47.5q-105 0 -183 31v89q78 -33 186 -33q77 0 107.5 25.5t30.5 94.5v56q-54 -28 -93 -39.5t-83 -11.5q-114 0 -158.5 66.5t-44.5 201.5q0 137 45 205.5
t158 68.5q45 0 85.5 -12.5t95.5 -43.5l6 44h95zM294 90q30 0 60.5 9t83.5 37v264q-52 29 -83 39t-64 10q-71 0 -97 -41t-26 -142q0 -99 26 -137.5t100 -38.5z" />
    <glyph glyph-name="Hbar" unicode="&#x126;" horiz-adv-x="697" 
d="M697 604v-96h-78v-508h-116v311h-308v-311h-116v508h-79v96h79v96h116v-96h308v96h116v-96h78zM503 407v101h-308v-101h308z" />
    <glyph glyph-name="hbar" unicode="&#x127;" horiz-adv-x="618" 
d="M387 541q74 0 117.5 -42.5t43.5 -133.5v-365h-107v350q0 55 -20 76.5t-61 21.5q-70 0 -173 -47v-401h-106v588h-105v86h105v76h106v-76h176v-86h-176v-99q113 52 200 52z" />
    <glyph glyph-name="Imacron" unicode="&#x12a;" horiz-adv-x="274" 
d="M-9 861h292v-80h-292v80zM195 700v-700h-116v700h116z" />
    <glyph glyph-name="imacron" unicode="&#x12b;" horiz-adv-x="273" 
d="M-7 691h292v-80h-292v80zM192 530v-530h-106v530h106z" />
    <glyph glyph-name="Iogonek" unicode="&#x12e;" horiz-adv-x="274" 
d="M177 -151q26 0 47 11v-51q-34 -13 -66 -13q-80 1 -100 62q-11 36 6 75t61 67h-46v700h116v-700q-41 -27 -59.5 -59t-8.5 -59q11 -33 50 -33z" />
    <glyph glyph-name="iogonek" unicode="&#x12f;" horiz-adv-x="273" 
d="M197 713v-111h-116v111h116zM174 -151q26 0 47 11v-51q-33 -13 -66 -13q-80 1 -100 62q-11 36 5.5 75t60.5 67h-35v530h106v-530q-41 -27 -59.5 -59t-8.5 -59q11 -33 50 -33z" />
    <glyph glyph-name="Idotaccent" unicode="&#x130;" horiz-adv-x="274" 
d="M189 879v-105h-104v105h104zM195 700v-700h-116v700h116z" />
    <glyph glyph-name="dotlessi" unicode="&#x131;" horiz-adv-x="273" 
d="M192 530v-530h-106v530h106z" />
    <glyph glyph-name="IJ" unicode="&#x132;" horiz-adv-x="698" 
d="M195 700v-700h-116v700h116zM622 700v-494q0 -116 -48 -167t-163 -51q-49 0 -98 9v98q43 -8 78 -8q65 0 90 26t25 104v483h116z" />
    <glyph glyph-name="ij" unicode="&#x133;" horiz-adv-x="544" 
d="M197 713v-111h-116v111h116zM468 713v-111h-116v111h116zM192 530v-530h-106v530h106zM463 530v-597q0 -143 -163 -143q-15 0 -34 2v89h14q42 0 59.5 17t17.5 53v579h106z" />
    <glyph glyph-name="Kcommaaccent" unicode="&#x136;" horiz-adv-x="641" 
d="M319 363l283 -363h-142l-240 312h-25v-312h-116v700h116v-291h26l230 291h140zM275 -136v70h101v-78q0 -62 -31.5 -88t-116.5 -18v75q25 -1 36 8t11 31z" />
    <glyph glyph-name="kcommaaccent" unicode="&#x137;" horiz-adv-x="571" 
d="M297 271l237 -271h-132l-193 233h-22v-233h-106v750h106v-435h25l177 215h131zM258 -136v70h101v-78q0 -62 -31.5 -88t-116.5 -18v75q25 -1 36 8t11 31z" />
    <glyph glyph-name="Lacute" unicode="&#x139;" horiz-adv-x="516" 
d="M418 921l-112 -154h-92l93 154h111zM477 97v-97h-282h-116v700h116v-603h282z" />
    <glyph glyph-name="lacute" unicode="&#x13a;" horiz-adv-x="265" 
d="M293 971l-113 -154h-92l93 154h112zM187 750v-750h-106v750h106z" />
    <glyph glyph-name="Lcommaaccent" unicode="&#x13b;" horiz-adv-x="516" 
d="M195 97h282v-97h-282h-116v700h116v-603zM234 -136v70h101v-78q0 -62 -31.5 -88t-116.5 -18v75q25 -1 36 8t11 31z" />
    <glyph glyph-name="lcommaaccent" unicode="&#x13c;" horiz-adv-x="265" 
d="M187 750v-750h-106v750h106zM40 -250v75q25 -1 36 8t11 31v70h101v-78q0 -62 -31.5 -88t-116.5 -18z" />
    <glyph glyph-name="Lcaron" unicode="&#x13d;" horiz-adv-x="516" 
d="M477 97v-97h-282h-116v700h116v-603h282zM444 700l-104 -154h-90l95 154h99z" />
    <glyph glyph-name="lcaron" unicode="&#x13e;" horiz-adv-x="429" 
d="M187 750v-750h-106v750h106zM236 596l95 154h98l-104 -154h-89z" />
    <glyph glyph-name="Ldot" unicode="&#x13f;" horiz-adv-x="516" 
d="M477 97v-97h-282h-116v700h116v-603h282zM411 428v-131h-116v131h116z" />
    <glyph glyph-name="ldot" unicode="&#x140;" horiz-adv-x="378" 
d="M187 750v-750h-106v750h106zM378 428v-131h-117v131h117z" />
    <glyph glyph-name="Lslash" unicode="&#x141;" horiz-adv-x="516" 
d="M477 97v-97h-282h-116v285l-83 -45v105l83 45v310h116v-247l129 70v-105l-129 -70v-251h282z" />
    <glyph glyph-name="lslash" unicode="&#x142;" horiz-adv-x="322" 
d="M335 521v-97l-122 -66v-358h-106v300l-100 -54v97l100 54v353h106v-295z" />
    <glyph glyph-name="Nacute" unicode="&#x143;" horiz-adv-x="672" 
d="M497 921l-113 -154h-91l92 154h112zM488 700h112v-700h-150l-266 534v-534h-112v700h145l271 -544v544z" />
    <glyph glyph-name="nacute" unicode="&#x144;" horiz-adv-x="613" 
d="M469 751l-113 -154h-92l93 154h112zM382 542q74 0 117 -43t43 -133v-366h-106v351q0 54 -20 76t-61 22q-71 0 -173 -47v-402h-106v530h95l5 -43q117 55 206 55z" />
    <glyph glyph-name="Ncommaaccent" unicode="&#x145;" horiz-adv-x="672" 
d="M488 700h112v-700h-150l-266 534v-534h-112v700h145l271 -544v544zM292 -136v70h100v-78q0 -62 -31.5 -88t-115.5 -18v75q25 -1 36 8t11 31z" />
    <glyph glyph-name="ncommaaccent" unicode="&#x146;" horiz-adv-x="613" 
d="M382 542q74 0 117 -43t43 -133v-366h-106v351q0 54 -20 76t-61 22q-71 0 -173 -47v-402h-106v530h95l5 -43q117 55 206 55zM263 -136v70h101v-78q0 -62 -31.5 -88t-116.5 -18v75q25 -1 36 8t11 31z" />
    <glyph glyph-name="Ncaron" unicode="&#x147;" horiz-adv-x="672" 
d="M285 767l-104 154h98l58 -93l57 93h98l-104 -154h-103zM488 700h112v-700h-150l-266 534v-534h-112v700h145l271 -544v544z" />
    <glyph glyph-name="ncaron" unicode="&#x148;" horiz-adv-x="613" 
d="M257 597l-104 154h98l57 -93l57 93h99l-104 -154h-103zM382 542q74 0 117 -43t43 -133v-366h-106v351q0 54 -20 76t-61 22q-71 0 -173 -47v-402h-106v530h95l5 -43q117 55 206 55z" />
    <glyph glyph-name="Eng" unicode="&#x14a;" horiz-adv-x="672" 
d="M488 700h112v-693q0 -115 -48 -166.5t-163 -51.5q-49 0 -98 9l5 95q41 -8 76 -8q63 0 88.5 23t27.5 92h-38l-266 534v-534h-112v700h145l271 -544v544z" />
    <glyph glyph-name="eng" unicode="&#x14b;" horiz-adv-x="613" 
d="M382 542q74 0 117 -43t43 -133v-433q0 -143 -163 -143q-15 0 -34 2v89h14q43 0 60 17t17 53v400q0 54 -20 76t-61 22q-71 0 -173 -47v-402h-106v530h95l5 -43q117 55 206 55z" />
    <glyph glyph-name="Omacron" unicode="&#x14c;" horiz-adv-x="712" 
d="M210 861h292v-80h-292v80zM356 712q70 0 121.5 -16t83.5 -44.5t51.5 -75t27 -100t7.5 -126.5t-7.5 -126.5t-27 -100t-51.5 -75t-83.5 -44.5t-121.5 -16t-121 16t-83.5 44.5t-51.5 75t-26.5 100t-7.5 126.5t7.5 126.5t26.5 100t51.5 75t83.5 44.5t121 16zM356.5 609
q-52.5 0 -85.5 -13.5t-52 -46.5t-26 -79t-7 -120t7 -120t26 -79t52 -46.5t85.5 -13.5t85.5 13.5t51.5 46.5t26 79t7.5 120t-7.5 120t-26 79t-51.5 46.5t-85.5 13.5z" />
    <glyph glyph-name="omacron" unicode="&#x14d;" horiz-adv-x="612" 
d="M160 691h292v-80h-292v80zM306 542q135 0 191 -69t56 -208t-56 -208t-191 -69t-191 69t-56 208t56 208t191 69zM306 449q-78 0 -108 -41.5t-30 -142.5t30 -142.5t108 -41.5t108 41.5t30 142.5t-30 142.5t-108 41.5z" />
    <glyph glyph-name="Ohungarumlaut" unicode="&#x150;" horiz-adv-x="712" 
d="M430 921l-110 -154h-90l91 154h109zM599 921l-111 -154h-89l90 154h110zM356 712q70 0 121.5 -16t83.5 -44.5t51.5 -75t27 -100t7.5 -126.5t-7.5 -126.5t-27 -100t-51.5 -75t-83.5 -44.5t-121.5 -16t-121 16t-83.5 44.5t-51.5 75t-26.5 100t-7.5 126.5t7.5 126.5
t26.5 100t51.5 75t83.5 44.5t121 16zM356.5 609q-52.5 0 -85.5 -13.5t-52 -46.5t-26 -79t-7 -120t7 -120t26 -79t52 -46.5t85.5 -13.5t85.5 13.5t51.5 46.5t25.5 79t7 120t-7 120t-25.5 79t-51.5 46.5t-85.5 13.5z" />
    <glyph glyph-name="ohungarumlaut" unicode="&#x151;" horiz-adv-x="612" 
d="M380 751l-110 -154h-90l90 154h110zM548 751l-110 -154h-90l91 154h109zM306 542q135 0 191 -69t56 -208t-56 -208t-191 -69t-191 69t-56 208t56 208t191 69zM306 449q-78 0 -108 -41.5t-30 -142.5t30 -142.5t108 -41.5t108 41.5t30 142.5t-30 142.5t-108 41.5z" />
    <glyph glyph-name="OE" unicode="&#x152;" horiz-adv-x="994" 
d="M948 603h-306v-196h290v-96h-290v-214h306v-97h-306h-116v24q-62 -36 -170 -36q-70 0 -121 16t-83.5 44.5t-51.5 75t-26.5 100t-7.5 126.5t7.5 126.5t26.5 100t51.5 75t83.5 44.5t121 16q108 0 171 -36v24h94h327v-97zM356 91q52 0 85 13.5t52 45.5t26 78t7 119v6
q0 73 -7 118.5t-26 78t-52 46t-85 13.5t-85 -13.5t-52 -46.5t-26 -79t-7 -120t7 -120t26 -79t52 -46.5t85 -13.5z" />
    <glyph glyph-name="oe" unicode="&#x153;" horiz-adv-x="972" 
d="M686 542q46 0 83 -9t61 -23.5t41.5 -37t27 -44.5t14 -51.5t5.5 -52.5t0 -53q0 -12 -1 -23.5t-1 -17.5h-1h-361q4 -82 34.5 -116t102.5 -34q85 0 205 34v-91q-120 -35 -210 -35q-130 0 -188 71q-58 -71 -192 -71q-135 0 -191 69t-56 208t56 208t191 69q133 0 192 -71
q58 71 188 71zM684 451q-66 0 -95 -32.5t-34 -109.5h255q1 32 -4 54.5t-17.5 44t-39 32.5t-65.5 11zM306 81q78 0 108 41.5t30 142.5t-30 142.5t-108 41.5t-108 -41.5t-30 -142.5t30 -142.5t108 -41.5z" />
    <glyph glyph-name="Racute" unicode="&#x154;" horiz-adv-x="633" 
d="M477 921l-112 -154h-92l92 154h112zM458 0l-157 288h-106v-288h-116v700h92h152q125 0 185.5 -47.5t60.5 -158.5q0 -87 -37 -134.5t-112 -63.5l168 -296h-130zM195 607v-226h121q77 0 106 23t29 90q0 66 -29 89.5t-106 23.5h-121z" />
    <glyph glyph-name="racute" unicode="&#x155;" horiz-adv-x="423" 
d="M389 751l-112 -154h-92l92 154h112zM169 530l7 -56q70 36 118.5 52t93.5 16v-90q-40 0 -86.5 -16t-121.5 -55v-381h-106v530h95z" />
    <glyph glyph-name="Rcommaaccent" unicode="&#x156;" horiz-adv-x="633" 
d="M420 296l168 -296h-130l-157 288h-106v-288h-116v700h92h152q125 0 185.5 -47.5t60.5 -158.5q0 -87 -37 -134.5t-112 -63.5zM195 607v-226h121q77 0 106 23t29 90q0 66 -29 89.5t-106 23.5h-121zM272 -136v70h101v-78q0 -62 -32 -88t-116 -18v75q25 -1 36 8t11 31z" />
    <glyph glyph-name="rcommaaccent" unicode="&#x157;" horiz-adv-x="423" 
d="M176 474q70 36 118.5 52t93.5 16v-90q-40 0 -86.5 -16t-121.5 -55v-381h-106v530h95zM184 -136v70h101v-78q0 -62 -32 -88t-116 -18v75q25 -1 36 8t11 31z" />
    <glyph glyph-name="Rcaron" unicode="&#x158;" horiz-adv-x="633" 
d="M265 767l-104 154h99l57 -93l57 93h99l-104 -154h-104zM458 0l-157 288h-106v-288h-116v700h92h152q125 0 185.5 -47.5t60.5 -158.5q0 -87 -37 -134.5t-112 -63.5l168 -296h-130zM195 607v-226h121q77 0 106 23t29 90q0 66 -29 89.5t-106 23.5h-121z" />
    <glyph glyph-name="rcaron" unicode="&#x159;" horiz-adv-x="423" 
d="M177 597l-104 154h99l57 -93l57 93h98l-103 -154h-104zM388 542v-90q-40 0 -86.5 -16t-121.5 -55v-381h-106v530h95l7 -56q70 36 118.5 52t93.5 16z" />
    <glyph glyph-name="Sacute" unicode="&#x15a;" horiz-adv-x="561" 
d="M441 921l-113 -154h-92l93 154h112zM291 712q91 0 189 -19v-100q-97 19 -182 19q-79 0 -105.5 -22.5t-26.5 -74.5q0 -40 20.5 -57t105.5 -47l50.5 -18.5t43 -17t38 -18.5t29 -20.5t24 -25t15.5 -29.5t11 -37.5t3 -45.5q0 -115 -65 -163t-189 -48q-92 0 -205 25v100
q111 -25 199 -25q75 0 108 23t33 82q0 44 -24 64t-104 48q-3 1 -10 3l-41 14.5t-35 13t-32 13.5l-26 13.5t-22.5 15.5l-16.5 17.5t-13.5 21l-8.5 24.5t-6.5 30t-1.5 35q0 102 55.5 154t189.5 52z" />
    <glyph glyph-name="sacute" unicode="&#x15b;" horiz-adv-x="485" 
d="M404 751l-113 -154h-92l93 154h112zM249 543q76 0 158 -17v-91q-81 17 -153 17q-62 0 -81.5 -15t-19.5 -47q0 -29 16.5 -41t80.5 -32q6 -2 17 -5l40 -12t34.5 -12.5t32.5 -16t25.5 -20t21.5 -26t12 -33t5 -43.5q0 -161 -217 -161q-77 0 -175 22v91q99 -22 172 -22
q58 0 83 15t25 54q0 32 -18.5 44t-87.5 34q-37 11 -56.5 18t-43 17.5t-34.5 20.5t-22 25t-14.5 33.5t-3.5 43.5q0 79 45.5 119t157.5 40z" />
    <glyph glyph-name="Scedilla" unicode="&#x15e;" horiz-adv-x="561" 
d="M506 199q0 -96 -45.5 -145t-133.5 -61l-28 -45q35 -4 52.5 -21.5t17.5 -55.5q0 -41 -26.5 -58t-78.5 -17q-40 0 -83 5v52q40 -4 73 -4q29 0 38.5 6.5t9.5 23.5t-10 24.5t-36 7.5h-44l43 77h-3q-92 0 -205 25v100q111 -25 199 -25q75 0 108 23t33 82q0 44 -24 64t-104 48
q-3 1 -10 3l-41 14.5t-35 13t-32 13.5l-26 13.5t-22.5 15.5l-16.5 17.5t-13.5 21l-8.5 24.5t-6.5 30t-1.5 35q0 102 55.5 154t189.5 52q91 0 189 -19v-100q-97 19 -182 19q-79 0 -105.5 -22.5t-26.5 -74.5q0 -40 20.5 -57t105.5 -47l50.5 -18.5t43 -17t38 -18.5t29 -20.5
t24 -25t15.5 -29.5t11 -37.5t3 -45.5z" />
    <glyph glyph-name="scedilla" unicode="&#x15f;" horiz-adv-x="485" 
d="M438 149q0 -135 -152 -157l-28 -44q35 -4 53 -21.5t18 -55.5q0 -41 -26.5 -58t-78.5 -17q-41 0 -84 5v52q40 -4 73 -4q29 0 38.5 6.5t9.5 23.5q1 17 -9.5 24.5t-36.5 7.5h-43l43 77q-75 1 -169 22v91q99 -22 172 -22q58 0 83 15t25 54q0 32 -18.5 44t-87.5 34
q-37 11 -56.5 18t-43 17.5t-34.5 20.5t-22 25t-14.5 33.5t-3.5 43.5q0 79 45.5 119t157.5 40q76 0 158 -17v-91q-81 17 -153 17q-62 0 -81.5 -15t-19.5 -47q0 -29 16.5 -41t80.5 -32q6 -2 17 -5l40 -12t34.5 -12.5t32.5 -16t25.5 -20t21.5 -26t12 -33t5 -43.5z" />
    <glyph glyph-name="Scaron" unicode="&#x160;" horiz-adv-x="561" 
d="M229 767l-104 154h98l57 -93l57 93h99l-104 -154h-103zM292 411l50.5 -18.5t43 -17t38 -18.5t29 -20.5t24 -25t15.5 -29.5t11 -37.5t3 -45.5q0 -115 -65 -163t-189 -48q-92 0 -205 25v100q111 -25 199 -25q75 0 108 23t33 82q0 44 -24 64t-104 48q-3 1 -10 3l-41 14.5
t-35 13t-32 13.5l-26 13.5t-22.5 15.5l-16.5 17.5t-13.5 21l-8.5 24.5t-6.5 30t-1.5 35q0 102 55.5 154t189.5 52q91 0 189 -19v-100q-97 19 -182 19q-79 0 -105.5 -22.5t-26.5 -74.5q0 -40 20.5 -57t105.5 -47z" />
    <glyph glyph-name="scaron" unicode="&#x161;" horiz-adv-x="485" 
d="M192 597l-104 154h98l57 -93l57 93h99l-104 -154h-103zM250 317q6 -2 17 -5l40 -12t34.5 -12.5t32.5 -16t25.5 -20t21.5 -26t12 -33t5 -43.5q0 -161 -217 -161q-77 0 -175 22v91q99 -22 172 -22q58 0 83 15t25 54q0 32 -18.5 44t-87.5 34q-37 11 -56.5 18t-43 17.5
t-34.5 20.5t-22 25t-14.5 33.5t-3.5 43.5q0 79 45.5 119t157.5 40q76 0 158 -17v-91q-81 17 -153 17q-62 0 -81.5 -15t-19.5 -47q0 -29 16.5 -41t80.5 -32z" />
    <glyph glyph-name="uni0162" unicode="&#x162;" horiz-adv-x="562" 
d="M339 0h-22l-35 -54q35 -4 53 -21.5t18 -55.5q0 -41 -26.5 -58t-78.5 -17q-41 0 -84 5v52q40 -4 74 -4q28 0 37.5 6t9.5 24q1 17 -9.5 24.5t-36.5 7.5h-43l50 91h-23v603h-182v97h182h116h182v-97h-182v-603z" />
    <glyph glyph-name="uni0163" unicode="&#x163;" horiz-adv-x="395" 
d="M268 -12q-16 0 -31 1l-22 -34q35 -5 52.5 -22.5t17.5 -54.5q0 -42 -26.5 -59t-78.5 -17q-40 0 -83 6v51q40 -3 73 -3q29 0 38.5 6t9.5 23q0 18 -10 25t-36 7h-43l48 88q-63 31 -63 118v325h-82v82h82v129h107v-129h110v-82h-110v-308q0 -33 16 -48t49 -15q11 0 45 3v-88
q-36 -4 -63 -4z" />
    <glyph glyph-name="Tcaron" unicode="&#x164;" horiz-adv-x="562" 
d="M229 767l-104 154h98l58 -93l57 93h98l-104 -154h-103zM521 700v-97h-182v-603h-116v603h-182v97h182h116h182z" />
    <glyph glyph-name="tcaron" unicode="&#x165;" horiz-adv-x="395" 
d="M364 750h99l-104 -154h-90zM221 140q0 -33 16 -48t49 -15q11 0 45 3v-88q-36 -4 -63 -4q-154 0 -154 135v325h-82v82h82v129h107v-129h110v-82h-110v-308z" />
    <glyph glyph-name="Tbar" unicode="&#x166;" horiz-adv-x="562" 
d="M521 603h-182v-210h137v-86h-137v-307h-116v307h-137v86h137v210h-182v97h182h116h182v-97z" />
    <glyph glyph-name="tbar" unicode="&#x167;" horiz-adv-x="395" 
d="M286 77q11 0 45 3v-88q-36 -4 -63 -4q-154 0 -154 135v146h-82v86h82v93h-82v82h82v129h107v-129h110v-82h-110v-93h110v-87l-110 1v-129q0 -33 16 -48t49 -15z" />
    <glyph glyph-name="Umacron" unicode="&#x16a;" horiz-adv-x="660" 
d="M185 861h292v-80h-292v80zM586 700v-444q0 -67 -11 -114t-39 -83t-78.5 -53.5t-126.5 -17.5t-127 17.5t-78.5 53.5t-38.5 83t-11 114v444h116v-450q0 -92 28 -125.5t111 -33.5t111 33.5t28 125.5v450h116z" />
    <glyph glyph-name="umacron" unicode="&#x16b;" horiz-adv-x="584" 
d="M438 691v-80h-292v80h292zM407 530h106v-530h-96l-5 42q-105 -54 -187 -54q-71 0 -112.5 43t-41.5 133v366h106v-351q0 -54 19 -76t58 -22q63 0 153 46v403z" />
    <glyph glyph-name="Uring" unicode="&#x16e;" horiz-adv-x="660" 
d="M331 947q43 0 73 -30.5t30 -73t-30 -73t-72.5 -30.5t-72.5 30.5t-30 72.5q0 44 30 74t72 30zM331 892q-19 0 -31.5 -14t-12.5 -34.5t12.5 -35t31.5 -14.5t31.5 14.5t12.5 35t-12.5 34.5t-31.5 14zM586 700v-444q0 -67 -11 -114t-39 -83t-78.5 -53.5t-126.5 -17.5
t-127 17.5t-78.5 53.5t-38.5 83t-11 114v444h116v-450q0 -92 28 -125.5t111 -33.5t111 33.5t28 125.5v450h116z" />
    <glyph glyph-name="uring" unicode="&#x16f;" horiz-adv-x="584" 
d="M291.5 570q-42.5 0 -72.5 30.5t-30 72.5q0 44 30 74t73 30q42 0 72 -30.5t30 -73t-30 -73t-72.5 -30.5zM291 722q-18 0 -30.5 -14t-12.5 -34.5t12.5 -35t31.5 -14.5t31.5 14.5t12.5 35t-13 34.5t-32 14zM407 530h106v-530h-96l-5 42q-105 -54 -187 -54q-71 0 -112.5 43
t-41.5 133v366h106v-351q0 -54 19 -76t58 -22q63 0 153 46v403z" />
    <glyph glyph-name="Uhungarumlaut" unicode="&#x170;" horiz-adv-x="660" 
d="M406 921l-111 -154h-89l90 154h110zM574 921l-111 -154h-89l90 154h110zM586 700v-444q0 -67 -11 -114t-39 -83t-78.5 -53.5t-126.5 -17.5t-127 17.5t-78.5 53.5t-38.5 83t-11 114v444h116v-450q0 -92 28 -125.5t111 -33.5t111 33.5t28 125.5v450h116z" />
    <glyph glyph-name="uhungarumlaut" unicode="&#x171;" horiz-adv-x="584" 
d="M366 751l-110 -154h-90l91 154h109zM424 597h-89l90 154h110zM407 127v403h106v-530h-96l-5 42q-105 -54 -187 -54q-71 0 -112.5 43t-41.5 133v366h106v-351q0 -54 19 -76t58 -22q63 0 153 46z" />
    <glyph glyph-name="Uogonek" unicode="&#x172;" horiz-adv-x="660" 
d="M470 700h116v-444q0 -100 -26.5 -160.5t-94.5 -87.5q-35 -25 -49.5 -54.5t-5.5 -54.5q11 -32 50 -32q25 0 47 11v-52q-34 -13 -66 -13q-81 1 -100 63q-9 25 -0.5 56t32.5 57q-20 -1 -42 -1q-76 0 -127 17.5t-78.5 53.5t-38.5 83t-11 114v444h116v-450q0 -92 28 -125.5
t111 -33.5t111 33.5t28 125.5v450z" />
    <glyph glyph-name="uogonek" unicode="&#x173;" horiz-adv-x="584" 
d="M473 -149q26 0 47 11v-52q-33 -13 -66 -13q-80 1 -100 63q-10 35 5.5 73.5t57.5 66.5l-5 42q-105 -54 -187 -54q-71 0 -112.5 43t-41.5 133v366h106v-351q0 -54 19 -76t58 -22q63 0 153 46v403h106v-530h-24q-40 -27 -58 -58.5t-8 -58.5q11 -32 50 -32z" />
    <glyph glyph-name="Wcircumflex" unicode="&#x174;" horiz-adv-x="878" 
d="M439 859l-57 -92h-99l104 154h104l104 -154h-99zM839 700l-156 -700h-41h-98l-105 458l-104 -458h-99h-41l-156 700h119l112 -551l106 463h126l106 -463l112 551h119z" />
    <glyph glyph-name="wcircumflex" unicode="&#x175;" horiz-adv-x="791" 
d="M395 689l-57 -92h-98l103 154h104l104 -154h-99zM642 530h112l-143 -530h-121l-95 326l-94 -326h-121l-143 530h112l95 -398l98 347h107l98 -347z" />
    <glyph glyph-name="Ycircumflex" unicode="&#x176;" horiz-adv-x="645" 
d="M322 859l-57 -92h-99l104 154h104l103 -154h-98zM606 700l-226 -431v-269h-116l1 269l-226 431h125l158 -310l159 310h125z" />
    <glyph glyph-name="ycircumflex" unicode="&#x177;" horiz-adv-x="581" 
d="M290 689l-57 -92h-98l104 154h103l104 -154h-99zM432 530h112l-227 -623q-17 -48 -56 -76t-92 -28h-56v86h42q55 0 73 54l31 88l-222 499h114l156 -359z" />
    <glyph glyph-name="Ydieresis" unicode="&#x178;" horiz-adv-x="645" 
d="M282 879v-105h-104v105h104zM466 879v-105h-104v105h104zM606 700l-226 -431v-269h-116l1 269l-226 431h125l158 -310l159 310h125z" />
    <glyph glyph-name="Zacute" unicode="&#x179;" horiz-adv-x="565" 
d="M443 921l-113 -154h-91l92 154h112zM173 97h340v-97h-470v97l331 506h-309v97h440v-97z" />
    <glyph glyph-name="zacute" unicode="&#x17a;" horiz-adv-x="515" 
d="M418 751l-112 -154h-92l92 154h112zM169 82h297v-82h-420v82l289 366h-277v82h400v-82z" />
    <glyph glyph-name="Zdotaccent" unicode="&#x17b;" horiz-adv-x="565" 
d="M335 879l-1 -105h-104v105h105zM173 97h340v-97h-470v97l331 506h-309v97h440v-97z" />
    <glyph glyph-name="zdotaccent" unicode="&#x17c;" horiz-adv-x="515" 
d="M310 709v-105h-104v105h104zM169 82h297v-82h-420v82l289 366h-277v82h400v-82z" />
    <glyph glyph-name="Zcaron" unicode="&#x17d;" horiz-adv-x="565" 
d="M231 767l-104 154h98l57 -93l58 93h98l-104 -154h-103zM173 97h340v-97h-470v97l331 506h-309v97h440v-97z" />
    <glyph glyph-name="zcaron" unicode="&#x17e;" horiz-adv-x="515" 
d="M206 597l-104 154h99l57 -93l57 93h98l-103 -154h-104zM169 82h297v-82h-420v82l289 366h-277v82h400v-82z" />
    <glyph glyph-name="florin" unicode="&#x192;" horiz-adv-x="366" 
d="M291 660q-42 0 -59.5 -17t-17.5 -56v-138h111v-83h-111v-433q0 -116 -115 -135q-30 -8 -74 -7v90q14 0 24 1q32 3 45.5 20t13.5 49v415h-83v83h83v154q0 147 161 147q28 0 65 -5v-88q-24 3 -43 3z" />
    <glyph glyph-name="uni01CD" unicode="&#x1cd;" horiz-adv-x="680" 
d="M288 767l-104 154h99l57 -93l57 93h98l-103 -154h-104zM522 0l-57 181h-250l-57 -181h-122l235 700h31h76h31l235 -700h-122zM245 277h190l-95 303z" />
    <glyph glyph-name="uni01CE" unicode="&#x1ce;" horiz-adv-x="583" 
d="M243 597l-104 154h98l57 -93l57 93h99l-104 -154h-103zM289 542q223 0 223 -183v-359h-99l-3 45q-97 -57 -182 -57q-73 0 -118.5 39.5t-45.5 130.5q0 95 51.5 131.5t154.5 38.5h136v29q0 53 -29 74t-90 21q-72 0 -180 -21v91q109 20 182 20zM171 166q0 -50 20 -70t64 -20
q66 0 151 46v131h-127q-62 -1 -85 -17.5t-23 -69.5z" />
    <glyph glyph-name="uni01CF" unicode="&#x1cf;" horiz-adv-x="274" 
d="M85 767l-104 154h99l57 -93l57 93h99l-104 -154h-104zM79 0v700h116v-700h-116z" />
    <glyph glyph-name="uni01D0" unicode="&#x1d0;" horiz-adv-x="273" 
d="M85 597l-104 154h99l57 -93l57 93h99l-104 -154h-104zM86 0v530h106v-530h-106z" />
    <glyph glyph-name="uni01D1" unicode="&#x1d1;" horiz-adv-x="712" 
d="M304 767l-104 154h99l57 -93l57 93h99l-104 -154h-104zM356 712q70 0 121.5 -16t83.5 -44.5t51.5 -75t27 -100t7.5 -126.5t-7.5 -126.5t-27 -100t-51.5 -75t-83.5 -44.5t-121.5 -16t-121 16t-83.5 44.5t-51.5 75t-26.5 100t-7.5 126.5t7.5 126.5t26.5 100t51.5 75
t83.5 44.5t121 16zM356.5 91q52.5 0 85.5 13.5t51.5 46.5t26 79t7.5 120t-7.5 120t-26 79t-51.5 46.5t-85.5 13.5t-85.5 -13.5t-52 -46.5t-26 -79t-7 -120t7 -120t26 -79t52 -46.5t85.5 -13.5z" />
    <glyph glyph-name="uni01D2" unicode="&#x1d2;" horiz-adv-x="612" 
d="M254 597l-104 154h99l57 -93l57 93h98l-103 -154h-104zM306 542q135 0 191 -69t56 -208t-56 -208t-191 -69t-191 69t-56 208t56 208t191 69zM306 81q78 0 108 41.5t30 142.5t-30 142.5t-108 41.5t-108 -41.5t-30 -142.5t30 -142.5t108 -41.5z" />
    <glyph glyph-name="uni01D3" unicode="&#x1d3;" horiz-adv-x="660" 
d="M279 767l-104 154h99l57 -93l57 93h99l-104 -154h-104zM470 700h116v-444q0 -67 -11 -114t-39 -83t-78.5 -53.5t-126.5 -17.5t-127 17.5t-78.5 53.5t-38.5 83t-11 114v444h116v-450q0 -92 28 -125.5t111 -33.5t111 33.5t28 125.5v450z" />
    <glyph glyph-name="uni01D4" unicode="&#x1d4;" horiz-adv-x="584" 
d="M240 597l-104 154h99l57 -93l57 93h99l-104 -154h-104zM407 530h106v-530h-96l-5 42q-105 -54 -187 -54q-71 0 -112.5 43t-41.5 133v366h106v-351q0 -54 19 -76t58 -22q63 0 153 46v403z" />
    <glyph glyph-name="uni01D5" unicode="&#x1d5;" horiz-adv-x="660" 
d="M185 1023h292v-80h-292v80zM290 878v-102h-102v102h102zM474 878v-102h-102v102h102zM586 700v-444q0 -67 -11 -114t-39 -83t-78.5 -53.5t-126.5 -17.5t-127 17.5t-78.5 53.5t-38.5 83t-11 114v444h116v-450q0 -92 28 -125.5t111 -33.5t111 33.5t28 125.5v450h116z" />
    <glyph glyph-name="uni01D6" unicode="&#x1d6;" horiz-adv-x="584" 
d="M438 842v-81h-292v81h292zM251 606h-102v102h102v-102zM435 606h-102v102h102v-102zM407 530h106v-530h-96l-5 42q-105 -54 -187 -54q-71 0 -112.5 43t-41.5 133v366h106v-351q0 -54 19 -76t58 -22q63 0 153 46v403z" />
    <glyph glyph-name="uni01D7" unicode="&#x1d7;" horiz-adv-x="660" 
d="M492 1092l-113 -154h-92l93 154h112zM290 878v-102h-102v102h102zM474 878v-102h-102v102h102zM586 700v-444q0 -67 -11 -114t-39 -83t-78.5 -53.5t-126.5 -17.5t-127 17.5t-78.5 53.5t-38.5 83t-11 114v444h116v-450q0 -92 28 -125.5t111 -33.5t111 33.5t28 125.5v450
h116z" />
    <glyph glyph-name="uni01D8" unicode="&#x1d8;" horiz-adv-x="584" 
d="M452 910l-112 -154h-92l92 154h112zM251 708v-102h-102v102h102zM333 606v102h102v-102h-102zM407 530h106v-530h-96l-5 42q-105 -54 -187 -54q-71 0 -112.5 43t-41.5 133v366h106v-351q0 -54 19 -76t58 -22q63 0 153 46v403z" />
    <glyph glyph-name="uni01D9" unicode="&#x1d9;" horiz-adv-x="660" 
d="M279 938l-104 154h99l57 -92l57 92h99l-104 -154h-104zM188 776v102h102v-102h-102zM372 776v102h102v-102h-102zM470 700h116v-444q0 -67 -11 -114t-39 -83t-78.5 -53.5t-126.5 -17.5t-127 17.5t-78.5 53.5t-38.5 83t-11 114v444h116v-450q0 -92 28 -125.5t111 -33.5
t111 33.5t28 125.5v450z" />
    <glyph glyph-name="uni01DA" unicode="&#x1da;" horiz-adv-x="584" 
d="M240 756l-104 154h99l57 -93l57 93h99l-104 -154h-104zM149 606v102h102v-102h-102zM333 606v102h102v-102h-102zM407 530h106v-530h-96l-5 42q-105 -54 -187 -54q-71 0 -112.5 43t-41.5 133v366h106v-351q0 -54 19 -76t58 -22q63 0 153 46v403z" />
    <glyph glyph-name="uni01DB" unicode="&#x1db;" horiz-adv-x="660" 
d="M285 1092l92 -154h-91l-113 154h112zM290 878v-102h-102v102h102zM474 878v-102h-102v102h102zM586 700v-444q0 -67 -11 -114t-39 -83t-78.5 -53.5t-126.5 -17.5t-127 17.5t-78.5 53.5t-38.5 83t-11 114v444h116v-450q0 -92 28 -125.5t111 -33.5t111 33.5t28 125.5v450
h116z" />
    <glyph glyph-name="uni01DC" unicode="&#x1dc;" horiz-adv-x="584" 
d="M338 756h-91l-113 154h112zM149 606v102h102v-102h-102zM333 606v102h102v-102h-102zM407 530h106v-530h-96l-5 42q-105 -54 -187 -54q-71 0 -112.5 43t-41.5 133v366h106v-351q0 -54 19 -76t58 -22q63 0 153 46v403z" />
    <glyph glyph-name="Scommaaccent" unicode="&#x218;" horiz-adv-x="561" 
d="M291 712q91 0 189 -19v-100q-97 19 -182 19q-79 0 -105.5 -22.5t-26.5 -74.5q0 -40 20.5 -57t105.5 -47l50.5 -18.5t43 -17t38 -18.5t29 -20.5t24 -25t15.5 -29.5t11 -37.5t3 -45.5q0 -115 -65 -163t-189 -48q-92 0 -205 25v100q111 -25 199 -25q75 0 108 23t33 82
q0 44 -24 64t-104 48q-3 1 -10 3l-41 14.5t-35 13t-32 13.5l-26 13.5t-22.5 15.5l-16.5 17.5t-13.5 21l-8.5 24.5t-6.5 30t-1.5 35q0 102 55.5 154t189.5 52zM175 -250v75q25 -1 36 8t11 31v70h101v-78q0 -62 -31.5 -88t-116.5 -18z" />
    <glyph glyph-name="scommaaccent" unicode="&#x219;" horiz-adv-x="485" 
d="M249 543q76 0 158 -17v-91q-81 17 -153 17q-62 0 -81.5 -15t-19.5 -47q0 -29 16.5 -41t80.5 -32q6 -2 17 -5l40 -12t34.5 -12.5t32.5 -16t25.5 -20t21.5 -26t12 -33t5 -43.5q0 -161 -217 -161q-77 0 -175 22v91q99 -22 172 -22q58 0 83 15t25 54q0 32 -18.5 44t-87.5 34
q-37 11 -56.5 18t-43 17.5t-34.5 20.5t-22 25t-14.5 33.5t-3.5 43.5q0 79 45.5 119t157.5 40zM135 -250v75q25 -1 36 8t11 31v70h101v-78q0 -62 -32 -88t-116 -18z" />
    <glyph glyph-name="uni021A" unicode="&#x21a;" horiz-adv-x="562" 
d="M521 700v-97h-182v-603h-116v603h-182v97h182h116h182zM236 -136v70h100v-78q0 -62 -31.5 -88t-115.5 -18v75q25 -1 36 8t11 31z" />
    <glyph glyph-name="uni021B" unicode="&#x21b;" horiz-adv-x="395" 
d="M286 77q11 0 45 3v-88q-36 -4 -63 -4q-154 0 -154 135v325h-82v82h82v129h107v-129h110v-82h-110v-308q0 -33 16 -48t49 -15zM139 -130v71h100v-79q0 -62 -31.5 -88t-115.5 -17v74q25 -1 36 8.5t11 30.5z" />
    <glyph glyph-name="circumflex" unicode="&#x2c6;" horiz-adv-x="397" 
d="M354 597h-99l-57 92l-57 -92h-98l104 154h103z" />
    <glyph glyph-name="caron" unicode="&#x2c7;" horiz-adv-x="397" 
d="M255 751h99l-104 -154h-103l-104 154h98l57 -93z" />
    <glyph glyph-name="breve" unicode="&#x2d8;" horiz-adv-x="361" 
d="M319 719q0 -57 -38.5 -94t-100 -37t-99.5 37t-38 94h72q-1 -27 17 -43.5t49 -16.5q30 0 47.5 16.5t18.5 43.5h72z" />
    <glyph glyph-name="dotaccent" unicode="&#x2d9;" horiz-adv-x="187" 
d="M146 709l-1 -105h-104v105h105z" />
    <glyph glyph-name="ring" unicode="&#x2da;" horiz-adv-x="291" 
d="M145 777q43 0 73 -30.5t30 -73t-30 -73t-72.5 -30.5t-72.5 30.5t-30 72.5q0 44 30 74t72 30zM145 722q-19 0 -31.5 -14t-12.5 -34.5t13 -35t31.5 -14.5t31.5 14.5t13 35t-13 34.5t-32 14z" />
    <glyph glyph-name="ogonek" unicode="&#x2db;" horiz-adv-x="255" 
d="M184 3q-41 -26 -59.5 -58t-8.5 -60q11 -32 50 -32q25 0 47 11v-52q-34 -13 -66 -13q-81 1 -100 63q-11 35 6 74.5t62 66.5h69z" />
    <glyph glyph-name="tilde" unicode="&#x2dc;" horiz-adv-x="379" 
d="M336 719q-2 -49 -21 -79.5t-47 -39.5q-40 -12 -94 26q-12 9 -16.5 12t-12 6t-10.5 0q-15 -6 -21 -47h-71q3 49 21 79t46 40q41 13 94 -26q29 -21 40 -17q15 5 21 46h71z" />
    <glyph glyph-name="hungarumlaut" unicode="&#x2dd;" horiz-adv-x="454" 
d="M243 751l-111 -154h-89l90 154h110zM411 751l-111 -154h-89l90 154h110z" />
    <glyph glyph-name="gravecomb" unicode="&#x300;" horiz-adv-x="0" 
d="M-135 751l92 -154h-91l-113 154h112z" />
    <glyph glyph-name="acutecomb" unicode="&#x301;" horiz-adv-x="0" 
d="M-43 751l-112 -154h-92l92 154h112z" />
    <glyph glyph-name="uni0302" unicode="&#x302;" horiz-adv-x="0" 
d="M-43 597h-98l-57 92l-57 -92h-99l104 154h103z" />
    <glyph glyph-name="tildecomb" unicode="&#x303;" horiz-adv-x="0" 
d="M-43 719q-3 -49 -21.5 -79.5t-46.5 -39.5q-40 -12 -94 26q-12 9 -16.5 12t-12 6t-10.5 0q-15 -6 -21 -47h-71q2 49 20.5 79t46.5 40q41 13 94 -26q29 -21 40 -17q15 5 21 46h71z" />
    <glyph glyph-name="uni0304" unicode="&#x304;" horiz-adv-x="0" 
d="M-335 691h292v-80h-292v80z" />
    <glyph glyph-name="uni0306" unicode="&#x306;" horiz-adv-x="0" 
d="M-43 719q0 -57 -38.5 -94t-99.5 -37t-99 37t-39 94h72q0 -27 17.5 -43.5t48.5 -16.5t48.5 16.5t17.5 43.5h72z" />
    <glyph glyph-name="uni0307" unicode="&#x307;" horiz-adv-x="0" 
d="M-41 709v-105h-105l1 105h104z" />
    <glyph glyph-name="uni0308" unicode="&#x308;" horiz-adv-x="0" 
d="M-226 709v-105h-104v105h104zM-41 709v-105h-105l1 105h104z" />
    <glyph glyph-name="uni030A" unicode="&#x30a;" horiz-adv-x="0" 
d="M-145 777q42 0 72 -30.5t30 -73t-30 -73t-72.5 -30.5t-72.5 30.5t-30 72.5q0 44 30 74t73 30zM-146 722q-18 0 -31 -14t-13 -34.5t13 -35t31.5 -14.5t31.5 14.5t13 35t-13 34.5t-32 14z" />
    <glyph glyph-name="uni030B" unicode="&#x30b;" horiz-adv-x="0" 
d="M-211 751l-110 -154h-90l90 154h110zM-43 751l-110 -154h-90l90 154h110z" />
    <glyph glyph-name="uni030C" unicode="&#x30c;" horiz-adv-x="0" 
d="M-141 751h98l-104 -154h-103l-104 154h99l57 -93z" />
    <glyph glyph-name="uni0312" unicode="&#x312;" horiz-adv-x="0" 
d="M-93 780v-74q-25 1 -36 -8t-11 -31v-71h-100v79q0 62 31.5 88t115.5 17z" />
    <glyph glyph-name="uni0326" unicode="&#x326;" horiz-adv-x="0" 
d="M-195 -250v75q25 -1 36.5 8t11.5 31v70h100v-78q0 -62 -31.5 -88t-116.5 -18z" />
    <glyph glyph-name="uni0327" unicode="&#x327;" horiz-adv-x="0" 
d="M-113 -52q35 -4 52.5 -21.5t17.5 -55.5q0 -41 -26.5 -58t-78.5 -17q-40 0 -83 5v52q40 -4 73 -4q29 0 38.5 6.5t9.5 23.5t-10 24.5t-36 7.5h-43l51 92h70z" />
    <glyph glyph-name="uni0328" unicode="&#x328;" horiz-adv-x="0" 
d="M-72 3q-41 -26 -59.5 -58t-8.5 -60q12 -32 51 -32q25 0 46 11v-52q-33 -13 -66 -13q-80 1 -99 63q-11 35 5.5 74.5t61.5 66.5h69z" />
    <glyph glyph-name="uni0335" unicode="&#x335;" horiz-adv-x="0" 
d="M-532 333h473v-86h-473v86z" />
    <glyph glyph-name="uni0337" unicode="&#x337;" horiz-adv-x="0" 
d="M-43 542l-196 -554h-97l196 554h97z" />
    <glyph glyph-name="uni0338" unicode="&#x338;" horiz-adv-x="0" 
d="M-43 712l-256 -724h-98l257 724h97z" />
    <glyph glyph-name="uni0394" unicode="&#x394;" horiz-adv-x="600" 
 />
    <glyph glyph-name="uni03A9" unicode="&#x3a9;" horiz-adv-x="600" 
 />
    <glyph glyph-name="uni03BC" unicode="&#x3bc;" horiz-adv-x="600" 
 />
    <glyph glyph-name="pi" unicode="&#x3c0;" horiz-adv-x="600" 
 />
    <glyph glyph-name="Wgrave" unicode="&#x1e80;" horiz-adv-x="878" 
d="M485 767h-91l-113 154h112zM839 700l-156 -700h-41h-98l-105 458l-104 -458h-99h-41l-156 700h119l112 -551l106 463h126l106 -463l112 551h119z" />
    <glyph glyph-name="wgrave" unicode="&#x1e81;" horiz-adv-x="791" 
d="M442 597h-92l-113 154h112zM642 530h112l-143 -530h-121l-95 326l-94 -326h-121l-143 530h112l95 -398l98 347h107l98 -347z" />
    <glyph glyph-name="Wacute" unicode="&#x1e82;" horiz-adv-x="878" 
d="M600 921l-113 -154h-92l93 154h112zM839 700l-156 -700h-41h-98l-105 458l-104 -458h-99h-41l-156 700h119l112 -551l106 463h126l106 -463l112 551h119z" />
    <glyph glyph-name="wacute" unicode="&#x1e83;" horiz-adv-x="791" 
d="M556 751l-113 -154h-92l93 154h112zM642 530h112l-143 -530h-121l-95 326l-94 -326h-121l-143 530h112l95 -398l98 347h107l98 -347z" />
    <glyph glyph-name="Wdieresis" unicode="&#x1e84;" horiz-adv-x="878" 
d="M399 879v-105h-104v105h104zM583 879v-105h-104v105h104zM839 700l-156 -700h-41h-98l-105 458l-104 -458h-99h-41l-156 700h119l112 -551l106 463h126l106 -463l112 551h119z" />
    <glyph glyph-name="wdieresis" unicode="&#x1e85;" horiz-adv-x="791" 
d="M355 709v-105h-104v105h104zM539 709v-105h-104v105h104zM642 530h112l-143 -530h-121l-95 326l-94 -326h-121l-143 530h112l95 -398l98 347h107l98 -347z" />
    <glyph glyph-name="Ygrave" unicode="&#x1ef2;" horiz-adv-x="645" 
d="M368 767h-92l-112 154h112zM606 700l-226 -431v-269h-116l1 269l-226 431h125l158 -310l159 310h125z" />
    <glyph glyph-name="ygrave" unicode="&#x1ef3;" horiz-adv-x="581" 
d="M337 597h-92l-113 154h112zM432 530h112l-227 -623q-17 -48 -56 -76t-92 -28h-56v86h42q55 0 73 53l31 89l-222 499h114l156 -359z" />
    <glyph glyph-name="uni2009" unicode="&#x2009;" horiz-adv-x="200" 
 />
    <glyph glyph-name="endash" unicode="&#x2013;" horiz-adv-x="591" 
d="M59 333h473v-86h-473v86z" />
    <glyph glyph-name="emdash" unicode="&#x2014;" horiz-adv-x="880" 
d="M59 333h762v-86h-762v86z" />
    <glyph glyph-name="quoteleft" unicode="&#x2018;" horiz-adv-x="284" 
d="M59 481l92 257h93l-64 -257h-121z" />
    <glyph glyph-name="quoteright" unicode="&#x2019;" horiz-adv-x="284" 
d="M39 481l64 257h121l-92 -257h-93z" />
    <glyph glyph-name="quotesinglbase" unicode="&#x201a;" horiz-adv-x="284" 
d="M39 -146l64 257h121l-92 -257h-93z" />
    <glyph glyph-name="quotedblleft" unicode="&#x201c;" horiz-adv-x="475" 
d="M59 481l92 257h93l-64 -257h-121zM251 481l92 257h93l-64 -257h-121z" />
    <glyph glyph-name="quotedblright" unicode="&#x201d;" horiz-adv-x="475" 
d="M39 481l64 257h121l-92 -257h-93zM231 481l64 257h121l-92 -257h-93z" />
    <glyph glyph-name="quotedblbase" unicode="&#x201e;" horiz-adv-x="475" 
d="M39 -146l64 257h121l-92 -257h-93zM231 -146l64 257h121l-92 -257h-93z" />
    <glyph glyph-name="dagger" unicode="&#x2020;" horiz-adv-x="598" 
d="M536 527v-93h-184v-562h-106v562h-183v93h183v185h106v-185h184z" />
    <glyph glyph-name="daggerdbl" unicode="&#x2021;" horiz-adv-x="598" 
d="M536 434h-184v-284h184v-93h-184v-185h-106v185h-183v93h183v284h-183v93h183v185h106v-185h184v-93z" />
    <glyph glyph-name="bullet" unicode="&#x2022;" horiz-adv-x="403" 
d="M324 453v-245h-245v245h245z" />
    <glyph glyph-name="ellipsis" unicode="&#x2026;" horiz-adv-x="873" 
d="M176 131v-131h-117v131h117zM495 131v-131h-117v131h117zM814 131v-131h-117v131h117z" />
    <glyph glyph-name="perthousand" unicode="&#x2030;" horiz-adv-x="1254" 
d="M218.5 712q89.5 0 122.5 -51.5t33 -157t-33 -156.5t-122.5 -51t-122.5 51t-33 156.5t33 157t122.5 51.5zM690 712l-405 -724h-88l402 724h91zM218.5 645q-44.5 0 -59.5 -30t-15 -111t15 -111t59.5 -30t59 30t14.5 111t-14.5 111t-59 30zM673.5 404q89.5 0 122.5 -51.5
t33 -156.5t-33 -156.5t-122.5 -51.5t-122.5 51.5t-33 156.5t33 156.5t122.5 51.5zM1036 404q89 0 122.5 -51.5t33.5 -156.5t-33.5 -156.5t-122.5 -51.5t-122.5 51.5t-33.5 156.5t33.5 156.5t122.5 51.5zM673.5 337q-44.5 0 -59.5 -30t-15 -111t15 -111t59.5 -30t59.5 30
t15 111t-15 111t-59.5 30zM1036.5 337q-44.5 0 -59.5 -30t-15 -111t15 -111t59.5 -30t59 30t14.5 111t-14.5 111t-59 30z" />
    <glyph glyph-name="guilsinglleft" unicode="&#x2039;" horiz-adv-x="360" 
d="M317 476l-146 -210l146 -209h-109l-149 209l149 210h109z" />
    <glyph glyph-name="guilsinglright" unicode="&#x203a;" horiz-adv-x="360" 
d="M152 476l149 -210l-149 -209h-109l146 209l-146 210h109z" />
    <glyph glyph-name="fraction" unicode="&#x2044;" horiz-adv-x="577" 
d="M538 712l-404 -724h-91l402 724h93z" />
    <glyph glyph-name="Euro" unicode="&#x20ac;" horiz-adv-x="591" 
d="M203 245q11 -84 49.5 -119t123.5 -35q70 0 156 20v-102q-92 -21 -168 -21q-72 0 -123.5 16.5t-84 50.5t-49.5 80t-24 110h-70v74h65v31v22h-65v74h69q6 67 23.5 114.5t50 82.5t84 52t124.5 17q79 0 168 -21v-103q-87 21 -155 21q-88 0 -126.5 -37t-48.5 -126h254v-74
h-258v-22v-31h258v-74h-253z" />
    <glyph glyph-name="trademark" unicode="&#x2122;" horiz-adv-x="778" 
d="M36 700h261v-63h-92v-307h-76v307h-93v63zM692 700l24 -370h-75l-13 220l-69 -166h-65l-69 166l-13 -220h-75l24 370h79l86 -214l87 214h79z" />
    <glyph glyph-name="oneeighth" unicode="&#x215b;" horiz-adv-x="799" 
d="M491 712h93l-404 -724h-91zM105 299v335l-93 -25v63l93 28h79v-401h-79zM710 208q59 -26 59 -100q0 -63 -38.5 -89t-116 -26t-116 26t-38.5 88q0 75 58 101q-50 24 -50 91q0 60 36.5 84.5t109.5 24.5t109 -24.5t36 -84.5q0 -67 -49 -91zM614 344q-40 0 -56 -11.5
t-16 -41.5q0 -31 16 -42.5t56 -11.5t56 11.5t16 42t-16 42t-56 11.5zM614 59q42 0 60 13t18 47q0 33 -18 46t-60 13t-60 -13t-18 -46.5t18 -46.5t60 -13z" />
    <glyph glyph-name="threeeighths" unicode="&#x215c;" horiz-adv-x="861" 
d="M569 712h93l-404 -724h-91zM303 407q0 -63 -38.5 -88.5t-115.5 -25.5q-54 0 -120 8v69q65 -8 113 -8q46 0 63.5 13t17.5 45q0 30 -16.5 43t-55.5 13h-70v61h65q39 0 55 11.5t16 38.5q-1 29 -17 40t-58 11q-46 0 -107 -8v68q63 10 114 10q73 0 109 -25t36 -85
q0 -68 -51 -92q60 -24 60 -99zM772 208q59 -26 59 -100q0 -63 -38.5 -89t-116 -26t-116 26t-38.5 88q0 75 58 101q-50 24 -50 91q0 60 36.5 84.5t109.5 24.5t109.5 -24.5t36.5 -84.5q0 -67 -50 -91zM676 344q-40 0 -56 -11.5t-16 -41.5q0 -31 16 -42.5t56 -11.5t56.5 11.5
t16.5 42t-16.5 42t-56.5 11.5zM676 59q42 0 60 13t18 47q0 33 -18 46t-60 13t-59.5 -13t-17.5 -46.5t17.5 -46.5t59.5 -13z" />
    <glyph glyph-name="fiveeighths" unicode="&#x215d;" horiz-adv-x="867" 
d="M568 712h92l-404 -724h-91zM301 425q0 -72 -38.5 -102t-119.5 -30q-49 0 -113 7v66q63 -5 107 -5q46 0 64.5 13.5t18.5 49.5t-18.5 50t-65.5 14q-61 0 -96 -4v32v184h4h75h166v-66h-166v-84h26q81 0 118.5 -28t37.5 -97zM778 208q59 -26 59 -100q0 -63 -39 -89t-116 -26
t-116 26t-39 88q0 75 59 101q-50 24 -50 91q0 60 36.5 84.5t109.5 24.5t109 -24.5t36 -84.5q0 -67 -49 -91zM682 344q-40 0 -56 -11.5t-16 -41.5q0 -31 16 -42.5t56 -11.5q39 0 55.5 11.5t16.5 42t-16 42t-56 11.5zM682 59q42 0 59.5 13t17.5 47q0 33 -17.5 46t-59.5 13
t-60 -13t-18 -46.5t18 -46.5t60 -13z" />
    <glyph glyph-name="seveneighths" unicode="&#x215e;" horiz-adv-x="785" 
d="M477 712h93l-405 -724h-90zM132 300h-82l160 334h-198v66h279v-66zM696 208q59 -26 59 -100q0 -63 -39 -89t-116 -26t-116 26t-39 88q0 75 59 101q-50 24 -50 91q0 60 36.5 84.5t109.5 24.5t109 -24.5t36 -84.5q0 -67 -49 -91zM600 344q-40 0 -56 -11.5t-16 -41.5
q0 -31 16 -42.5t56 -11.5t56 11.5t16 42t-16 42t-56 11.5zM600 59q42 0 60 13t18 47q0 33 -18 46t-60 13t-60 -13t-18 -46.5t18 -46.5t60 -13z" />
    <glyph glyph-name="partialdiff" unicode="&#x2202;" horiz-adv-x="600" 
 />
    <glyph glyph-name="emptyset" unicode="&#x2205;" horiz-adv-x="600" 
 />
    <glyph glyph-name="product" unicode="&#x220f;" horiz-adv-x="600" 
 />
    <glyph glyph-name="summation" unicode="&#x2211;" horiz-adv-x="600" 
 />
    <glyph glyph-name="minus" unicode="&#x2212;" horiz-adv-x="613" 
d="M550 339v-87h-487v86z" />
    <glyph glyph-name="radical" unicode="&#x221a;" horiz-adv-x="600" 
 />
    <glyph glyph-name="infinity" unicode="&#x221e;" horiz-adv-x="600" 
 />
    <glyph glyph-name="integral" unicode="&#x222b;" horiz-adv-x="600" 
 />
    <glyph glyph-name="approxequal" unicode="&#x2248;" horiz-adv-x="617" 
d="M155 328h-92q16 137 108 165q16 5 33 6t33.5 -3t29.5 -8.5t27.5 -13.5l22 -14l19.5 -13q31 -23 49.5 -30.5t34.5 -0.5q30 14 42 79h93q-16 -137 -108 -165q-17 -5 -34 -6t-33 3t-29 8.5t-28 13.5l-23.5 14.5t-20.5 14.5q-28 20 -47 28t-35 1q-30 -14 -42 -79zM155 115
h-92q16 137 108 165q16 5 33 6t33.5 -3t29.5 -8.5t27.5 -13t22 -14t19.5 -13.5q31 -23 49.5 -30.5t34.5 -0.5q30 14 42 79h93q-16 -137 -108 -165q-17 -5 -34 -6t-33 3t-29 9t-28 13.5t-23.5 14t-20.5 14.5q-28 20 -47 28t-35 1q-30 -13 -42 -79z" />
    <glyph glyph-name="notequal" unicode="&#x2260;" horiz-adv-x="613" 
d="M550 353h-173l-43 -120h216v-86h-247l-56 -159h-98l57 159h-143v86h174l42 120h-216v86h247l56 159h98l-57 -159h143v-86z" />
    <glyph glyph-name="lessequal" unicode="&#x2264;" horiz-adv-x="605" 
d="M558 603v-101l-370 -142l370 -141v-101l-495 194v96zM63 -12v87h495v-87h-495z" />
    <glyph glyph-name="greaterequal" unicode="&#x2265;" horiz-adv-x="605" 
d="M46 603l496 -195v-96l-496 -194v101l370 141l-370 142v101zM46 -12v87h496v-87h-496z" />
    <glyph glyph-name="lozenge" unicode="&#x25ca;" horiz-adv-x="600" 
 />
    <glyph glyph-name="a.ss01" 
d="M534 0h-96l-5 44q-52 -31 -90.5 -43.5t-80.5 -12.5q-107 0 -149 69t-42 207q0 68 9 116.5t30 86.5t59 56.5t93 18.5q41 0 78.5 -12t87.5 -41v41h106v-530zM180 265q0 -102 24 -143t91 -41q29 0 57 10t76 38v272q-48 28 -76.5 38t-56.5 10q-67 0 -91 -41t-24 -143z" />
    <glyph glyph-name="aacute.ss01" 
d="M472 751l-113 -154h-91l92 154h112zM534 0h-96l-5 44q-52 -31 -90.5 -43.5t-80.5 -12.5q-107 0 -149 69t-42 207q0 68 9 116.5t30 86.5t59 56.5t93 18.5q41 0 78.5 -12t87.5 -41v41h106v-530zM180 265q0 -102 24 -143t91 -41q29 0 57 10t76 38v272q-48 28 -76.5 38
t-56.5 10q-67 0 -91 -41t-24 -143z" />
    <glyph glyph-name="abreve.ss01" 
d="M311.5 588q-61.5 0 -99.5 37t-38 94h72q-1 -27 17 -43.5t49 -16.5q30 0 47.5 16.5t18.5 43.5h72q0 -57 -38.5 -94t-100 -37zM534 0h-96l-5 44q-52 -31 -90.5 -43.5t-80.5 -12.5q-107 0 -149 69t-42 207q0 68 9 116.5t30 86.5t59 56.5t93 18.5q41 0 78.5 -12t87.5 -41v41
h106v-530zM180 265q0 -102 24 -143t91 -41q29 0 57 10t76 38v272q-48 28 -76.5 38t-56.5 10q-67 0 -91 -41t-24 -143z" />
    <glyph glyph-name="uni01CE.ss01" 
d="M260 597l-104 154h99l57 -93l57 93h98l-104 -154h-103zM534 0h-96l-5 44q-52 -31 -90.5 -43.5t-80.5 -12.5q-107 0 -149 69t-42 207q0 68 9 116.5t30 86.5t59 56.5t93 18.5q41 0 78.5 -12t87.5 -41v41h106v-530zM180 265q0 -102 24 -143t91 -41q29 0 57 10t76 38v272
q-48 28 -76.5 38t-56.5 10q-67 0 -91 -41t-24 -143z" />
    <glyph glyph-name="acircumflex.ss01" 
d="M312 689l-57 -92h-99l104 154h103l104 -154h-98zM534 0h-96l-5 44q-52 -31 -90.5 -43.5t-80.5 -12.5q-107 0 -149 69t-42 207q0 68 9 116.5t30 86.5t59 56.5t93 18.5q41 0 78.5 -12t87.5 -41v41h106v-530zM180 265q0 -102 24 -143t91 -41q29 0 57 10t76 38v272
q-48 28 -76.5 38t-56.5 10q-67 0 -91 -41t-24 -143z" />
    <glyph glyph-name="adieresis.ss01" 
d="M272 709v-105h-105l1 105h104zM456 709v-105h-104v105h104zM534 0h-96l-5 44q-52 -31 -90.5 -43.5t-80.5 -12.5q-107 0 -149 69t-42 207q0 68 9 116.5t30 86.5t59 56.5t93 18.5q41 0 78.5 -12t87.5 -41v41h106v-530zM180 265q0 -102 24 -143t91 -41q29 0 57 10t76 38v272
q-48 28 -76.5 38t-56.5 10q-67 0 -91 -41t-24 -143z" />
    <glyph glyph-name="agrave.ss01" 
d="M358 597h-92l-112 154h112zM534 0h-96l-5 44q-52 -31 -90.5 -43.5t-80.5 -12.5q-107 0 -149 69t-42 207q0 68 9 116.5t30 86.5t59 56.5t93 18.5q41 0 78.5 -12t87.5 -41v41h106v-530zM180 265q0 -102 24 -143t91 -41q29 0 57 10t76 38v272q-48 28 -76.5 38t-56.5 10
q-67 0 -91 -41t-24 -143z" />
    <glyph glyph-name="amacron.ss01" 
d="M458 691v-80h-292v80h292zM534 0h-96l-5 44q-52 -31 -90.5 -43.5t-80.5 -12.5q-107 0 -149 69t-42 207q0 68 9 116.5t30 86.5t59 56.5t93 18.5q41 0 78.5 -12t87.5 -41v41h106v-530zM180 265q0 -102 24 -143t91 -41q29 0 57 10t76 38v272q-48 28 -76.5 38t-56.5 10
q-67 0 -91 -41t-24 -143z" />
    <glyph glyph-name="aogonek.ss01" 
d="M495 -147q26 0 47 11v-52q-34 -13 -66 -13q-80 1 -100 63q-10 34 5 72t57 66l-5 44q-52 -31 -90.5 -43.5t-80.5 -12.5q-107 0 -149 69t-42 207q0 68 9 116.5t30 86.5t59 56.5t93 18.5q41 0 78.5 -12t87.5 -41v41h106v-530h-26q-39 -26 -56 -57t-7 -58q11 -32 50 -32z
M180 265q0 -102 24 -143t91 -41q29 0 57 10t76 38v272q-48 28 -76.5 38t-56.5 10q-67 0 -91 -41t-24 -143z" />
    <glyph glyph-name="aring.ss01" 
d="M311.5 570q-42.5 0 -72.5 30.5t-30 72.5q0 44 30 74t73 30q42 0 72 -30.5t30 -73t-30 -73t-72.5 -30.5zM311 722q-18 0 -31 -14t-13 -34.5t13 -35t31.5 -14.5t31.5 14.5t13 35t-13 34.5t-32 14zM534 0h-96l-5 44q-52 -31 -90.5 -43.5t-80.5 -12.5q-107 0 -149 69t-42 207
q0 68 9 116.5t30 86.5t59 56.5t93 18.5q41 0 78.5 -12t87.5 -41v41h106v-530zM180 265q0 -102 24 -143t91 -41q29 0 57 10t76 38v272q-48 28 -76.5 38t-56.5 10q-67 0 -91 -41t-24 -143z" />
    <glyph glyph-name="atilde.ss01" 
d="M257 644q-15 -6 -21 -47h-71q3 49 21 79t46 40q41 13 95 -26q28 -21 39 -17q15 5 21 46h71q-2 -49 -21 -79.5t-47 -39.5q-39 -12 -94 26q-12 9 -16.5 12t-12 6t-10.5 0zM534 0h-96l-5 44q-52 -31 -90.5 -43.5t-80.5 -12.5q-107 0 -149 69t-42 207q0 68 9 116.5t30 86.5
t59 56.5t93 18.5q41 0 78.5 -12t87.5 -41v41h106v-530zM180 265q0 -102 24 -143t91 -41q29 0 57 10t76 38v272q-48 28 -76.5 38t-56.5 10q-67 0 -91 -41t-24 -143z" />
    <glyph glyph-name="g.ss01" horiz-adv-x="612" 
d="M311 89q57 0 95.5 -3.5t72 -13t52.5 -26.5t29 -44.5t10 -67.5q0 -85 -64 -120t-195 -35t-195.5 35t-64.5 120q0 88 64 132q-18 37 -2 83l11 33q-70 49 -70 159q0 201 242 201q62 0 107 -13h167v-75l-56 -7q23 -43 23 -106q0 -201 -241 -201q-44 0 -80 6l-5 -15
q-6 -19 1.5 -30.5t26.5 -11.5h72zM296 458q-71 0 -102.5 -26t-31.5 -90t31.5 -89.5t102.5 -25.5t102 26t31 89q0 67 -30.5 91.5t-102.5 24.5zM311 -136q88 0 120 15t32 55q0 20 -3.5 31.5t-11.5 20t-26.5 12t-43 5t-67.5 1.5h-78q-20 0 -37 4q-38 -21 -38 -74q0 -40 33 -55
t120 -15z" />
    <glyph glyph-name="gbreve.ss01" horiz-adv-x="612" 
d="M295.5 588q-61.5 0 -99.5 37t-38 94h72q0 -27 17.5 -43.5t48.5 -16.5q30 0 48 16.5t18 43.5h72q0 -57 -38.5 -94t-100 -37zM311 89q57 0 95.5 -3.5t72 -13t52.5 -26.5t29.5 -44.5t10.5 -67.5q0 -85 -64.5 -120t-195.5 -35t-195.5 35t-64.5 120q0 88 64 132q-18 37 -2 83
l11 33q-70 49 -70 159q0 201 242 201q62 0 107 -13h168v-75l-57 -7q23 -43 23 -106q0 -201 -241 -201q-44 0 -80 7l-5 -16q-6 -19 1.5 -30.5t26.5 -11.5h72zM296 458q-71 0 -102.5 -26t-31.5 -90t31.5 -89.5t102.5 -25.5t102 26t31 89q0 67 -30.5 91.5t-102.5 24.5z
M311 -136q88 0 120 15t32 55q0 20 -3.5 31.5t-11.5 20t-26.5 12t-43 5t-67.5 1.5h-78q-20 0 -37 4q-38 -21 -38 -74q0 -40 33 -55t120 -15z" />
    <glyph glyph-name="gcommaaccent.ss01" horiz-adv-x="612" 
d="M350 667v-71h-101v79q0 62 31.5 88t116.5 17v-74q-25 1 -36 -8t-11 -31zM311 89q57 0 95.5 -3.5t72 -13t52.5 -26.5t29.5 -44.5t10.5 -67.5q0 -85 -64.5 -120t-195.5 -35t-195.5 35t-64.5 120q0 88 64 132q-18 37 -2 83l11 33q-70 49 -70 159q0 201 242 201q62 0 107 -13
h168v-75l-57 -7q23 -43 23 -106q0 -201 -241 -201q-44 0 -80 7l-5 -16q-6 -19 1.5 -30.5t26.5 -11.5h72zM296 458q-71 0 -102.5 -26t-31.5 -90t31.5 -89.5t102.5 -25.5t102 26t31 89q0 67 -30.5 91.5t-102.5 24.5zM311 -136q88 0 120 15t32 55q0 20 -3.5 31.5t-11.5 20
t-26.5 12t-43 5t-67.5 1.5h-78q-20 0 -37 4q-38 -21 -38 -74q0 -40 33 -55t120 -15z" />
    <glyph glyph-name="gdotaccent.ss01" horiz-adv-x="612" 
d="M348 709v-105h-104v105h104zM311 89q57 0 95.5 -3.5t72 -13t52.5 -26.5t29.5 -44.5t10.5 -67.5q0 -85 -64.5 -120t-195.5 -35t-195.5 35t-64.5 120q0 88 64 132q-18 37 -2 83l11 33q-70 49 -70 159q0 201 242 201q62 0 107 -13h167v-75l-56 -7q23 -43 23 -106
q0 -201 -241 -201q-44 0 -80 6l-5 -15q-6 -19 1.5 -30.5t26.5 -11.5h72zM296 458q-71 0 -102.5 -26t-31.5 -90t31.5 -89.5t102.5 -25.5t102 26t31 89q0 67 -30.5 91.5t-102.5 24.5zM311 -136q88 0 120 15t32 55q0 20 -3.5 31.5t-11.5 20t-26.5 12t-43 5t-67.5 1.5h-78
q-20 0 -37 4q-38 -21 -38 -74q0 -40 33 -55t120 -15z" />
    <glyph glyph-name="i.loclTRK" horiz-adv-x="273" 
d="M189 709v-105h-104v105h104zM192 530v-530h-106v530h106z" />
    <glyph glyph-name="y.ss01" horiz-adv-x="581" 
d="M432 530h112l-264 -727h-100l79 227l-222 500h114l156 -360z" />
    <glyph glyph-name="yacute.ss01" horiz-adv-x="581" 
d="M451 751l-113 -154h-92l93 154h112zM432 530h112l-264 -727h-100l79 227l-222 500h114l156 -360z" />
    <glyph glyph-name="ycircumflex.ss01" horiz-adv-x="581" 
d="M290 689l-57 -92h-98l104 154h103l104 -154h-99zM432 530h112l-264 -727h-100l79 227l-222 500h114l156 -360z" />
    <glyph glyph-name="ydieresis.ss01" horiz-adv-x="581" 
d="M250 709v-105h-104v105h104zM434 709v-105h-104v105h104zM432 530h112l-264 -727h-100l79 227l-222 500h114l156 -360z" />
    <glyph glyph-name="ygrave.ss01" horiz-adv-x="581" 
d="M337 597h-92l-113 154h112zM432 530h112l-264 -727h-100l79 227l-222 500h114l156 -360z" />
    <glyph glyph-name="f_b" horiz-adv-x="975" 
d="M713 542q59 0 99 -18.5t62.5 -56.5t32 -86.5t9.5 -116t-9.5 -116t-32 -86t-62.5 -56t-99 -18.5q-44 0 -84.5 12.5t-96.5 43.5l-6 -44h-95v750h106v-261q54 29 93 41t83 12zM269 750q28 0 65 -5v-88q-24 3 -43 3q-42 0 -59.5 -17t-17.5 -56v-57h111v-82h-111v-448h-106
v448h-83v82h83v73q0 147 161 147zM683 81q72 0 98 41t26 143q0 101 -26 142.5t-97 41.5q-33 0 -64 -10t-83 -39v-270q52 -29 83.5 -39t62.5 -10z" />
    <glyph glyph-name="f_j" horiz-adv-x="618" 
d="M431 530h106v-597q0 -143 -157 -143q-21 0 -40 2v89h19q42 0 57 16.5t15 53.5v497h-217v-448h-106v448h-83v82h83v73q0 147 161 147q28 0 65 -5v-88q-24 3 -43 3q-42 0 -59.5 -17t-17.5 -56v-57h217zM426 713h116v-111h-116v111z" />
    <glyph glyph-name="f_k" horiz-adv-x="922" 
d="M269 750q28 0 65 -5v-88q-24 3 -43 3q-42 0 -59.5 -17t-17.5 -56v-57h111v-82h-111v-448h-106v448h-83v82h83v73q0 147 161 147zM646 270l110 -270h-90h-116l-25 233h-33v82h25l-1 3l-47 128l33 9l-13 122h107l24 -192l120 145h130z" />
    <glyph glyph-name="f_t" horiz-adv-x="712" 
d="M603 77q11 0 44 3v-88q-35 -4 -62 -4q-154 0 -154 135v325h-217v-448h-106v448h-83v82h83v73q0 147 161 147q28 0 65 -5v-88q-24 3 -43 3q-42 0 -59.5 -17t-17.5 -56v-57h135h82v129h106v-129h110v-82h-110v-308q0 -33 16.5 -48t49.5 -15z" />
    <glyph glyph-name="zero.lf" horiz-adv-x="645" 
d="M322.5 713q64.5 0 111.5 -16.5t77 -45t47.5 -75t24 -100t6.5 -126.5t-6.5 -126.5t-24 -100t-47.5 -75t-77 -44.5t-111.5 -16t-111.5 16t-76.5 44.5t-47.5 75t-24.5 100t-6.5 126.5t6.5 126.5t24.5 100t47.5 75t76.5 45t111.5 16.5zM322.5 610q-86.5 0 -116.5 -57
t-30 -203t30 -203t116.5 -57t116.5 57t30 203t-30 203t-116.5 57z" />
    <glyph glyph-name="one.lf" horiz-adv-x="369" 
d="M178 700h116v-700h-116v601l-158 -46v95z" />
    <glyph glyph-name="two.lf" horiz-adv-x="570" 
d="M174 155v-58h336v-97h-455v97v60q0 47 9 78t33 55.5t57 42t90 38.5q39 14 58 21.5t40.5 17.5t29.5 17.5t16 19t9.5 23.5t1.5 31q0 60 -29 84t-112 24t-188 -17v100q106 20 198 20q136 0 192 -53t56 -159q0 -21 -1.5 -39t-7 -33.5l-9.5 -27.5t-15 -24l-18 -20t-24 -17.5
l-27.5 -15.5t-34 -15.5l-37.5 -15l-44 -16.5q-4 -1 -6 -2q-37 -14 -55 -22t-35 -22t-22.5 -31t-5.5 -44z" />
    <glyph glyph-name="three.lf" horiz-adv-x="567" 
d="M410 360q97 -43 97 -173q0 -110 -63.5 -154.5t-192.5 -44.5q-88 0 -198 14v102q108 -14 194 -14q82 0 112 22.5t30 84.5q0 65 -31 91.5t-108 27.5h-97v91h95q73 0 101 23t28 82q0 58 -27.5 78t-103.5 20q-81 0 -182 -15l-1 101q106 17 190 17q120 0 179.5 -43.5
t59.5 -147.5q0 -119 -82 -162z" />
    <glyph glyph-name="four.lf" horiz-adv-x="617" 
d="M569 258v-96h-87v-162h-116v162h-330v96l325 442h5h116v-442h87zM158 258h208v292z" />
    <glyph glyph-name="five.lf" horiz-adv-x="563" 
d="M249 431q134 0 196.5 -49.5t62.5 -168.5q0 -123 -64 -174t-198 -51q-83 0 -191 13v97q106 -11 184 -11q88 0 119.5 25.5t31.5 100.5t-31 100.5t-117 25.5q-91 0 -171 -9v48v322h13h399v-96h-296v-174q32 1 62 1z" />
    <glyph glyph-name="six.lf" horiz-adv-x="618" 
d="M305 439q134 0 198 -52t64 -173q0 -122 -63 -174t-179 -52q-65 0 -112 15.5t-77.5 44t-48 75t-24.5 100.5t-7 128t6.5 127t24.5 99.5t48.5 75t78.5 44.5t114 16q79 0 179 -16v-102q-104 15 -177 15q-80 -1 -113 -40.5t-40 -136.5q78 6 128 6zM324 89q65 0 95 27.5
t30 100.5q0 77 -33.5 104.5t-110.5 27.5q-51 0 -131 -9q1 -141 31 -196t119 -55z" />
    <glyph glyph-name="seven.lf" horiz-adv-x="525" 
d="M23 700h463v-96l-274 -604h-122l278 604h-345v96z" />
    <glyph glyph-name="eight.lf" horiz-adv-x="621" 
d="M470 362q95 -44 95 -174q0 -110 -63.5 -155.5t-191 -45.5t-191 45.5t-63.5 155.5q0 130 95 174q-80 43 -80 160q0 104 59.5 147t180 43t180 -43t59.5 -147q0 -117 -80 -160zM310 615q-74 0 -101 -21t-27 -82.5t27 -83t101 -21.5t101.5 21.5t27.5 83t-27.5 82.5t-101.5 21
zM310.5 87q79.5 0 109.5 24t30 91.5t-30 91.5t-109.5 24t-109.5 -24t-30 -91.5t30 -91.5t109.5 -24z" />
    <glyph glyph-name="nine.lf" horiz-adv-x="618" 
d="M293 713q65 0 112 -16t77.5 -44.5t48 -75t24.5 -100.5t7 -128t-7 -127t-24.5 -99.5t-48 -74.5t-78.5 -44t-115 -16q-80 0 -178 16v102q101 -16 177 -15q82 0 115 42t39 148q-79 -6 -129 -6q-134 0 -198 50t-64 168t63 169t179 51zM169 489q0 -74 33 -100t111 -26
q51 0 130 8q-1 135 -31.5 188t-117.5 53q-66 0 -95.5 -26.5t-29.5 -96.5z" />
    <glyph glyph-name="zero.osf" horiz-adv-x="645" 
d="M322.5 540q78.5 0 131 -18t80.5 -55t39 -84.5t11 -117.5t-11 -117.5t-39 -84.5t-80.5 -54.5t-131 -17.5t-131 17.5t-80.5 54.5t-39 84.5t-11 117.5t11 117.5t39 84.5t80.5 55t131 18zM322.5 437q-83.5 0 -112.5 -37.5t-29 -134.5t29 -134.5t112.5 -37.5t112.5 37.5
t29 134.5t-29 134.5t-112.5 37.5z" />
    <glyph glyph-name="one.osf" horiz-adv-x="369" 
d="M176 530h116v-530h-116v432l-148 -32v94z" />
    <glyph glyph-name="two.osf" horiz-adv-x="570" 
d="M292 195q-67 -17 -90 -30t-24 -43v-24h327v-98h-446v98v27q0 65 39.5 98t146.5 62q8 2 21 6q83 23 105.5 35.5t22.5 44.5q0 38 -27.5 53t-108.5 14q-76 1 -183 -13v100q106 14 193 14q133 0 188 -41.5t55 -125.5q0 -34 -9 -59t-23 -42t-43.5 -31t-60.5 -23t-83 -22z" />
    <glyph glyph-name="three.osf" horiz-adv-x="567" 
d="M507 31q0 -106 -63.5 -149.5t-192.5 -43.5q-88 0 -198 14v102q108 -13 194 -13q82 0 112 20.5t30 80.5q0 62 -31 87.5t-108 25.5h-97v92h95q73 0 101 21.5t28 77.5q0 55 -27.5 74t-103.5 19q-84 0 -182 -13l-1 100q104 16 190 16q120 0 179.5 -42t59.5 -143
q0 -115 -81 -157q96 -42 96 -169z" />
    <glyph glyph-name="four.osf" horiz-adv-x="617" 
d="M569 102v-95h-87v-157h-116v157h-330v95l325 428h121v-428h87zM159 102h207v281z" />
    <glyph glyph-name="five.osf" horiz-adv-x="563" 
d="M249 270q134 0 196.5 -48t62.5 -165q0 -119 -64 -169t-198 -50q-83 0 -191 13v97q106 -11 184 -11q88 0 119.5 24.5t31.5 95.5q0 72 -31 96t-117 25q-93 -1 -171 -9v48v313h13h399v-97h-296v-165q33 2 62 2z" />
    <glyph glyph-name="six.osf" horiz-adv-x="618" 
d="M305 427q134 0 198 -50.5t64 -168.5q0 -119 -63 -169.5t-179 -50.5q-65 0 -112 15.5t-77.5 43t-48 72.5t-24.5 97.5t-7 124.5t6.5 123.5t24.5 96.5t48.5 72.5t78.5 43t114 15.5q81 0 179 -15v-102q-102 15 -178 14q-78 0 -111.5 -37.5t-40.5 -129.5q78 5 128 5zM324 89
q65 0 95 26t30 96q0 74 -33.5 100t-110.5 26q-52 0 -131 -8q1 -135 31 -187.5t119 -52.5z" />
    <glyph glyph-name="seven.osf" horiz-adv-x="525" 
d="M23 530h463v-97l-274 -583h-122l278 583h-345v97z" />
    <glyph glyph-name="eight.osf" horiz-adv-x="621" 
d="M471 352q94 -43 94 -169q0 -107 -63.5 -151t-191 -44t-191 44t-63.5 151q0 126 94 169q-79 42 -79 155q0 101 59.5 143t180 42t180 -42t59.5 -143q0 -113 -79 -155zM310 595q-74 0 -101 -20.5t-27 -79t27 -78.5t101 -20t101.5 20t27.5 78.5t-27.5 79t-101.5 20.5z
M310.5 87q79.5 0 109.5 23t30 87.5t-30 87t-109.5 22.5t-109.5 -22.5t-30 -87t30 -87.5t109.5 -23z" />
    <glyph glyph-name="nine.osf" horiz-adv-x="618" 
d="M293 542q65 0 112 -15.5t77.5 -43t48 -72.5t24.5 -97.5t7 -124.5t-7 -123.5t-24.5 -96.5t-48 -72.5t-78.5 -43t-115 -15.5q-80 0 -178 15v102q102 -15 177 -14q82 0 115 40t39 140q-78 -6 -129 -6q-134 0 -198 49t-64 164t63 164.5t179 49.5zM169 324q0 -71 33 -95.5
t111 -24.5q52 0 130 7q-1 129 -31.5 179.5t-117.5 50.5q-66 0 -95.5 -25t-29.5 -92z" />
    <glyph glyph-name="zero.tf" horiz-adv-x="575" 
d="M287.5 693q59.5 0 102.5 -15.5t70.5 -43.5t43.5 -73t22.5 -97.5t6.5 -123.5t-6.5 -123t-22.5 -97t-43.5 -73t-70.5 -43.5t-102.5 -15.5t-102.5 15.5t-70.5 43.5t-44 73t-22.5 97t-6 123t6 123.5t22.5 97.5t44 73t70.5 43.5t102.5 15.5zM287 590q-74 0 -99.5 -54.5
t-25.5 -195t25.5 -195t99.5 -54.5t99.5 54.5t25.5 195t-25.5 195t-99.5 54.5z" />
    <glyph glyph-name="one.tf" horiz-adv-x="575" 
d="M316 680h115v-680h-115v583l-282 -46v96z" />
    <glyph glyph-name="two.tf" horiz-adv-x="575" 
d="M174 151v-54h340v-97h-459v97v57q0 45 9.5 75.5t33.5 54.5t58 41t90 37q105 36 130.5 56t25.5 69q0 57 -29 80t-113 23t-189 -16v100q107 19 199 19q136 0 192.5 -51.5t56.5 -154.5q0 -24 -3 -43.5t-6.5 -35t-13.5 -29.5t-18 -24t-25 -21t-29 -18t-37 -17t-42.5 -16
l-50.5 -18q-38 -13 -56 -21t-35 -21t-23 -29.5t-6 -42.5z" />
    <glyph glyph-name="three.tf" horiz-adv-x="575" 
d="M416 350q97 -42 97 -169q0 -106 -64 -149.5t-194 -43.5q-89 0 -201 14v102q110 -13 196 -13q84 0 114.5 20.5t30.5 80.5q0 62 -31 87.5t-110 26.5h-98v91h96q74 0 102.5 21.5t28.5 77.5t-28 75t-106 19q-83 0 -184 -14v101q105 16 191 16q122 0 182.5 -42t60.5 -144
q0 -115 -83 -157z" />
    <glyph glyph-name="four.tf" horiz-adv-x="575" 
d="M535 252v-95h-81v-157h-116v157h-310v95l305 428h121v-428h81zM147 252h191v276z" />
    <glyph glyph-name="five.tf" horiz-adv-x="575" 
d="M255 421q135 0 199 -48.5t64 -165.5q0 -119 -65.5 -169t-201.5 -50q-84 0 -194 13v97q108 -11 188 -11q89 0 122 24.5t33 96.5t-32 96t-121 24q-86 0 -173 -9v49v313h13h405v-97h-302v-165q34 2 65 2z" />
    <glyph glyph-name="six.tf" horiz-adv-x="575" 
d="M284 428q126 0 187 -50.5t61 -168.5q0 -119 -60 -170t-170 -51q-62 0 -106.5 15.5t-73 43t-45.5 72.5t-23.5 98t-6.5 125q0 71 6.5 123t23.5 97t46 72.5t74.5 43t108.5 15.5q75 0 169 -16v-102q-96 15 -168 15q-72 -1 -102.5 -38t-36.5 -129q70 5 116 5zM301 89
q59 0 86 26.5t27 96.5q0 73 -31 99.5t-99 26.5q-47 0 -119 -8q1 -136 28 -188.5t108 -52.5z" />
    <glyph glyph-name="seven.tf" horiz-adv-x="575" 
d="M33 681h493v-97l-297 -584h-122l300 584h-374v97z" />
    <glyph glyph-name="eight.tf" horiz-adv-x="575" 
d="M439 352q89 -43 89 -169q0 -107 -60 -151t-180.5 -44t-180.5 44t-60 151q0 126 88 169q-74 42 -74 156q0 101 56.5 143t170 42t170 -42t56.5 -143q0 -114 -75 -156zM287 596q-67 0 -91.5 -20.5t-24.5 -79t24.5 -79t91.5 -20.5t92 20.5t25 79t-25 79t-92 20.5zM287 87
q72 0 99 23t27 87.5t-27 87.5t-99 23t-99 -23t-27 -87.5t27 -87.5t99 -23z" />
    <glyph glyph-name="nine.tf" horiz-adv-x="575" 
d="M272 693q62 0 106.5 -15.5t73.5 -43t45.5 -73t23 -98t6.5 -124.5q0 -71 -6 -123t-23 -97t-46 -72.5t-74.5 -43t-108.5 -15.5q-75 0 -170 15v102q98 -15 168 -14q75 0 105 40t35 140q-70 -5 -116 -5q-127 0 -188 49t-61 164t60 164.5t170 49.5zM160 475q0 -71 31 -96
t100 -25q47 0 118 7q-1 130 -28.5 180.5t-107.5 50.5q-58 0 -85.5 -25t-27.5 -92z" />
    <glyph glyph-name="zero.tosf" horiz-adv-x="575" 
d="M287.5 541q72.5 0 120.5 -18t74 -55t36 -85t10 -117.5t-10 -117.5t-36 -85t-74 -54.5t-120.5 -17.5t-120.5 17.5t-74 54.5t-36 85t-10 117.5t10 117.5t36 85t74 55t120.5 18zM287 438q-71 0 -95.5 -38t-24.5 -134.5t24.5 -134.5t95.5 -38t96 38t25 134.5t-25 134.5
t-96 38z" />
    <glyph glyph-name="one.tosf" horiz-adv-x="575" 
d="M313 531h116v-531h-116v434l-271 -33v94z" />
    <glyph glyph-name="two.tosf" horiz-adv-x="575" 
d="M179 123v-25h330v-98h-449v98v28q0 65 40 98t148 61q8 3 24 7q82 23 104 35.5t22 44.5q0 38 -28 53t-110 15q-75 0 -184 -14v100q106 14 194 14q134 0 189 -41.5t55 -125.5q0 -35 -8.5 -59.5t-23 -41.5t-44 -31t-60 -23.5t-83.5 -22.5q-69 -17 -92.5 -30t-23.5 -42z" />
    <glyph glyph-name="three.tosf" horiz-adv-x="575" 
d="M416 200q97 -42 97 -169q0 -106 -64 -149.5t-194 -43.5q-89 0 -201 14v102q110 -13 196 -13q84 0 114.5 20.5t30.5 80.5q0 62 -31 87.5t-110 26.5h-98v91h96q74 0 102.5 21.5t28.5 77.5t-28 75t-106 19q-83 0 -184 -14v101q105 16 191 16q122 0 182.5 -42t60.5 -144
q0 -115 -83 -157z" />
    <glyph glyph-name="four.tosf" horiz-adv-x="575" 
d="M535 102v-95h-81v-157h-116v157h-310v95l305 428h121v-428h81zM147 102h191v276z" />
    <glyph glyph-name="five.tosf" horiz-adv-x="575" 
d="M255 270q135 0 199 -48t64 -165q0 -119 -65.5 -169t-201.5 -50q-84 0 -194 12v97q108 -10 188 -10q89 0 122 24.5t33 96.5q0 71 -32 95.5t-121 24.5t-173 -9v49v313h13h405v-97h-302v-166q34 2 65 2z" />
    <glyph glyph-name="six.tosf" horiz-adv-x="575" 
d="M284 428q126 0 187 -50.5t61 -168.5q0 -119 -60 -170t-170 -51q-62 0 -106.5 15.5t-73 43t-45.5 72.5t-23.5 98t-6.5 125q0 71 6.5 123t23.5 97t46 72.5t74.5 43t108.5 15.5q75 0 169 -16v-102q-96 15 -168 15q-72 -1 -102.5 -38t-36.5 -129q70 5 116 5zM301 89
q59 0 86 26.5t27 96.5q0 73 -31 99.5t-99 26.5q-47 0 -119 -8q1 -136 28 -188.5t108 -52.5z" />
    <glyph glyph-name="seven.tosf" horiz-adv-x="575" 
d="M33 531h493v-97l-297 -584h-122l300 584h-374v97z" />
    <glyph glyph-name="eight.tosf" horiz-adv-x="575" 
d="M439 352q89 -43 89 -169q0 -107 -60 -151t-180.5 -44t-180.5 44t-60 151q0 126 88 169q-74 42 -74 156q0 101 56.5 143t170 42t170 -42t56.5 -143q0 -114 -75 -156zM287 596q-67 0 -91.5 -20.5t-24.5 -79t24.5 -79t91.5 -20.5t92 20.5t25 79t-25 79t-92 20.5zM287 87
q72 0 99 23t27 87.5t-27 87.5t-99 23t-99 -23t-27 -87.5t27 -87.5t99 -23z" />
    <glyph glyph-name="nine.tosf" horiz-adv-x="575" 
d="M272 543q62 0 106.5 -15.5t73.5 -43.5t45.5 -73t23 -97.5t6.5 -124.5q0 -71 -6 -123t-23 -97t-46 -72.5t-74.5 -43t-108.5 -15.5q-77 0 -170 15v102q96 -15 168 -14q75 0 105 40t35 140q-70 -5 -116 -5q-127 0 -188 49t-61 163q0 116 60 165.5t170 49.5zM160 324
q0 -70 31 -95t100 -25q47 0 118 7q-1 130 -28.5 180.5t-107.5 50.5q-58 0 -85.5 -25.5t-27.5 -92.5z" />
    <glyph glyph-name="zero.dnom" horiz-adv-x="393" 
d="M196.5 408q49.5 0 82.5 -13.5t51 -42t25 -64t7 -88t-7 -88.5t-25 -64t-51 -41.5t-82.5 -13.5t-83 13.5t-51 41.5t-24.5 64t-7 88.5t7 88.5t24.5 64t51 41.5t83 13.5zM196.5 338q-49.5 0 -67 -30.5t-17.5 -107.5q0 -76 17.5 -107t67 -31t66.5 30.5t17 107.5t-17 107.5
t-66.5 30.5z" />
    <glyph glyph-name="one.dnom" horiz-adv-x="236" 
d="M105 401h79v-401h-79v334l-93 -25v64z" />
    <glyph glyph-name="two.dnom" horiz-adv-x="339" 
d="M113 90v-24h192v-66h-274v66v26q0 51 21 74t91 49q4 2 13 5q45 17 59 27.5t14 36.5q0 29 -16.5 41.5t-61.5 12.5q-45 1 -110 -9v67q64 12 118 12q81 0 115 -31.5t34 -93.5q0 -58 -27.5 -84.5t-102.5 -48.5q-38 -13 -51.5 -24t-13.5 -36z" />
    <glyph glyph-name="three.dnom" horiz-adv-x="340" 
d="M243 206q60 -24 60 -99q0 -62 -38.5 -88t-115.5 -26q-54 0 -120 8v69q65 -8 113 -8q46 0 63.5 13t17.5 45q0 31 -16.5 43.5t-55.5 12.5h-70v61h65q39 0 55 11.5t16 39.5q-1 28 -17 39.5t-58 11.5q-46 0 -107 -8v67q63 10 114 10q73 0 109 -25t36 -85q0 -68 -51 -92z" />
    <glyph glyph-name="four.dnom" horiz-adv-x="375" 
d="M343 156v-65h-52v-91h-79v91h-192v65l190 245h2h79v-245h52zM104 156h108v145z" />
    <glyph glyph-name="five.dnom" horiz-adv-x="333" 
d="M145 251q81 0 118.5 -28t37.5 -98q0 -71 -38.5 -101.5t-119.5 -30.5q-49 0 -113 7v67q63 -6 107 -6q46 0 64.5 13.5t18.5 49.5q0 37 -18.5 50.5t-65.5 13.5q-61 0 -96 -4v32v185h4h75h166v-67h-166v-84q13 1 26 1z" />
    <glyph glyph-name="six.dnom" horiz-adv-x="365" 
d="M184 254q79 0 118 -29t39 -100t-39 -101.5t-109 -30.5q-94 0 -128 50t-34 158q0 53 6.5 88.5t24 64t50.5 42t84 12.5q46 0 107 -9v-70q-66 10 -106 10q-43 -1 -61.5 -20.5t-22.5 -66.5q34 3 71 2zM193 61q33 0 50 14.5t17 51.5q0 40 -19 53.5t-57 13.5q-30 1 -73 -4
q0 -72 16.5 -100.5t65.5 -28.5z" />
    <glyph glyph-name="seven.dnom" horiz-adv-x="322" 
d="M14 401l279 -1v-66l-159 -334h-82l160 334h-198v67z" />
    <glyph glyph-name="eight.dnom" horiz-adv-x="370" 
d="M281 208q59 -26 59 -100q0 -63 -38.5 -89t-116 -26t-116 26t-38.5 88q0 75 58 101q-50 24 -50 91q0 60 36.5 84.5t109.5 24.5t109 -24.5t36 -84.5q0 -67 -49 -91zM185 344q-40 0 -56 -11.5t-16 -41.5q0 -31 16 -42.5t56 -11.5t56 11.5t16 42t-16 42t-56 11.5zM185 59
q42 0 60 13t18 47q0 33 -18 46t-60 13t-60 -13t-18 -46.5t18 -46.5t60 -13z" />
    <glyph glyph-name="nine.dnom" horiz-adv-x="362" 
d="M169 408q49 0 81.5 -13.5t50 -41.5t24.5 -64t7 -90q0 -52 -6.5 -88t-24.5 -64t-51 -41t-83 -13q-48 0 -108 9v70q62 -10 106 -9q44 0 62.5 20.5t22.5 70.5q-42 -3 -71 -2q-81 1 -118.5 28.5t-37.5 96.5q0 71 38 101t108 30zM179 211q30 0 73 4q-1 70 -17 97.5t-64 27.5
q-69 0 -69 -64q0 -40 19.5 -52.5t57.5 -12.5z" />
    <glyph glyph-name="zero.numr" horiz-adv-x="393" 
d="M196.5 707q49.5 0 82.5 -13t51 -41.5t25 -64.5t7 -88.5t-7 -88.5t-25 -64t-51 -41t-82.5 -13t-83 13t-51 41t-24.5 64t-7 88.5t7 88.5t24.5 64.5t51 41.5t83 13zM196.5 638q-49.5 0 -67 -31t-17.5 -107q0 -77 17.5 -107.5t67 -30.5t66.5 30.5t17 107.5t-17 107.5
t-66.5 30.5z" />
    <glyph glyph-name="one.numr" horiz-adv-x="236" 
d="M105 700h79v-400h-79v334l-93 -25v63z" />
    <glyph glyph-name="two.numr" horiz-adv-x="339" 
d="M113 390v-24h192v-66h-274v66v26q0 51 21 74t91 49q4 1 13 5q45 16 59 27t14 37q0 29 -16.5 41t-61.5 13q-45 0 -110 -9v67q64 11 118 11q81 0 115 -31t34 -93q0 -58 -27.5 -84.5t-102.5 -48.5q-38 -13 -51.5 -24.5t-13.5 -35.5z" />
    <glyph glyph-name="three.numr" horiz-adv-x="340" 
d="M243 506q60 -24 60 -99q0 -63 -38.5 -88.5t-115.5 -25.5q-54 0 -120 8v69q65 -8 113 -8q46 0 63.5 13t17.5 45q0 30 -16.5 43t-55.5 13h-70v61h65q39 0 55 11.5t16 38.5q-1 29 -17 40t-58 11q-46 0 -107 -8v68q63 10 114 10q73 0 109 -25t36 -85q0 -68 -51 -92z" />
    <glyph glyph-name="four.numr" horiz-adv-x="375" 
d="M343 456v-65h-52v-91h-79v91h-192v65l190 244h2h79v-244h52zM104 456h108v145z" />
    <glyph glyph-name="five.numr" horiz-adv-x="333" 
d="M145 550q81 0 118.5 -28t37.5 -97q0 -72 -38.5 -102t-119.5 -30q-49 0 -113 7v66q63 -5 107 -5q46 0 64.5 13.5t18.5 49.5t-18.5 50t-65.5 14q-61 0 -96 -4v32v184h4h75h166v-66h-166v-84h26z" />
    <glyph glyph-name="six.numr" horiz-adv-x="365" 
d="M184 554q79 -1 118 -30t39 -99q0 -72 -39 -102t-109 -30q-94 0 -128 50t-34 158q0 52 6.5 88t24 64.5t50.5 41.5t84 13q46 -1 107 -10v-69q-66 10 -106 9q-43 0 -61.5 -19.5t-22.5 -66.5q34 2 71 2zM193 360q33 0 50 15t17 52q0 40 -19 53.5t-57 13.5q-30 1 -73 -5
q0 -72 16.5 -100.5t65.5 -28.5z" />
    <glyph glyph-name="seven.numr" horiz-adv-x="322" 
d="M14 700h279v-66l-159 -334h-82l160 334h-198v66z" />
    <glyph glyph-name="eight.numr" horiz-adv-x="370" 
d="M281 507q59 -25 59 -100q0 -63 -38.5 -89t-116 -26t-116 26t-38.5 89q0 75 58 100q-50 25 -50 92q0 59 36.5 83.5t109.5 24.5t109 -24.5t36 -83.5q0 -67 -49 -92zM185 643q-40 0 -56 -11.5t-16 -41.5t16 -41.5t56 -11.5t56 11.5t16 41.5t-16 41.5t-56 11.5zM185 359
q42 0 60 13t18 46q0 34 -18 47t-60 13t-60 -13t-18 -46.5t18 -46.5t60 -13z" />
    <glyph glyph-name="nine.numr" horiz-adv-x="362" 
d="M169 707q49 0 81.5 -13t50 -41t24.5 -64t7 -90q0 -53 -6.5 -88.5t-24.5 -63.5t-51 -41t-83 -13q-48 0 -108 9v69q63 -9 106 -9q44 1 62.5 21t22.5 71q-42 -3 -71 -3q-81 2 -118.5 29t-37.5 97t38 100t108 30zM179 510q31 0 73 5q-1 70 -17 97.5t-64 27.5q-69 0 -69 -65
q0 -39 19.5 -52t57.5 -13z" />
    <glyph glyph-name="braceleft.case" horiz-adv-x="414" 
d="M317 -14q14 0 34 2v-86q-26 -3 -50 -3q-162 0 -162 143v176q0 43 -18.5 62t-61.5 21v81q43 2 61.5 21t18.5 62v176q0 143 162 143q24 0 50 -3v-86q-20 2 -34 2q-40 0 -57 -16.5t-17 -54.5v-161q0 -83 -49 -123q49 -41 49 -124v-161q0 -38 17 -54.5t57 -16.5z" />
    <glyph glyph-name="braceright.case" horiz-adv-x="425" 
d="M275 465q0 -43 18.5 -62t61.5 -21v-81q-43 -2 -61.5 -21t-18.5 -62v-176q0 -143 -162 -143q-24 0 -50 3v86q19 -2 34 -2q40 0 57 16.5t17 54.5v161q0 83 49 124q-49 40 -49 123v161q0 38 -17 54.5t-57 16.5q-15 0 -34 -2v86q26 3 50 3q162 0 162 -143v-176z" />
    <glyph glyph-name="bracketleft.case" horiz-adv-x="335" 
d="M288 698h-102v-712h102v-85h-102h-104v797v85h104l102 -1v-84z" />
    <glyph glyph-name="bracketright.case" horiz-adv-x="335" 
d="M252 -99h-103h-103v85h103v712h-103v84l103 1h103v-85v-797z" />
    <glyph glyph-name="parenleft.case" horiz-adv-x="362" 
d="M319 790v-93q-80 -26 -113 -115t-33 -242.5t33 -242.5t113 -115v-93q-75 18 -125 56.5t-78 98t-39.5 130t-11.5 166t11.5 166.5t39.5 130t78 97.5t125 56.5z" />
    <glyph glyph-name="parenright.case" horiz-adv-x="362" 
d="M43 790q74 -18 124.5 -56.5t78 -97.5t39 -130t11.5 -166.5t-11.5 -166t-39 -130t-78 -98t-124.5 -56.5v93q80 26 113 115t33 242.5t-33 242.5t-113 115v93z" />
    </font>
</defs>
</svg>
