<?xml version="1.0" encoding="utf-8"?>
<!-- Generator: Adobe Illustrator 17.0.0, SVG Export Plug-In . SVG Version: 6.00 Build 0)  -->
<!DOCTYPE svg PUBLIC "-//W3C//DTD SVG 1.1//EN" "http://www.w3.org/Graphics/SVG/1.1/DTD/svg11.dtd">
<svg version="1.1" id="Layer_1" xmlns="http://www.w3.org/2000/svg" xmlns:xlink="http://www.w3.org/1999/xlink" x="0px" y="0px"
	 width="100px" height="30px" viewBox="0 0 100 30" enable-background="new 0 0 100 30" xml:space="preserve">
<g id="BYTON" transform="translate(138.000000, 12.000000)">
	<path id="Fill-5" fill="#7B7A78" d="M-122.66,7.207c0,3.979-2.318,5.209-6.44,5.209h-4.093h-3.12V-6.417h6.869
		c3.921,0,6.125,1.202,6.125,5.009c0,2.261-0.773,3.435-2.233,4.007C-123.662,3.2-122.66,4.574-122.66,7.207L-122.66,7.207z
		 M-129.415,9.898c2.691,0,3.521-0.716,3.521-2.92s-0.83-3.063-3.521-3.063h-3.778v5.982H-129.415z M-126.496-1.208
		c0-2.147-0.773-2.748-3.263-2.748h-3.435v5.381h3.406C-127.268,1.454-126.496,0.939-126.496-1.208L-126.496-1.208z"/>
	<polygon id="Fill-7" fill="#7B7A78" points="-108.177,5.805 -108.177,12.388 -111.297,12.388 -111.297,5.805 -117.365,-6.445 
		-114.016,-6.445 -109.751,2.571 -105.487,-6.445 -102.109,-6.445 	"/>
	<polygon id="Fill-9" fill="#7B7A78" points="-82.617,-6.445 -82.617,-3.841 -87.798,-3.841 -87.798,12.388 -90.918,12.388 
		-90.918,-3.841 -96.07,-3.841 -96.07,-6.445 	"/>
	<path id="Fill-11" fill="#7B7A78" d="M-61.179,2.971c0,6.182-1.431,9.732-7.814,9.732s-7.814-3.549-7.814-9.732
		s1.431-9.732,7.814-9.732C-62.61-6.789-61.179-3.24-61.179,2.971 M-73.573,2.971c0,5.009,0.83,6.984,4.58,6.984
		c3.75,0,4.58-1.946,4.58-6.984s-0.83-6.984-4.58-6.984C-72.742-4.013-73.573-2.066-73.573,2.971"/>
	<polygon id="Fill-13" fill="#7B7A78" points="-42.603,-6.445 -42.603,8.181 -49.902,-6.445 -53.794,-6.445 -53.794,12.388 
		-50.789,12.388 -50.789,-1.952 -43.633,12.388 -39.597,12.388 -39.597,-6.445 	"/>
</g>
</svg>
