<?xml version="1.0" encoding="utf-8"?>
<!-- Generator: Adobe Illustrator 21.1.0, SVG Export Plug-In . SVG Version: 6.00 Build 0)  -->
<svg version="1.1" id="Layer_1" xmlns="http://www.w3.org/2000/svg" xmlns:xlink="http://www.w3.org/1999/xlink" x="0px" y="0px"
	 viewBox="0 0 10 10" style="enable-background:new 0 0 10 10;" xml:space="preserve">
<style type="text/css">
	.st0{fill:#FFFFFF;}
</style>
<title>Map Pointer</title>
<desc>Created with Sketch.</desc>
<g id="V12">
	<g id="About" transform="translate(-226.000000, -2394.000000)">
		<g id="Locations" transform="translate(0.000000, 1958.000000)">
			<g id="MAP" transform="translate(0.000000, 132.000000)">
				<g id="Santa-Clara" transform="translate(144.000000, 287.000000)">
					
						<g id="Map-Pointer" transform="translate(87.000000, 22.000000) rotate(-270.000000) translate(-87.000000, -22.000000) translate(83.000000, 18.000000)">
						<path class="st0" d="M8.5,4c0,1.2-0.5,2.3-1.3,3.2C6.3,8,5.2,8.5,4,8.5S1.7,8,0.8,7.2s-1.3-2-1.3-3.2c0-1.2,0.5-2.3,1.3-3.2
							C1.7,0,2.8-0.5,4-0.5S6.3,0,7.2,0.8l0,0l0,0l0,0C8,1.7,8.5,2.8,8.5,4z M0.5,4c0,0.9,0.4,1.8,1,2.5s1.5,1,2.5,1s1.8-0.4,2.5-1
							c1.3-1.3,1.3-3.6,0-4.9l0,0c-0.7-0.7-1.5-1-2.5-1s-1.8,0.4-2.5,1S0.5,3.1,0.5,4z"/>
						<path id="Stroke-1_1_" class="st0" d="M4.7,3.3c0.4,0.4,0.4,1,0,1.4c-0.4,0.4-1,0.4-1.4,0c-0.4-0.4-0.4-1,0-1.4
							C3.7,2.9,4.3,2.9,4.7,3.3z"/>
					</g>
				</g>
			</g>
		</g>
	</g>
</g>
</svg>
