<?xml version="1.0" encoding="UTF-8"?>
<svg width="74px" height="68px" viewBox="0 0 74 68" version="1.1" xmlns="http://www.w3.org/2000/svg" xmlns:xlink="http://www.w3.org/1999/xlink">
    <!-- Generator: sketchtool 46.2 (44496) - http://www.bohemiancoding.com/sketch -->
    <title>275D8526-0F02-45A2-84E3-0ECABC231C9B</title>
    <desc>Created with sketchtool.</desc>
    <defs></defs>
    <g id="Nav,-Footer-&amp;-Sign-up" stroke="none" stroke-width="1" fill="none" fill-rule="evenodd">
        <g id="Contact-Us-Pop-Up---General" transform="translate(-79.000000, -164.000000)" fill="#FFFFFF">
            <g id="B-symbol" transform="translate(79.000000, 164.000000)">
                <path d="M57.7401346,67.9703704 L17.4255402,67.9703704 L17.4255402,49.2650394 L22.913259,49.2650394 L22.913259,63.0231358 L57.7837033,63.0231358 C66.7675675,63.0231358 69.3720071,60.8930897 69.38653,53.5318029 C69.3720071,46.0933198 66.8779415,44.0547656 57.7837033,44.0452352 L0,44.0452352 L0,39.0980007 L57.7401346,39.0980007 C67.4791895,39.1037189 73.9709245,41.5587519 73.9854474,53.533709 C73.9747973,62.1978025 71.2057649,67.9703704 57.7401346,67.9703704" id="Fill-1"></path>
                <path d="M73.9854474,14.4376145 C73.9699563,26.411456 67.4782213,28.8666511 57.7401346,28.8723697 L0,28.8723697 L0,23.9238554 L57.7837033,23.9238554 C66.8769733,23.9143244 69.3710389,21.8765887 69.38653,14.4376145 C69.3710389,7.0748886 66.7675675,4.94756119 57.7837033,4.94756119 L22.913259,4.94756119 L22.913259,18.7065659 L17.4255402,18.7065659 L17.4255402,0 L57.7401346,0 C71.2057649,0 73.9738291,5.77008967 73.9854474,14.4376145" id="Fill-4"></path>
            </g>
        </g>
    </g>
</svg>