<svg xmlns="http://www.w3.org/2000/svg" width="36" height="36" viewBox="0 0 36 36">
    <g fill="none" fill-rule="evenodd">
        <circle cx="18" cy="18" r="18" fill="#383736" fill-opacity=".2"/>
        <path fill="#FFF" d="M9.23 26.2h3.857V14.595H9.23V26.2zM11.184 9C9.864 9 9 9.866 9 11.005c0 1.114.839 2.006 2.133 2.006h.025c1.346 0 2.183-.892 2.183-2.006C13.316 9.866 12.504 9 11.184 9zM27 19.545V26.2h-3.858v-6.209c0-1.56-.558-2.624-1.954-2.624-1.067 0-1.7.717-1.98 1.411-.101.248-.128.593-.128.94V26.2h-3.86s.053-10.516 0-11.605h3.86v1.644l-.025.038h.025v-.038c.513-.789 1.428-1.917 3.478-1.917 2.539 0 4.442 1.659 4.442 5.223z"/>
    </g>
</svg>
