<svg xmlns="http://www.w3.org/2000/svg" width="23" height="20" viewBox="0 0 23 20">
    <g fill="#FFF" fill-rule="evenodd">
        <path d="M11.437 5.357a1.072 1.072 0 1 1 0-2.144 1.072 1.072 0 0 1 0 2.144m-5.718 0a1.072 1.072 0 1 1 0-2.144 1.072 1.072 0 0 1 0 2.144M8.578 0C3.84 0 0 3.199 0 7.143c0 2.274 1.284 4.291 3.275 5.597L2.145 15l3.08-1.319c.66.235 1.347.428 2.08.518a5.977 5.977 0 0 1-.157-1.342c0-3.938 3.847-7.143 8.578-7.143.433 0 .857.036 1.274.087C16.245 2.5 12.764 0 8.578 0"/>
        <path d="M18.1 12.417c-.58 0-1.05-.486-1.05-1.084 0-.598.47-1.083 1.05-1.083.58 0 1.05.485 1.05 1.083s-.47 1.084-1.05 1.084m-4.2 0c-.58 0-1.05-.486-1.05-1.084 0-.598.47-1.083 1.05-1.083.58 0 1.05.485 1.05 1.083s-.47 1.084-1.05 1.084m9.1.36C23 9.588 19.865 7 16 7s-7 2.587-7 5.778c0 3.19 3.135 5.778 7 5.778.636 0 1.24-.093 1.827-.224L21.6 20l-1.305-2.691C21.93 16.252 23 14.625 23 12.778"/>
    </g>
</svg>
