<svg xmlns="http://www.w3.org/2000/svg" width="36" height="36" viewBox="0 0 36 36">
    <g fill="none" fill-rule="evenodd">
        <circle cx="18" cy="18" r="18" fill="#383736" fill-opacity=".5" opacity=".5"/>
        <circle cx="18" cy="18" r="13.5" stroke="#FFF" opacity=".5"/>
        <path stroke="#FFF" d="M18.75 13.875a2.625 2.625 0 1 0 5.25 0 2.625 2.625 0 0 0-5.25 0zM15.75 20.25a2.25 2.25 0 1 1-4.5 0 2.25 2.25 0 0 1 4.5 0zM19 22.875a1.875 1.875 0 1 1 3.75 0 1.875 1.875 0 0 1-3.75 0zM19.5 22.5L15 21M15 18.75l4.5-3"/>
    </g>
</svg>
