<svg xmlns="http://www.w3.org/2000/svg" xmlns:xlink="http://www.w3.org/1999/xlink" width="36" height="36" viewBox="0 0 36 36">
    <defs>
        <path id="a" d="M0 0h20v20H0z"/>
    </defs>
    <g fill="none" fill-rule="evenodd">
        <circle cx="18" cy="18" r="18" fill="#383736" fill-opacity=".2"/>
        <g transform="translate(8 8)">
            <mask id="b" fill="#fff">
                <use xlink:href="#a"/>
            </mask>
            <path fill="#FFF" d="M15.14 11.987c-.06-.1-.221-.16-.461-.28-.24-.119-1.425-.697-1.645-.776-.22-.08-.382-.12-.542.12-.16.238-.621.776-.762.936-.14.16-.28.179-.521.06-.241-.12-1.017-.373-1.936-1.186-.715-.633-1.198-1.415-1.34-1.653-.139-.239-.013-.368.106-.487.109-.108.241-.28.362-.418.12-.14.16-.24.24-.4.08-.159.04-.298-.02-.417-.06-.12-.542-1.295-.742-1.773-.2-.477-.4-.399-.542-.399-.14 0-.3-.019-.46-.019-.161 0-.422.06-.642.299-.22.238-.842.817-.842 1.99 0 1.176.861 2.312.982 2.47.12.16 1.664 2.65 4.111 3.606s2.447.637 2.889.597c.44-.04 1.423-.578 1.624-1.135.2-.558.2-1.037.141-1.135M10.182 1.552c-4.553 0-8.255 3.674-8.255 8.19 0 1.792.584 3.452 1.572 4.803l-1.03 3.042 3.171-1.008a8.254 8.254 0 0 0 4.542 1.354c4.551 0 8.254-3.674 8.254-8.19 0-4.517-3.703-8.191-8.254-8.191M20 9.742c0 5.38-4.396 9.742-9.818 9.742-1.722 0-3.34-.439-4.746-1.212L0 20l1.772-5.227a9.638 9.638 0 0 1-1.408-5.03C.364 4.362 4.759 0 10.182 0 15.604 0 20 4.362 20 9.743" mask="url(#b)"/>
        </g>
    </g>
</svg>
